<svg xmlns="http://www.w3.org/2000/svg" xmlns:xlink="http://www.w3.org/1999/xlink" width="1920" zoomAndPan="magnify" viewBox="0 0 1440 809.999993" height="1080" preserveAspectRatio="xMidYMid meet" version="1.0"><defs><clipPath id="421938cf39"><path d="M 287.566406 50.300781 L 631.816406 50.300781 L 631.816406 394.550781 L 287.566406 394.550781 Z M 287.566406 50.300781 " clip-rule="nonzero"/></clipPath><clipPath id="2ba69efcce"><path d="M 459.691406 50.300781 C 364.628906 50.300781 287.566406 127.367188 287.566406 222.425781 C 287.566406 317.488281 364.628906 394.550781 459.691406 394.550781 C 554.75 394.550781 631.816406 317.488281 631.816406 222.425781 C 631.816406 127.367188 554.75 50.300781 459.691406 50.300781 " clip-rule="nonzero"/></clipPath><clipPath id="41ec3162c9"><path d="M 768.425781 607.203125 L 1152.425781 607.203125 L 1152.425781 799.203125 L 768.425781 799.203125 Z M 768.425781 607.203125 " clip-rule="nonzero"/></clipPath></defs><g clip-path="url(#421938cf39)"><g clip-path="url(#2ba69efcce)"><path stroke-linecap="butt" transform="matrix(0.750767, 0, 0, 0.750767, 287.564699, 50.302693)" fill="none" stroke-linejoin="miter" d="M 229.267899 -0.00254596 C 102.647341 -0.00254596 0.00227407 102.647724 0.00227407 229.263079 C 0.00227407 355.883637 102.647341 458.528704 229.267899 458.528704 C 355.883254 458.528704 458.533524 355.883637 458.533524 229.263079 C 458.533524 102.647724 355.883254 -0.00254596 229.267899 -0.00254596 " stroke="#f57227" stroke-width="150" stroke-opacity="1" stroke-miterlimit="4"/></g></g><g clip-path="url(#41ec3162c9)"><path fill="#f57227" d="M 1152.265625 799.203125 C 1152.265625 693.148438 1066.320312 607.203125 960.265625 607.203125 C 854.210938 607.203125 768.589844 693.148438 768.589844 799.203125 Z M 1152.265625 799.203125 " fill-opacity="1" fill-rule="nonzero"/></g><path fill="#5c58ce" d="M 912.046875 720.75 C 796.847656 777.296875 587.15625 732.992188 510.886719 648.835938 C 380.4375 504.890625 408.78125 279.351562 465.128906 203.582031 C 608.507812 10.796875 746.917969 144.785156 822.054688 163.800781 C 932.894531 191.855469 1042.617188 192.460938 1060.339844 395.695312 C 1071.019531 518.101562 1055.425781 650.367188 912.046875 720.75 " fill-opacity="1" fill-rule="nonzero"/><path fill="#000000" d="M 1019.390625 322.691406 C 983.847656 288.921875 965.058594 287.398438 949.824219 253.886719 C 941.265625 235.046875 950.585938 155.375 873.664062 152.328125 C 863.746094 151.933594 825.597656 154.019531 820.605469 193.96875 C 818.59375 210.0625 819.550781 221.257812 820.617188 230.277344 C 821.542969 238.058594 821.40625 245.933594 820.058594 253.652344 C 818.070312 265.023438 813.261719 277.792969 802.261719 286.023438 C 801.40625 286.660156 802.144531 288.003906 803.140625 287.625 C 808.855469 285.457031 816.894531 281.417969 822.640625 274.507812 C 823.148438 273.894531 824.140625 274.324219 824.042969 275.117188 C 824 275.484375 823.949219 275.855469 823.902344 276.230469 C 821.691406 293.117188 794.453125 309.996094 802.070312 342.75 C 809.691406 375.503906 984.355469 445.578125 1013.296875 431.105469 C 1042.238281 416.632812 1052.132812 353.796875 1019.390625 322.691406 " fill-opacity="1" fill-rule="nonzero"/><path fill="#00297a" d="M 994.210938 327.847656 C 994.210938 327.847656 961.957031 299.457031 912.929688 293.652344 C 912.929688 293.652344 827.777344 293.007812 793.589844 324.621094 C 759.398438 356.234375 738.753906 427.195312 740.6875 480.097656 L 994.210938 556.871094 L 994.210938 327.847656 " fill-opacity="1" fill-rule="nonzero"/><path fill="#00297a" d="M 890.03125 335.914062 C 890.03125 335.914062 910.351562 341.066406 925.183594 330.101562 L 965.179688 448.808594 C 965.179688 448.808594 945.492188 336.480469 993.871094 327.773438 C 993.871094 327.773438 1027.386719 347.191406 1021.925781 412.316406 C 1015.929688 483.914062 1006.789062 533 972.921875 535.902344 C 939.054688 538.804688 899.0625 525.902344 890.03125 335.914062 " fill-opacity="1" fill-rule="nonzero"/><path fill="#00297a" d="M 598.601562 347.167969 L 627.152344 330.867188 C 627.957031 330.40625 628.984375 330.667969 629.472656 331.453125 C 635.65625 341.496094 673.679688 401.324219 701.925781 402.066406 C 732.757812 402.878906 772.367188 341.734375 791.347656 326.816406 L 816.597656 408.253906 C 816.597656 408.253906 768.960938 475.238281 682.785156 478.515625 C 634.921875 480.335938 601.507812 362.757812 597.792969 349.113281 C 597.585938 348.355469 597.917969 347.558594 598.601562 347.167969 " fill-opacity="1" fill-rule="nonzero"/><path fill="#5c58ce" d="M 962.097656 537.589844 C 946.785156 537.589844 935.726562 534.074219 927.03125 526.613281 C 914.945312 516.238281 906.828125 497.941406 900.699219 467.273438 C 895.070312 439.09375 890.960938 399.980469 886.96875 336.480469 C 886.925781 335.835938 887.414062 335.277344 888.0625 335.238281 C 888.691406 335.199219 889.261719 335.6875 889.300781 336.332031 C 896.132812 444.871094 904.078125 503.828125 928.550781 524.835938 C 938.808594 533.640625 952.042969 536.601562 972.820312 534.738281 C 973.445312 534.683594 974.027344 535.15625 974.085938 535.800781 C 974.144531 536.441406 973.667969 537.011719 973.027344 537.066406 C 969.160156 537.414062 965.523438 537.589844 962.097656 537.589844 " fill-opacity="1" fill-rule="nonzero"/><path fill="#5c58ce" d="M 972.933594 466.296875 C 972.445312 466.296875 971.992188 465.992188 971.828125 465.503906 L 926.128906 330.9375 C 925.921875 330.324219 926.246094 329.660156 926.855469 329.453125 C 927.46875 329.246094 928.136719 329.574219 928.34375 330.1875 L 974.042969 464.75 C 974.246094 465.363281 973.917969 466.027344 973.308594 466.234375 C 973.183594 466.273438 973.054688 466.296875 972.933594 466.296875 " fill-opacity="1" fill-rule="nonzero"/><path fill="#5c58ce" d="M 961.261719 397.25 C 961.25 397.25 961.246094 397.25 961.238281 397.25 C 960.589844 397.238281 960.074219 396.703125 960.085938 396.058594 C 960.609375 367.597656 966.0625 347.492188 976.300781 336.296875 C 976.738281 335.824219 977.480469 335.789062 977.957031 336.230469 C 978.429688 336.667969 978.464844 337.402344 978.03125 337.882812 C 968.183594 348.640625 962.933594 368.226562 962.425781 396.101562 C 962.414062 396.738281 961.894531 397.25 961.261719 397.25 " fill-opacity="1" fill-rule="nonzero"/><path fill="#5c58ce" d="M 800.042969 420.59375 C 799.398438 420.59375 798.871094 420.070312 798.871094 419.425781 L 798.871094 378.292969 C 798.871094 377.648438 799.398438 377.128906 800.042969 377.128906 C 800.6875 377.128906 801.207031 377.648438 801.207031 378.292969 L 801.207031 419.425781 C 801.207031 420.070312 800.6875 420.59375 800.042969 420.59375 " fill-opacity="1" fill-rule="nonzero"/><path fill="#faceb4" d="M 866.558594 253.882812 C 866.558594 253.882812 867.363281 276.222656 866.429688 291.113281 C 865.992188 298.136719 861.105469 304.082031 854.324219 305.9375 L 845.40625 308.386719 C 840.808594 309.644531 840.359375 315.980469 844.730469 317.878906 C 861.96875 325.367188 896.613281 334.941406 937.34375 316.433594 C 941.6875 314.460938 941.175781 308.140625 936.554688 306.941406 L 918.996094 302.386719 C 912.46875 300.695312 907.625 295.203125 906.761719 288.519531 L 900.066406 236.621094 L 866.558594 253.882812 " fill-opacity="1" fill-rule="nonzero"/><path fill="#000000" d="M 867.75 254.589844 C 867.875 258.597656 868.425781 277.9375 867.601562 291.191406 C 867.128906 298.6875 861.917969 305.070312 854.632812 307.066406 L 845.714844 309.511719 C 843.761719 310.046875 842.96875 311.652344 842.867188 312.976562 C 842.773438 314.300781 843.335938 316 845.195312 316.808594 C 862.089844 324.148438 896.46875 333.71875 936.863281 315.371094 C 938.71875 314.523438 939.261719 312.804688 939.140625 311.476562 C 939.03125 310.160156 938.210938 308.578125 936.257812 308.074219 L 918.699219 303.519531 C 911.675781 301.699219 906.53125 295.867188 905.601562 288.667969 L 899.121094 238.421875 Z M 889.304688 328.289062 C 869.898438 328.289062 854.152344 323.246094 844.261719 318.953125 C 841.808594 317.886719 840.347656 315.476562 840.539062 312.8125 C 840.726562 310.144531 842.519531 307.964844 845.097656 307.257812 L 854.015625 304.8125 C 860.335938 303.078125 864.859375 297.546875 865.265625 291.042969 C 866.183594 276.375 865.394531 254.152344 865.390625 253.925781 L 865.359375 253.1875 L 901.015625 234.816406 L 907.921875 288.371094 C 908.730469 294.617188 913.191406 299.675781 919.289062 301.257812 L 936.851562 305.808594 C 939.429688 306.480469 941.246094 308.621094 941.472656 311.269531 C 941.707031 313.941406 940.277344 316.386719 937.828125 317.496094 C 920.234375 325.492188 903.753906 328.289062 889.304688 328.289062 " fill-opacity="1" fill-rule="nonzero"/><path fill="#faceb4" d="M 843.066406 181.261719 C 835.988281 188.75 832.320312 198.828125 832.34375 209.136719 C 832.355469 214.988281 835.414062 220.644531 836.347656 228.617188 C 838.757812 249.1875 847.472656 265.617188 871.277344 264 C 871.277344 264 899.855469 262.445312 903.347656 231.800781 C 903.347656 231.800781 905.019531 216.351562 898.042969 200.058594 C 893.347656 189.117188 880.070312 167.011719 859.511719 171.667969 C 852.445312 173.265625 847.070312 177.019531 843.066406 181.261719 " fill-opacity="1" fill-rule="nonzero"/><path fill="#000000" d="M 843.914062 182.0625 C 837.179688 189.1875 833.484375 198.804688 833.507812 209.136719 C 833.515625 212.0625 834.332031 214.949219 835.269531 218.292969 C 836.105469 221.261719 837.050781 224.628906 837.503906 228.488281 C 840.375 252.949219 851.394531 264.179688 871.195312 262.835938 C 872.339844 262.773438 898.847656 260.945312 902.183594 231.667969 C 902.199219 231.527344 903.734375 216.320312 896.964844 200.523438 C 894.609375 195.019531 881.730469 167.835938 859.765625 172.808594 C 853.769531 174.167969 848.433594 177.28125 843.914062 182.0625 Z M 868.125 265.28125 C 849.109375 265.28125 838.027344 253.011719 835.183594 228.761719 C 834.75 225.082031 833.871094 221.953125 833.019531 218.921875 C 832.074219 215.5625 831.179688 212.386719 831.171875 209.140625 C 831.148438 198.207031 835.066406 188.023438 842.210938 180.460938 C 847.058594 175.332031 852.792969 171.988281 859.253906 170.527344 C 883.023438 165.144531 896.625 193.800781 899.113281 199.601562 C 906.128906 215.984375 904.578125 231.285156 904.503906 231.929688 C 900.941406 263.203125 871.636719 265.152344 871.339844 265.171875 C 870.242188 265.242188 869.175781 265.28125 868.125 265.28125 " fill-opacity="1" fill-rule="nonzero"/><path fill="#000000" d="M 883.5625 175.160156 C 883.5625 175.160156 880.515625 185.847656 863.773438 199.597656 C 852.914062 208.523438 834 210.554688 830.804688 217.828125 C 830.804688 217.828125 819.164062 173.605469 856.792969 168.5625 C 894.425781 163.519531 883.5625 175.160156 883.5625 175.160156 " fill-opacity="1" fill-rule="nonzero"/><path fill="#000000" d="M 1033.101562 569.125 C 1032.988281 569.125 1032.878906 569.109375 1032.765625 569.078125 L 805.042969 502.050781 C 804.421875 501.867188 804.070312 501.214844 804.25 500.597656 C 804.433594 499.980469 805.082031 499.625 805.699219 499.804688 L 1033.429688 566.835938 C 1034.046875 567.015625 1034.402344 567.667969 1034.21875 568.285156 C 1034.070312 568.792969 1033.601562 569.125 1033.101562 569.125 " fill-opacity="1" fill-rule="nonzero"/><path fill="#faceb4" d="M 621.457031 332.257812 C 617.511719 323.6875 613.996094 307.15625 609.988281 301.476562 C 605.980469 295.796875 601.273438 290.867188 593.785156 286.167969 C 589.941406 283.753906 582.089844 279.128906 576.070312 277.515625 C 570.054688 275.90625 572.683594 287.527344 578.082031 289.605469 C 583.476562 291.691406 587.632812 295.496094 586.15625 296.515625 C 585.128906 297.226562 582.269531 300.316406 576.761719 298.996094 C 570.585938 297.511719 566.5 291.699219 566.652344 285.355469 C 566.679688 284.257812 566.789062 283.140625 567.023438 282.054688 C 568.445312 275.433594 565.332031 268.546875 559.109375 265.871094 C 556.164062 264.609375 552.625 263.972656 548.472656 264.660156 C 541.886719 265.75 540.316406 303.207031 565.402344 315.277344 C 570.597656 317.773438 591.980469 322.171875 596.378906 328.242188 C 600.78125 334.308594 603.945312 342.878906 603.945312 342.878906 L 621.457031 332.257812 " fill-opacity="1" fill-rule="nonzero"/><path fill="#000000" d="M 551.8125 265.550781 C 550.777344 265.550781 549.726562 265.640625 548.660156 265.816406 C 547.882812 265.945312 546.484375 267.804688 545.824219 272.40625 C 544.15625 284.035156 548.140625 305.675781 565.910156 314.226562 C 567.417969 314.953125 570.519531 315.890625 574.113281 316.984375 C 582.992188 319.675781 594.039062 323.027344 597.324219 327.554688 C 600.78125 332.324219 603.449219 338.492188 604.527344 341.160156 L 619.96875 331.792969 C 618.398438 328.140625 616.890625 323.332031 615.425781 318.671875 C 613.355469 312.070312 611.214844 305.246094 609.03125 302.152344 C 604.5625 295.820312 599.816406 291.335938 593.160156 287.160156 C 589.160156 284.648438 581.582031 280.203125 575.769531 278.648438 C 574.421875 278.285156 574.125 278.828125 573.949219 279.363281 C 573.199219 281.664062 575.25 287.265625 578.5 288.519531 C 582.664062 290.125 587.328125 293.324219 587.609375 295.695312 C 587.695312 296.421875 587.40625 297.074219 586.820312 297.480469 C 586.710938 297.558594 586.578125 297.660156 586.421875 297.785156 C 585.0625 298.878906 581.875 301.429688 576.484375 300.136719 C 569.941406 298.566406 565.3125 292.335938 565.484375 285.332031 C 565.515625 284.074219 565.648438 282.890625 565.878906 281.8125 C 567.21875 275.578125 564.175781 269.328125 558.644531 266.949219 C 556.480469 266.019531 554.191406 265.550781 551.8125 265.550781 Z M 603.335938 344.617188 L 602.84375 343.289062 C 602.816406 343.203125 599.683594 334.789062 595.433594 328.929688 C 592.609375 325.035156 581.070312 321.539062 573.433594 319.21875 C 569.597656 318.054688 566.566406 317.132812 564.898438 316.328125 C 546.003906 307.242188 541.75 284.359375 543.511719 272.074219 C 544.246094 266.9375 545.9375 263.894531 548.277344 263.507812 C 552.246094 262.851562 556.046875 263.285156 559.570312 264.800781 C 566.125 267.617188 569.738281 274.980469 568.164062 282.304688 C 567.960938 283.242188 567.847656 284.28125 567.820312 285.386719 C 567.675781 291.300781 571.550781 296.542969 577.03125 297.859375 C 581.304688 298.886719 583.683594 296.984375 584.960938 295.960938 C 585.050781 295.890625 585.132812 295.824219 585.210938 295.765625 C 584.707031 294.820312 581.96875 292.363281 577.660156 290.703125 C 573.3125 289.023438 570.542969 282.273438 571.726562 278.640625 C 572.382812 276.628906 574.121094 275.785156 576.371094 276.390625 C 582.480469 278.023438 590.292969 282.597656 594.402344 285.179688 C 601.246094 289.476562 606.34375 294.292969 610.941406 300.804688 C 613.335938 304.195312 615.433594 310.886719 617.65625 317.972656 C 619.230469 322.984375 620.855469 328.164062 622.515625 331.769531 L 622.953125 332.71875 L 603.335938 344.617188 " fill-opacity="1" fill-rule="nonzero"/><path fill="#faceb4" d="M 596.523438 331.941406 L 618.046875 319.863281 C 619 319.328125 620.203125 319.691406 620.703125 320.660156 L 627.945312 334.738281 C 628.421875 335.667969 628.074219 336.804688 627.164062 337.308594 L 605.539062 349.273438 C 604.582031 349.804688 603.382812 349.433594 602.886719 348.464844 L 595.75 334.496094 C 595.28125 333.578125 595.621094 332.445312 596.523438 331.941406 " fill-opacity="1" fill-rule="nonzero"/><path fill="#000000" d="M 618.988281 320.785156 C 618.859375 320.785156 618.734375 320.816406 618.617188 320.878906 L 597.097656 332.960938 C 596.742188 333.160156 596.609375 333.601562 596.792969 333.96875 L 603.929688 347.933594 C 604.023438 348.121094 604.183594 348.253906 604.382812 348.3125 C 604.582031 348.375 604.789062 348.351562 604.972656 348.253906 L 626.597656 336.285156 C 626.960938 336.085938 627.09375 335.640625 626.90625 335.273438 L 619.664062 321.195312 C 619.570312 321.011719 619.40625 320.875 619.207031 320.816406 C 619.136719 320.796875 619.0625 320.785156 618.988281 320.785156 Z M 604.609375 350.6875 C 604.304688 350.6875 604 350.644531 603.699219 350.550781 C 602.890625 350.300781 602.234375 349.75 601.847656 348.996094 L 594.710938 335.027344 C 593.953125 333.542969 594.496094 331.738281 595.953125 330.917969 L 617.472656 318.84375 C 618.210938 318.429688 619.070312 318.332031 619.882812 318.578125 C 620.691406 318.824219 621.355469 319.371094 621.742188 320.125 L 628.984375 334.203125 C 629.757812 335.703125 629.203125 337.515625 627.730469 338.332031 L 606.101562 350.296875 C 605.636719 350.554688 605.125 350.6875 604.609375 350.6875 " fill-opacity="1" fill-rule="nonzero"/><path fill="#000000" d="M 887.960938 253.667969 C 885.707031 253.667969 883.417969 253.355469 881.152344 252.695312 L 858.019531 245.984375 L 858.671875 243.738281 L 881.800781 250.449219 C 892.121094 253.445312 903.003906 248.585938 907.660156 238.902344 L 912.375 229.09375 L 914.480469 230.109375 L 909.765625 239.917969 C 905.632812 248.507812 897.078125 253.667969 887.960938 253.667969 " fill-opacity="1" fill-rule="nonzero"/><path fill="#5c58ce" d="M 912.65625 205.035156 C 912.019531 205.035156 911.503906 204.527344 911.488281 203.890625 C 911.480469 203.601562 910.675781 174.558594 895.265625 160.207031 C 889.128906 154.492188 881.425781 151.824219 872.371094 152.269531 C 871.703125 152.3125 871.175781 151.804688 871.148438 151.160156 C 871.109375 150.515625 871.609375 149.96875 872.253906 149.9375 C 881.96875 149.453125 890.25 152.335938 896.863281 158.496094 C 913.003906 173.53125 913.796875 202.609375 913.828125 203.84375 C 913.839844 204.484375 913.328125 205.023438 912.683594 205.035156 C 912.671875 205.035156 912.664062 205.035156 912.65625 205.035156 " fill-opacity="1" fill-rule="nonzero"/><path fill="#00297a" d="M 849.578125 244.761719 C 849.136719 241.308594 851.636719 238.144531 855.152344 237.703125 C 858.671875 237.257812 861.875 239.699219 862.3125 243.148438 C 862.746094 246.601562 860.25 249.765625 856.738281 250.207031 C 853.21875 250.65625 850.015625 248.214844 849.578125 244.761719 " fill-opacity="1" fill-rule="nonzero"/><path fill="#00297a" d="M 895.925781 219.742188 C 894.699219 210.050781 900.902344 201.292969 909.789062 200.167969 C 910.761719 200.042969 914.375 199.949219 915.316406 200.015625 C 923.023438 200.53125 926.996094 207.046875 928.085938 215.671875 C 929.265625 224.972656 925.71875 233.667969 917.402344 235.320312 C 917.0625 235.390625 914.597656 235.585938 914.242188 235.585938 C 904.503906 235.617188 897.148438 229.429688 895.925781 219.742188 " fill-opacity="1" fill-rule="nonzero"/><path fill="#f57227" d="M 899.765625 219.429688 C 898.730469 209.714844 905.109375 201.074219 914.015625 200.125 C 922.910156 199.175781 930.972656 206.277344 932.007812 215.984375 C 933.046875 225.695312 926.667969 234.335938 917.761719 235.285156 C 908.859375 236.238281 900.800781 229.136719 899.765625 219.429688 " fill-opacity="1" fill-rule="nonzero"/><path fill="#faceb4" d="M 871.324219 234.941406 C 873.4375 232.160156 888.417969 237.84375 894.550781 240.105469 C 900.675781 242.359375 916.480469 263.652344 917.773438 277.847656 C 919.0625 292.039062 914.871094 315.910156 918.097656 324.296875 C 918.097656 324.296875 910.351562 331.394531 895.835938 329.453125 C 895.835938 329.453125 894.226562 315.910156 891.328125 311.066406 C 888.417969 306.230469 870.679688 293.328125 871.96875 284.617188 C 872.949219 278.011719 885.4375 273.074219 891.40625 271.074219 C 892.371094 270.753906 892.308594 269.367188 891.320312 269.144531 C 888.257812 268.457031 883.355469 267.902344 878.097656 269.457031 C 869.390625 272.039062 861.648438 267.847656 865.195312 263.003906 C 868.382812 258.664062 881.175781 254.058594 890.296875 255.03125 C 890.671875 255.066406 890.804688 254.5625 890.460938 254.410156 C 883.359375 251.28125 865.605469 242.484375 871.324219 234.941406 " fill-opacity="1" fill-rule="nonzero"/><path fill="#000000" d="M 896.882812 328.40625 C 907.992188 329.621094 914.773438 325.347656 916.722656 323.898438 C 915.128906 318.683594 915.675781 309.335938 916.253906 299.464844 C 916.695312 291.847656 917.152344 283.96875 916.605469 277.949219 C 915.355469 264.214844 899.886719 243.316406 894.144531 241.203125 L 893.371094 240.917969 C 890.058594 239.691406 885.046875 237.839844 880.550781 236.605469 C 873.175781 234.574219 872.265625 235.640625 872.257812 235.648438 C 871.4375 236.726562 871.195312 237.84375 871.507812 239.066406 C 872.554688 243.109375 879.820312 248.445312 890.929688 253.34375 C 891.609375 253.640625 891.964844 254.378906 891.773438 255.09375 C 891.582031 255.808594 890.910156 256.269531 890.171875 256.191406 C 881.476562 255.265625 869.058594 259.714844 866.136719 263.699219 C 865.351562 264.769531 865.273438 265.726562 865.898438 266.609375 C 867.359375 268.695312 872.320312 269.949219 877.761719 268.339844 C 883.207031 266.726562 888.277344 267.265625 891.570312 268.003906 C 892.535156 268.21875 893.214844 269.027344 893.257812 270.007812 C 893.3125 271 892.714844 271.871094 891.78125 272.183594 C 880.71875 275.886719 873.746094 280.597656 873.121094 284.792969 C 872.320312 290.214844 880.339844 298.066406 886.195312 303.796875 C 889.074219 306.617188 891.347656 308.847656 892.324219 310.46875 C 894.90625 314.769531 896.457031 325.226562 896.882812 328.40625 Z M 900.808594 330.964844 C 899.203125 330.964844 897.496094 330.859375 895.679688 330.613281 L 894.785156 330.496094 L 894.675781 329.59375 C 894.660156 329.460938 893.0625 316.242188 890.320312 311.671875 C 889.496094 310.304688 887.207031 308.0625 884.558594 305.46875 C 877.996094 299.046875 869.832031 291.054688 870.8125 284.445312 C 871.828125 277.570312 883.3125 272.609375 890.46875 270.160156 C 887.453125 269.554688 883.082031 269.203125 878.429688 270.578125 C 872.484375 272.339844 866.273438 271.210938 863.984375 267.957031 C 862.78125 266.246094 862.878906 264.191406 864.253906 262.316406 C 867.160156 258.351562 877.253906 254.15625 886.269531 253.757812 C 879.367188 250.390625 870.671875 245.164062 869.246094 239.652344 C 868.746094 237.71875 869.128906 235.898438 870.390625 234.234375 C 872.523438 231.425781 880.730469 233.753906 894.179688 238.726562 L 894.953125 239.007812 C 901.261719 241.332031 917.59375 262.988281 918.933594 277.742188 C 919.496094 283.933594 919.03125 291.898438 918.582031 299.601562 C 918.019531 309.304688 917.433594 319.332031 919.179688 323.878906 L 919.46875 324.621094 L 918.882812 325.160156 C 918.589844 325.425781 912.394531 330.964844 900.808594 330.964844 " fill-opacity="1" fill-rule="nonzero"/><path fill="#faceb4" d="M 893.003906 319.808594 C 896.660156 320.316406 906.367188 320.84375 918.101562 314.816406 C 918.816406 314.449219 919.683594 314.878906 919.839844 315.667969 L 922.5625 329.355469 C 922.667969 329.878906 922.425781 330.402344 921.964844 330.65625 C 918.796875 332.402344 906.417969 338.457031 893.878906 334.386719 C 893.429688 334.242188 893.109375 333.835938 893.050781 333.367188 L 891.628906 321.152344 C 891.535156 320.359375 892.210938 319.695312 893.003906 319.808594 " fill-opacity="1" fill-rule="nonzero"/><path fill="#000000" d="M 892.828125 320.960938 C 892.820312 320.960938 892.8125 320.964844 892.804688 320.976562 L 894.214844 333.230469 C 906.222656 337.164062 918.054688 331.46875 921.398438 329.636719 L 918.691406 315.894531 C 906.597656 322.035156 896.582031 321.484375 892.839844 320.964844 C 892.835938 320.964844 892.832031 320.960938 892.828125 320.960938 Z M 902.878906 336.941406 C 899.863281 336.941406 896.699219 336.53125 893.519531 335.5 C 892.636719 335.214844 892 334.429688 891.890625 333.503906 L 890.46875 321.285156 C 890.378906 320.546875 890.636719 319.824219 891.167969 319.304688 C 891.699219 318.78125 892.421875 318.542969 893.160156 318.648438 C 896.6875 319.140625 906.121094 319.652344 917.566406 313.777344 C 918.230469 313.4375 919.003906 313.425781 919.683594 313.757812 C 920.359375 314.085938 920.835938 314.699219 920.984375 315.441406 L 923.710938 329.128906 C 923.910156 330.152344 923.4375 331.179688 922.523438 331.683594 C 919.855469 333.152344 912.0625 336.941406 902.878906 336.941406 " fill-opacity="1" fill-rule="nonzero"/><path fill="#000000" d="M 689.800781 170.609375 L 689.808594 170.609375 Z M 725.839844 151.855469 C 722.742188 151.855469 719.621094 152.210938 716.527344 152.914062 C 705.785156 155.382812 696.644531 161.890625 690.792969 171.230469 C 684.941406 180.574219 683.074219 191.636719 685.546875 202.378906 C 688.011719 213.121094 694.511719 222.261719 703.855469 228.113281 C 723.136719 240.195312 748.652344 234.332031 760.734375 215.050781 C 766.585938 205.707031 768.453125 194.648438 765.980469 183.90625 C 763.511719 173.160156 757.011719 164.019531 747.671875 158.167969 C 741.019531 154 733.5 151.855469 725.839844 151.855469 Z M 725.691406 236.734375 C 717.785156 236.734375 709.792969 234.589844 702.613281 230.09375 C 692.742188 223.910156 685.871094 214.253906 683.265625 202.898438 C 680.65625 191.546875 682.628906 179.859375 688.8125 169.992188 C 694.996094 160.117188 704.652344 153.246094 716.003906 150.640625 C 727.355469 148.03125 739.042969 150.003906 748.910156 156.183594 C 758.78125 162.371094 765.652344 172.027344 768.261719 183.378906 C 770.867188 194.730469 768.894531 206.421875 762.714844 216.289062 C 754.449219 229.488281 740.222656 236.734375 725.691406 236.734375 " fill-opacity="1" fill-rule="nonzero"/><path fill="#000000" d="M 715.570312 168.105469 C 715.363281 168.105469 715.152344 168.128906 714.945312 168.175781 C 714.222656 168.34375 713.609375 168.78125 713.214844 169.410156 L 698.125 193.492188 C 697.734375 194.121094 697.609375 194.867188 697.773438 195.585938 C 697.941406 196.3125 698.378906 196.925781 699.007812 197.320312 L 733.875 219.164062 C 734.5 219.558594 735.25 219.683594 735.96875 219.519531 C 736.695312 219.351562 737.308594 218.914062 737.703125 218.285156 L 752.785156 194.203125 C 753.179688 193.574219 753.304688 192.828125 753.136719 192.109375 C 752.976562 191.382812 752.539062 190.773438 751.90625 190.378906 L 717.039062 168.527344 C 716.59375 168.25 716.085938 168.105469 715.570312 168.105469 Z M 735.339844 221.929688 C 734.390625 221.929688 733.457031 221.664062 732.636719 221.144531 L 697.765625 199.300781 C 696.605469 198.574219 695.800781 197.441406 695.496094 196.109375 C 695.191406 194.78125 695.421875 193.40625 696.144531 192.25 L 711.234375 168.167969 C 712.730469 165.78125 715.890625 165.050781 718.28125 166.546875 L 753.152344 188.394531 C 754.308594 189.121094 755.113281 190.253906 755.417969 191.585938 C 755.726562 192.914062 755.492188 194.289062 754.765625 195.445312 L 739.679688 219.527344 C 738.957031 220.6875 737.824219 221.492188 736.496094 221.796875 C 736.109375 221.882812 735.722656 221.929688 735.339844 221.929688 " fill-opacity="1" fill-rule="nonzero"/><path fill="#000000" d="M 724.761719 196.484375 C 724.320312 196.484375 723.898438 196.230469 723.699219 195.800781 L 715.835938 178.695312 C 715.566406 178.101562 715.824219 177.410156 716.410156 177.140625 C 717 176.871094 717.6875 177.128906 717.960938 177.714844 L 725.824219 194.824219 C 726.09375 195.414062 725.835938 196.105469 725.25 196.375 C 725.09375 196.445312 724.925781 196.484375 724.761719 196.484375 " fill-opacity="1" fill-rule="nonzero"/><path fill="#000000" d="M 724.851562 196.542969 C 724.214844 196.542969 723.695312 196.03125 723.683594 195.394531 C 723.671875 194.75 724.183594 194.214844 724.832031 194.203125 L 743.652344 193.816406 C 744.289062 193.777344 744.832031 194.316406 744.847656 194.960938 C 744.859375 195.605469 744.347656 196.140625 743.703125 196.152344 L 724.875 196.542969 C 724.871094 196.542969 724.863281 196.542969 724.851562 196.542969 " fill-opacity="1" fill-rule="nonzero"/><path fill="#00297a" d="M 579.171875 202.765625 L 552.9375 208.679688 C 549.703125 209.410156 547.191406 211.953125 546.5 215.195312 L 543.003906 231.667969 L 531.003906 218.121094 C 528.953125 215.808594 525.800781 214.789062 522.785156 215.472656 L 498.65625 220.910156 C 494.085938 221.941406 489.542969 219.066406 488.511719 214.496094 L 476.972656 163.273438 C 475.941406 158.703125 478.8125 154.160156 483.382812 153.128906 L 563.902344 134.984375 C 568.472656 133.953125 573.015625 136.824219 574.046875 141.398438 L 585.585938 192.625 C 586.617188 197.195312 583.746094 201.738281 579.171875 202.765625 " fill-opacity="1" fill-rule="nonzero"/><path fill="#000000" d="M 500.972656 171.777344 C 500.441406 171.777344 499.957031 171.410156 499.835938 170.867188 C 499.691406 170.234375 500.085938 169.613281 500.714844 169.46875 L 558.597656 156.269531 C 559.230469 156.121094 559.855469 156.515625 559.996094 157.144531 C 560.140625 157.773438 559.75 158.402344 559.117188 158.546875 L 501.234375 171.746094 C 501.148438 171.769531 501.058594 171.777344 500.972656 171.777344 " fill-opacity="1" fill-rule="nonzero"/><path fill="#000000" d="M 502.667969 185.652344 C 502.132812 185.652344 501.652344 185.289062 501.527344 184.746094 C 501.382812 184.117188 501.777344 183.488281 502.410156 183.34375 L 545.308594 173.5625 C 545.9375 173.414062 546.5625 173.808594 546.707031 174.441406 C 546.851562 175.070312 546.457031 175.699219 545.828125 175.839844 L 502.925781 185.621094 C 502.839844 185.644531 502.753906 185.652344 502.667969 185.652344 " fill-opacity="1" fill-rule="nonzero"/><path fill="#000000" d="M 507.40625 199.199219 C 506.871094 199.199219 506.390625 198.832031 506.265625 198.292969 C 506.125 197.660156 506.515625 197.035156 507.144531 196.890625 L 565.03125 183.6875 C 565.660156 183.539062 566.285156 183.9375 566.429688 184.566406 C 566.574219 185.199219 566.179688 185.824219 565.550781 185.964844 L 507.667969 199.167969 C 507.578125 199.1875 507.492188 199.199219 507.40625 199.199219 " fill-opacity="1" fill-rule="nonzero"/><path fill="#faceb4" d="M 520.355469 278.214844 L 506.773438 291.488281 C 505.097656 293.125 504.53125 295.585938 505.316406 297.789062 L 509.316406 308.988281 L 497.085938 305.289062 C 494.996094 304.65625 492.726562 305.214844 491.164062 306.738281 L 478.675781 318.945312 C 476.308594 321.257812 472.515625 321.214844 470.203125 318.847656 L 444.296875 292.332031 C 441.984375 289.964844 442.027344 286.175781 444.394531 283.863281 L 486.070312 243.132812 C 488.441406 240.820312 492.230469 240.863281 494.546875 243.230469 L 520.453125 269.742188 C 522.765625 272.109375 522.71875 275.902344 520.355469 278.214844 " fill-opacity="1" fill-rule="nonzero"/><path fill="#f57227" d="M 461.03125 289.246094 C 460.726562 289.246094 460.425781 289.128906 460.195312 288.894531 C 459.746094 288.429688 459.753906 287.691406 460.214844 287.242188 L 488.988281 259.140625 C 489.449219 258.691406 490.1875 258.699219 490.640625 259.160156 C 491.09375 259.625 491.082031 260.363281 490.621094 260.816406 L 461.847656 288.914062 C 461.621094 289.136719 461.328125 289.246094 461.03125 289.246094 " fill-opacity="1" fill-rule="nonzero"/><path fill="#f57227" d="M 468.816406 296.019531 C 468.515625 296.019531 468.210938 295.902344 467.980469 295.667969 C 467.53125 295.203125 467.539062 294.464844 468 294.015625 L 496.773438 265.917969 C 497.234375 265.464844 497.976562 265.472656 498.425781 265.933594 C 498.875 266.398438 498.867188 267.136719 498.40625 267.585938 L 469.632812 295.683594 C 469.40625 295.910156 469.109375 296.019531 468.816406 296.019531 " fill-opacity="1" fill-rule="nonzero"/><path fill="#f57227" d="M 475.589844 302.785156 C 475.285156 302.785156 474.980469 302.667969 474.75 302.429688 C 474.300781 301.96875 474.308594 301.230469 474.773438 300.78125 L 503.542969 272.679688 C 504.007812 272.230469 504.746094 272.238281 505.195312 272.703125 C 505.648438 273.164062 505.640625 273.902344 505.175781 274.355469 L 476.40625 302.453125 C 476.175781 302.675781 475.882812 302.785156 475.589844 302.785156 " fill-opacity="1" fill-rule="nonzero"/><path fill="#000000" d="M 437.128906 436.296875 C 439.253906 458.953125 459.414062 475.65625 482.070312 473.527344 C 493.042969 472.5 502.960938 467.257812 509.992188 458.769531 C 517.023438 450.28125 520.332031 439.5625 519.300781 428.585938 C 518.269531 417.613281 513.03125 407.691406 504.542969 400.664062 C 496.054688 393.628906 485.335938 390.324219 474.359375 391.351562 C 451.707031 393.476562 435.003906 413.640625 437.128906 436.296875 Z M 478.183594 476.050781 C 455.960938 476.050781 436.917969 459.078125 434.800781 436.515625 C 432.554688 412.574219 450.207031 391.273438 474.144531 389.023438 C 498.078125 386.78125 519.382812 404.429688 521.628906 428.367188 C 522.71875 439.964844 519.222656 451.292969 511.792969 460.261719 C 504.363281 469.234375 493.882812 474.769531 482.289062 475.859375 C 480.910156 475.988281 479.539062 476.050781 478.183594 476.050781 " fill-opacity="1" fill-rule="nonzero"/><path fill="#000000" d="M 470.746094 408.640625 C 470.726562 408.640625 470.710938 408.644531 470.691406 408.648438 L 468.613281 409.027344 C 467.085938 409.308594 465.71875 410.074219 464.769531 411.179688 C 460.148438 416.578125 461.230469 427.808594 467.398438 438.496094 C 473.585938 449.214844 482.789062 455.761719 489.78125 454.417969 C 491.191406 454.152344 492.507812 453.363281 493.488281 452.214844 L 494.890625 450.5625 C 495.007812 450.429688 495.011719 450.117188 494.898438 449.980469 L 489.273438 443.003906 C 489.03125 442.707031 488.402344 442.398438 487.996094 442.410156 L 487.058594 442.425781 C 486.417969 442.441406 485.726562 442.597656 485.003906 442.894531 C 480.921875 444.570312 477.015625 442.0625 473.066406 435.222656 C 469.132812 428.40625 468.898438 423.777344 472.359375 421.078125 C 473.007812 420.570312 473.59375 419.882812 474.101562 419.039062 L 474.3125 418.691406 C 474.507812 418.359375 474.570312 417.652344 474.429688 417.289062 L 471.207031 408.9375 C 471.148438 408.78125 470.921875 408.640625 470.746094 408.640625 Z M 487.894531 456.933594 C 480.292969 456.933594 471.519531 450.3125 465.375 439.664062 C 458.613281 427.949219 457.65625 415.898438 462.996094 409.664062 C 464.289062 408.148438 466.136719 407.109375 468.191406 406.730469 L 470.269531 406.347656 C 471.546875 406.113281 472.921875 406.878906 473.390625 408.09375 L 476.613281 416.449219 C 477.007812 417.476562 476.878906 418.957031 476.316406 419.894531 L 476.101562 420.25 C 475.449219 421.335938 474.671875 422.234375 473.796875 422.914062 C 472.921875 423.601562 470.257812 425.683594 475.089844 434.050781 C 479.9375 442.445312 483.085938 441.15625 484.117188 440.730469 C 485.105469 440.324219 486.082031 440.109375 487.015625 440.089844 L 487.960938 440.074219 C 489.082031 440.054688 490.40625 440.6875 491.09375 441.535156 L 496.71875 448.507812 C 497.539062 449.519531 497.515625 451.089844 496.671875 452.078125 L 495.269531 453.726562 C 493.945312 455.285156 492.152344 456.347656 490.21875 456.71875 C 489.460938 456.863281 488.683594 456.933594 487.894531 456.933594 " fill-opacity="1" fill-rule="nonzero"/><path fill="#faceb4" d="M 804.46875 616.503906 L 582.941406 552.125 C 579.503906 551.125 577.136719 547.972656 577.136719 544.390625 L 577.136719 392.574219 C 577.136719 387.210938 582.285156 383.34375 587.433594 384.839844 L 808.960938 449.222656 C 812.398438 450.222656 814.261719 453.421875 814.261719 457 L 813.917969 607.816406 C 813.917969 613.179688 809.617188 618 804.46875 616.503906 " fill-opacity="1" fill-rule="nonzero"/><path fill="#000000" d="M 804.792969 615.382812 C 806.960938 616.011719 808.621094 615.238281 809.636719 614.476562 C 811.558594 613.035156 812.75 610.484375 812.75 607.816406 L 813.089844 457 C 813.089844 453.691406 811.378906 451.144531 808.636719 450.34375 L 587.109375 385.964844 C 585.007812 385.355469 582.804688 385.757812 581.054688 387.066406 C 579.308594 388.382812 578.304688 390.386719 578.304688 392.574219 L 578.304688 544.390625 C 578.304688 547.433594 580.347656 550.148438 583.269531 551 Z M 806.363281 617.949219 C 805.628906 617.949219 804.882812 617.84375 804.144531 617.628906 L 582.617188 553.246094 C 578.703125 552.109375 575.96875 548.46875 575.96875 544.390625 L 575.96875 392.574219 C 575.96875 389.644531 577.3125 386.960938 579.652344 385.203125 C 581.996094 383.441406 584.949219 382.902344 587.761719 383.71875 L 809.289062 448.101562 C 813.015625 449.183594 815.425781 452.679688 815.425781 457 L 815.085938 607.820312 C 815.085938 611.203125 813.539062 614.472656 811.039062 616.347656 C 809.628906 617.40625 808.019531 617.949219 806.363281 617.949219 " fill-opacity="1" fill-rule="nonzero"/><path fill="#000000" d="M 808.964844 449.222656 L 806.894531 448.621094 L 806.894531 616.769531 C 811.121094 616.679688 814.765625 613.285156 814.765625 608.773438 L 814.765625 456.953125 C 814.765625 453.371094 812.398438 450.222656 808.964844 449.222656 " fill-opacity="1" fill-rule="nonzero"/><path fill="#f57227" d="M 708.5625 625.753906 L 708.5625 504.210938 C 708.5625 498.140625 704.578125 492.796875 698.769531 491.0625 L 666.351562 481.382812 C 660.6875 479.691406 654.992188 483.933594 654.992188 489.847656 L 654.992188 640.671875 C 654.992188 644.179688 657.292969 647.265625 660.652344 648.269531 L 705.832031 661.761719 C 707.59375 662.285156 709.488281 662.183594 711.1875 661.464844 L 750.417969 644.851562 C 753.125 643.699219 752.941406 639.800781 750.136719 638.910156 L 708.5625 625.753906 " fill-opacity="1" fill-rule="nonzero"/><path fill="#5c58ce" d="M 717.195312 452.230469 L 659.859375 435.050781 C 659.082031 434.820312 658.546875 434.105469 658.546875 433.292969 L 658.546875 428.289062 C 658.546875 427.035156 659.757812 426.136719 660.953125 426.496094 L 716.679688 443.1875 C 717.886719 443.550781 718.714844 444.664062 718.714844 445.929688 L 718.714844 451.097656 C 718.714844 451.890625 717.949219 452.460938 717.195312 452.230469 " fill-opacity="1" fill-rule="nonzero"/><path fill="#5c58ce" d="M 709.746094 655.617188 C 709.101562 655.617188 708.578125 655.097656 708.578125 654.449219 L 708.578125 621.445312 C 708.578125 620.796875 709.101562 620.273438 709.746094 620.273438 C 710.394531 620.273438 710.917969 620.796875 710.917969 621.445312 L 710.917969 654.449219 C 710.917969 655.097656 710.394531 655.617188 709.746094 655.617188 " fill-opacity="1" fill-rule="nonzero"/><path fill="#00297a" d="M 595.75 616.25 C 595.75 636.023438 564.238281 683.542969 556.6875 694.644531 C 555.910156 695.785156 554.238281 695.78125 553.460938 694.640625 C 548.054688 686.691406 530.367188 660.074219 520.757812 638.339844 C 516.945312 629.71875 514.402344 621.863281 514.402344 616.25 C 514.402344 593.785156 532.613281 575.570312 555.074219 575.570312 C 577.539062 575.570312 595.75 593.785156 595.75 616.25 " fill-opacity="1" fill-rule="nonzero"/><path fill="#faceb4" d="M 573.671875 616.25 C 573.671875 626.523438 565.347656 634.847656 555.074219 634.847656 C 544.804688 634.847656 536.476562 626.523438 536.476562 616.25 C 536.476562 605.976562 544.804688 597.652344 555.074219 597.652344 C 565.347656 597.652344 573.671875 605.976562 573.671875 616.25 " fill-opacity="1" fill-rule="nonzero"/><path fill="#000000" d="M 558.699219 633.863281 C 554.464844 633.863281 550.199219 632.507812 546.601562 629.714844 C 542.429688 626.480469 539.773438 621.808594 539.109375 616.570312 C 539.03125 615.929688 539.484375 615.34375 540.125 615.265625 C 540.761719 615.1875 541.351562 615.636719 541.429688 616.277344 C 542.011719 620.898438 544.359375 625.011719 548.035156 627.867188 C 555.625 633.765625 566.597656 632.382812 572.492188 624.789062 C 575.34375 621.113281 576.597656 616.542969 576.015625 611.921875 C 575.433594 607.304688 573.089844 603.1875 569.410156 600.332031 C 566.488281 598.0625 563 596.800781 559.316406 596.679688 C 558.671875 596.65625 558.164062 596.117188 558.1875 595.46875 C 558.207031 594.824219 558.742188 594.324219 559.394531 594.34375 C 563.570312 594.480469 567.53125 595.914062 570.84375 598.488281 C 575.015625 601.722656 577.675781 606.390625 578.335938 611.628906 C 578.996094 616.871094 577.574219 622.050781 574.339844 626.222656 C 570.445312 631.234375 564.601562 633.863281 558.699219 633.863281 " fill-opacity="1" fill-rule="nonzero"/><path fill="#f57227" d="M 946.78125 175.839844 C 946.566406 175.839844 946.355469 175.78125 946.164062 175.660156 C 945.613281 175.3125 945.449219 174.59375 945.792969 174.046875 L 968.128906 138.5 C 968.476562 137.957031 969.199219 137.792969 969.75 138.132812 C 970.292969 138.476562 970.460938 139.199219 970.113281 139.746094 L 947.769531 175.289062 C 947.546875 175.644531 947.167969 175.839844 946.78125 175.839844 " fill-opacity="1" fill-rule="nonzero"/><path fill="#f57227" d="M 944.75 204.269531 C 944.421875 204.269531 944.085938 204.128906 943.847656 203.847656 C 943.441406 203.347656 943.511719 202.609375 944.011719 202.203125 L 1002.175781 154.25 C 1002.671875 153.839844 1003.410156 153.910156 1003.820312 154.410156 C 1004.234375 154.90625 1004.160156 155.644531 1003.664062 156.054688 L 945.496094 204.003906 C 945.277344 204.183594 945.015625 204.269531 944.75 204.269531 " fill-opacity="1" fill-rule="nonzero"/><path fill="#f57227" d="M 952.875 215.449219 C 952.386719 215.449219 951.933594 215.144531 951.765625 214.660156 C 951.554688 214.050781 951.878906 213.386719 952.488281 213.175781 L 981.9375 203.019531 C 982.546875 202.804688 983.21875 203.132812 983.429688 203.742188 C 983.636719 204.355469 983.316406 205.015625 982.703125 205.230469 L 953.257812 215.386719 C 953.125 215.429688 952.996094 215.449219 952.875 215.449219 " fill-opacity="1" fill-rule="nonzero"/><path fill="#000000" d="M 618.265625 210.839844 C 615.542969 210.839844 613.324219 213.058594 613.324219 215.78125 C 613.324219 218.507812 615.542969 220.722656 618.265625 220.722656 C 620.992188 220.722656 623.207031 218.507812 623.207031 215.78125 C 623.207031 213.058594 620.992188 210.839844 618.265625 210.839844 Z M 618.265625 223.0625 C 614.25 223.0625 610.988281 219.796875 610.988281 215.78125 C 610.988281 211.769531 614.25 208.503906 618.265625 208.503906 C 622.28125 208.503906 625.542969 211.769531 625.542969 215.78125 C 625.542969 219.796875 622.28125 223.0625 618.265625 223.0625 " fill-opacity="1" fill-rule="nonzero"/><path fill="#000000" d="M 647.96875 236.734375 C 646.289062 236.734375 644.925781 238.101562 644.925781 239.777344 C 644.925781 241.453125 646.289062 242.816406 647.96875 242.816406 C 649.644531 242.816406 651.007812 241.453125 651.007812 239.777344 C 651.007812 238.101562 649.644531 236.734375 647.96875 236.734375 Z M 647.96875 245.15625 C 645.003906 245.15625 642.589844 242.742188 642.589844 239.777344 C 642.589844 236.808594 645.003906 234.394531 647.96875 234.394531 C 650.933594 234.394531 653.347656 236.808594 653.347656 239.777344 C 653.347656 242.742188 650.933594 245.15625 647.96875 245.15625 " fill-opacity="1" fill-rule="nonzero"/><path fill="#000000" d="M 486.324219 546.808594 C 476.175781 546.808594 467.480469 539.058594 466.511719 528.75 C 465.484375 517.816406 473.546875 508.085938 484.480469 507.0625 C 495.417969 506.039062 505.140625 514.097656 506.167969 525.03125 C 506.453125 528.105469 506.046875 531.113281 504.957031 533.976562 C 504.726562 534.578125 504.050781 534.882812 503.445312 534.652344 C 502.84375 534.417969 502.542969 533.746094 502.773438 533.144531 C 503.734375 530.617188 504.09375 527.960938 503.839844 525.25 C 502.933594 515.597656 494.339844 508.484375 484.695312 509.390625 C 475.046875 510.296875 467.933594 518.882812 468.839844 528.53125 C 469.746094 538.183594 478.335938 545.296875 487.980469 544.390625 C 490.34375 544.171875 492.59375 543.492188 494.664062 542.378906 C 495.230469 542.074219 495.941406 542.285156 496.246094 542.855469 C 496.550781 543.421875 496.339844 544.132812 495.773438 544.4375 C 493.421875 545.699219 490.875 546.46875 488.199219 546.722656 C 487.570312 546.777344 486.945312 546.808594 486.324219 546.808594 " fill-opacity="1" fill-rule="nonzero"/><path fill="#f57227" d="M 531.945312 483.410156 C 531.945312 478.359375 536.039062 474.269531 541.085938 474.269531 C 546.132812 474.269531 550.226562 478.359375 550.226562 483.410156 C 550.226562 488.457031 546.132812 492.550781 541.085938 492.550781 C 536.039062 492.550781 531.945312 488.457031 531.945312 483.410156 " fill-opacity="1" fill-rule="nonzero"/><path fill="#f57227" d="M 847.261719 704.808594 C 847.261719 699.757812 851.355469 695.664062 856.402344 695.664062 C 861.449219 695.664062 865.542969 699.757812 865.542969 704.808594 C 865.542969 709.851562 861.449219 713.949219 856.402344 713.949219 C 851.355469 713.949219 847.261719 709.851562 847.261719 704.808594 " fill-opacity="1" fill-rule="nonzero"/><path fill="#000000" d="M 607.121094 170.027344 C 606.820312 170.027344 606.523438 169.910156 606.292969 169.683594 L 602.675781 166.0625 C 602.21875 165.605469 602.21875 164.871094 602.675781 164.410156 C 603.132812 163.953125 603.871094 163.953125 604.328125 164.410156 L 607.949219 168.03125 C 608.40625 168.488281 608.40625 169.226562 607.949219 169.683594 C 607.71875 169.910156 607.421875 170.027344 607.121094 170.027344 " fill-opacity="1" fill-rule="nonzero"/><path fill="#000000" d="M 619.789062 182.695312 C 619.488281 182.695312 619.191406 182.582031 618.960938 182.355469 L 615.339844 178.734375 C 614.882812 178.277344 614.882812 177.539062 615.339844 177.082031 C 615.796875 176.625 616.539062 176.625 616.996094 177.082031 L 620.613281 180.703125 C 621.070312 181.15625 621.070312 181.894531 620.613281 182.355469 C 620.386719 182.582031 620.085938 182.695312 619.789062 182.695312 " fill-opacity="1" fill-rule="nonzero"/><path fill="#000000" d="M 603.503906 182.695312 C 603.203125 182.695312 602.902344 182.582031 602.675781 182.355469 C 602.21875 181.894531 602.21875 181.15625 602.675781 180.703125 L 606.292969 177.082031 C 606.75 176.625 607.488281 176.625 607.945312 177.082031 C 608.402344 177.539062 608.402344 178.277344 607.945312 178.734375 L 604.328125 182.355469 C 604.097656 182.582031 603.800781 182.695312 603.503906 182.695312 " fill-opacity="1" fill-rule="nonzero"/><path fill="#000000" d="M 616.167969 170.027344 C 615.871094 170.027344 615.570312 169.910156 615.34375 169.683594 C 614.886719 169.226562 614.886719 168.484375 615.34375 168.03125 L 618.964844 164.410156 C 619.417969 163.953125 620.160156 163.953125 620.613281 164.410156 C 621.070312 164.871094 621.070312 165.605469 620.613281 166.0625 L 616.996094 169.683594 C 616.769531 169.910156 616.46875 170.027344 616.167969 170.027344 " fill-opacity="1" fill-rule="nonzero"/><path fill="#f57227" d="M 666.144531 294.808594 C 666.117188 294.808594 666.089844 294.808594 666.0625 294.808594 C 663.003906 294.597656 659.882812 294.476562 656.792969 294.441406 C 656.144531 294.433594 655.628906 293.902344 655.636719 293.257812 C 655.644531 292.613281 656.167969 292.074219 656.816406 292.101562 C 659.953125 292.140625 663.117188 292.261719 666.222656 292.476562 C 666.867188 292.515625 667.351562 293.074219 667.3125 293.71875 C 667.269531 294.335938 666.753906 294.808594 666.144531 294.808594 Z M 638.128906 295.246094 C 637.539062 295.246094 637.027344 294.792969 636.96875 294.191406 C 636.90625 293.550781 637.378906 292.976562 638.019531 292.914062 C 641.144531 292.613281 644.300781 292.390625 647.410156 292.253906 C 648.058594 292.222656 648.597656 292.722656 648.625 293.371094 C 648.65625 294.015625 648.15625 294.5625 647.511719 294.589844 C 644.445312 294.722656 641.328125 294.941406 638.246094 295.242188 C 638.207031 295.246094 638.167969 295.246094 638.128906 295.246094 Z M 684.683594 297.136719 C 684.609375 297.136719 684.539062 297.128906 684.46875 297.121094 C 681.445312 296.558594 678.359375 296.082031 675.300781 295.699219 C 674.660156 295.617188 674.207031 295.03125 674.289062 294.390625 C 674.367188 293.75 674.953125 293.300781 675.589844 293.378906 C 678.695312 293.769531 681.824219 294.25 684.894531 294.816406 C 685.527344 294.933594 685.945312 295.542969 685.832031 296.183594 C 685.726562 296.742188 685.234375 297.136719 684.683594 297.136719 Z M 619.640625 297.996094 C 619.09375 297.996094 618.609375 297.613281 618.496094 297.054688 C 618.371094 296.421875 618.78125 295.808594 619.414062 295.679688 C 622.496094 295.066406 625.617188 294.523438 628.679688 294.0625 C 629.320312 293.96875 629.914062 294.410156 630.007812 295.046875 C 630.105469 295.683594 629.664062 296.28125 629.027344 296.375 C 625.996094 296.828125 622.917969 297.367188 619.871094 297.972656 C 619.792969 297.988281 619.71875 297.996094 619.640625 297.996094 Z M 702.832031 301.582031 C 702.71875 301.582031 702.601562 301.566406 702.488281 301.53125 C 699.539062 300.628906 696.527344 299.796875 693.539062 299.066406 C 692.914062 298.910156 692.527344 298.277344 692.683594 297.652344 C 692.835938 297.023438 693.472656 296.640625 694.097656 296.792969 C 697.125 297.539062 700.179688 298.378906 703.171875 299.296875 C 703.789062 299.488281 704.140625 300.140625 703.949219 300.757812 C 703.792969 301.261719 703.332031 301.582031 702.832031 301.582031 Z M 716.261719 306.339844 C 716.113281 306.339844 715.96875 306.316406 715.824219 306.257812 C 714.320312 305.652344 712.792969 305.0625 711.285156 304.507812 C 710.679688 304.28125 710.367188 303.605469 710.59375 303 C 710.816406 302.398438 711.488281 302.085938 712.09375 302.308594 C 713.625 302.878906 715.171875 303.472656 716.695312 304.089844 C 717.296875 304.328125 717.585938 305.007812 717.34375 305.609375 C 717.160156 306.066406 716.722656 306.339844 716.261719 306.339844 " fill-opacity="1" fill-rule="nonzero"/><path fill="#f57227" d="M 553.824219 323.050781 C 553.417969 323.050781 553.027344 322.84375 552.808594 322.464844 C 552.488281 321.910156 552.679688 321.195312 553.238281 320.871094 L 554.117188 320.367188 C 554.679688 320.046875 555.394531 320.238281 555.714844 320.800781 C 556.035156 321.359375 555.839844 322.074219 555.28125 322.390625 L 554.40625 322.894531 C 554.222656 323 554.023438 323.050781 553.824219 323.050781 Z M 538.039062 333.070312 C 537.667969 333.070312 537.304688 332.894531 537.078125 332.570312 C 536.710938 332.039062 536.839844 331.308594 537.371094 330.941406 C 539.941406 329.15625 542.574219 327.410156 545.199219 325.738281 C 545.746094 325.394531 546.46875 325.554688 546.8125 326.101562 C 547.160156 326.648438 546.996094 327.371094 546.453125 327.714844 C 543.851562 329.367188 541.246094 331.09375 538.703125 332.863281 C 538.5 333.003906 538.269531 333.070312 538.039062 333.070312 Z M 523.132812 344.355469 C 522.792969 344.355469 522.457031 344.210938 522.226562 343.929688 C 521.816406 343.433594 521.886719 342.691406 522.386719 342.285156 C 524.796875 340.300781 527.277344 338.339844 529.761719 336.460938 C 530.277344 336.066406 531.011719 336.171875 531.402344 336.683594 C 531.789062 337.199219 531.6875 337.933594 531.171875 338.324219 C 528.714844 340.183594 526.257812 342.125 523.871094 344.089844 C 523.65625 344.269531 523.394531 344.355469 523.132812 344.355469 Z M 509.1875 356.816406 C 508.882812 356.816406 508.578125 356.695312 508.347656 356.460938 C 507.898438 355.996094 507.910156 355.253906 508.375 354.808594 C 510.617188 352.636719 512.929688 350.480469 515.253906 348.40625 C 515.734375 347.976562 516.476562 348.015625 516.90625 348.496094 C 517.335938 348.980469 517.292969 349.714844 516.8125 350.148438 C 514.511719 352.203125 512.21875 354.335938 510 356.484375 C 509.773438 356.707031 509.480469 356.816406 509.1875 356.816406 Z M 496.289062 370.355469 C 496.015625 370.355469 495.738281 370.257812 495.519531 370.0625 C 495.03125 369.636719 494.984375 368.894531 495.414062 368.414062 C 497.476562 366.066406 499.609375 363.734375 501.757812 361.480469 C 502.203125 361.011719 502.941406 360.996094 503.410156 361.4375 C 503.878906 361.886719 503.894531 362.625 503.449219 363.09375 C 501.324219 365.324219 499.210938 367.632812 497.167969 369.957031 C 496.9375 370.222656 496.613281 370.355469 496.289062 370.355469 Z M 484.503906 384.871094 C 484.257812 384.871094 484.011719 384.796875 483.800781 384.636719 C 483.285156 384.25 483.179688 383.519531 483.566406 383 C 485.4375 380.503906 487.382812 378.007812 489.347656 375.589844 C 489.753906 375.089844 490.488281 375.015625 490.992188 375.417969 C 491.492188 375.828125 491.566406 376.5625 491.160156 377.066406 C 489.21875 379.460938 487.292969 381.925781 485.4375 384.40625 C 485.210938 384.710938 484.859375 384.871094 484.503906 384.871094 " fill-opacity="1" fill-rule="nonzero"/><path fill="#f57227" d="M 866.523438 455.835938 C 866.507812 455.835938 866.492188 455.835938 866.472656 455.832031 C 865.832031 455.804688 865.332031 455.257812 865.359375 454.613281 C 865.617188 448.6875 865.894531 445.265625 865.894531 445.230469 C 865.945312 444.585938 866.519531 444.109375 867.15625 444.160156 C 867.800781 444.210938 868.28125 444.777344 868.226562 445.421875 C 868.222656 445.453125 867.953125 448.839844 867.695312 454.714844 C 867.667969 455.347656 867.148438 455.835938 866.523438 455.835938 Z M 866.066406 474.539062 C 866.058594 474.539062 866.054688 474.539062 866.050781 474.539062 C 865.410156 474.53125 864.890625 474.003906 864.894531 473.363281 C 864.914062 470.199219 864.964844 467.046875 865.039062 463.988281 C 865.054688 463.351562 865.574219 462.847656 866.210938 462.847656 C 866.21875 462.847656 866.222656 462.847656 866.238281 462.847656 C 866.878906 462.863281 867.394531 463.398438 867.378906 464.042969 C 867.304688 467.089844 867.253906 470.226562 867.230469 473.375 C 867.226562 474.019531 866.707031 474.539062 866.066406 474.539062 Z M 439.898438 475.835938 C 439.800781 475.835938 439.699219 475.824219 439.597656 475.796875 C 438.972656 475.628906 438.601562 474.988281 438.769531 474.363281 C 438.933594 473.753906 439.097656 473.140625 439.265625 472.53125 C 439.4375 471.910156 440.082031 471.542969 440.703125 471.714844 C 441.324219 471.886719 441.691406 472.527344 441.519531 473.152344 C 441.355469 473.757812 441.191406 474.363281 441.027344 474.96875 C 440.886719 475.492188 440.417969 475.835938 439.898438 475.835938 Z M 866.242188 493.265625 C 865.609375 493.265625 865.085938 492.761719 865.074219 492.128906 C 864.992188 489.011719 864.933594 485.851562 864.90625 482.742188 C 864.898438 482.097656 865.417969 481.566406 866.066406 481.5625 C 866.070312 481.5625 866.070312 481.5625 866.074219 481.5625 C 866.714844 481.5625 867.238281 482.074219 867.242188 482.714844 C 867.269531 485.816406 867.332031 488.964844 867.40625 492.066406 C 867.425781 492.710938 866.917969 493.25 866.269531 493.261719 C 866.261719 493.265625 866.25 493.265625 866.242188 493.265625 Z M 435.828125 494.078125 C 435.757812 494.078125 435.691406 494.070312 435.621094 494.058594 C 434.984375 493.941406 434.5625 493.335938 434.675781 492.703125 C 435.226562 489.652344 435.847656 486.550781 436.535156 483.492188 C 436.675781 482.859375 437.300781 482.464844 437.929688 482.601562 C 438.558594 482.746094 438.957031 483.367188 438.8125 484 C 438.136719 487.03125 437.519531 490.09375 436.976562 493.117188 C 436.875 493.679688 436.382812 494.078125 435.828125 494.078125 Z M 867.035156 511.980469 C 866.417969 511.980469 865.90625 511.5 865.867188 510.878906 C 865.6875 507.796875 865.523438 504.640625 865.390625 501.503906 C 865.367188 500.859375 865.863281 500.316406 866.511719 500.289062 C 867.164062 500.257812 867.703125 500.761719 867.726562 501.40625 C 867.863281 504.527344 868.015625 507.667969 868.203125 510.742188 C 868.238281 511.386719 867.75 511.9375 867.101562 511.980469 C 867.085938 511.980469 867.058594 511.980469 867.035156 511.980469 Z M 433.328125 512.601562 C 433.289062 512.601562 433.253906 512.597656 433.21875 512.59375 C 432.578125 512.539062 432.101562 511.96875 432.160156 511.328125 C 432.441406 508.230469 432.792969 505.089844 433.214844 501.984375 C 433.300781 501.347656 433.882812 500.894531 434.527344 500.984375 C 435.167969 501.070312 435.617188 501.660156 435.53125 502.296875 C 435.117188 505.367188 434.765625 508.476562 434.488281 511.539062 C 434.433594 512.144531 433.925781 512.601562 433.328125 512.601562 Z M 868.46875 530.652344 C 867.875 530.652344 867.367188 530.199219 867.308594 529.59375 C 867.015625 526.5 866.742188 523.351562 866.507812 520.242188 C 866.460938 519.601562 866.941406 519.035156 867.582031 518.988281 C 868.214844 518.941406 868.785156 519.421875 868.835938 520.066406 C 869.074219 523.164062 869.34375 526.292969 869.636719 529.371094 C 869.699219 530.011719 869.222656 530.582031 868.582031 530.648438 C 868.546875 530.652344 868.511719 530.652344 868.46875 530.652344 Z M 432.503906 531.273438 C 431.859375 531.273438 431.335938 530.753906 431.332031 530.109375 L 431.332031 529.621094 C 431.332031 526.675781 431.398438 523.675781 431.53125 520.707031 C 431.558594 520.0625 432.105469 519.558594 432.75 519.589844 C 433.394531 519.621094 433.894531 520.164062 433.863281 520.8125 C 433.734375 523.742188 433.667969 526.707031 433.667969 529.621094 L 433.671875 530.101562 C 433.671875 530.746094 433.152344 531.273438 432.503906 531.273438 Z M 870.601562 549.253906 C 870.023438 549.253906 869.523438 548.828125 869.449219 548.242188 C 869.03125 545.1875 868.640625 542.054688 868.285156 538.925781 C 868.214844 538.285156 868.671875 537.707031 869.316406 537.632812 C 869.957031 537.558594 870.535156 538.019531 870.609375 538.660156 C 870.960938 541.777344 871.355469 544.890625 871.757812 547.929688 C 871.851562 548.570312 871.398438 549.15625 870.761719 549.242188 C 870.707031 549.25 870.652344 549.253906 870.601562 549.253906 Z M 433.433594 549.941406 C 432.839844 549.941406 432.332031 549.488281 432.273438 548.886719 C 431.96875 545.785156 431.734375 542.632812 431.578125 539.511719 C 431.546875 538.863281 432.042969 538.316406 432.6875 538.285156 C 433.332031 538.238281 433.882812 538.75 433.914062 539.394531 C 434.070312 542.476562 434.296875 545.59375 434.601562 548.65625 C 434.664062 549.296875 434.195312 549.875 433.550781 549.9375 C 433.511719 549.941406 433.472656 549.941406 433.433594 549.941406 Z M 873.503906 567.75 C 872.949219 567.75 872.457031 567.351562 872.351562 566.789062 C 871.804688 563.765625 871.285156 560.652344 870.792969 557.53125 C 870.699219 556.890625 871.136719 556.292969 871.773438 556.195312 C 872.414062 556.097656 873.007812 556.527344 873.105469 557.167969 C 873.59375 560.273438 874.113281 563.367188 874.652344 566.375 C 874.769531 567.007812 874.34375 567.613281 873.707031 567.730469 C 873.640625 567.742188 873.570312 567.75 873.503906 567.75 Z M 436.171875 568.425781 C 435.625 568.425781 435.136719 568.039062 435.027344 567.480469 C 434.417969 564.425781 433.878906 561.3125 433.421875 558.21875 C 433.328125 557.578125 433.769531 556.984375 434.40625 556.890625 C 435.046875 556.792969 435.640625 557.238281 435.734375 557.875 C 436.1875 560.929688 436.71875 564.011719 437.316406 567.027344 C 437.445312 567.660156 437.03125 568.277344 436.398438 568.402344 C 436.324219 568.417969 436.246094 568.425781 436.171875 568.425781 Z M 877.261719 586.070312 C 876.734375 586.070312 876.253906 585.707031 876.125 585.167969 C 875.433594 582.175781 874.757812 579.09375 874.128906 576.007812 C 873.996094 575.375 874.402344 574.757812 875.035156 574.628906 C 875.667969 574.496094 876.285156 574.90625 876.414062 575.535156 C 877.042969 578.601562 877.714844 581.664062 878.40625 584.636719 C 878.550781 585.265625 878.160156 585.894531 877.53125 586.039062 C 877.441406 586.0625 877.355469 586.070312 877.261719 586.070312 Z M 440.707031 586.554688 C 440.207031 586.554688 439.742188 586.226562 439.589844 585.71875 C 438.683594 582.734375 437.839844 579.683594 437.082031 576.65625 C 436.925781 576.035156 437.308594 575.394531 437.933594 575.242188 C 438.5625 575.082031 439.195312 575.464844 439.351562 576.089844 C 440.097656 579.078125 440.933594 582.089844 441.828125 585.042969 C 442.015625 585.660156 441.667969 586.3125 441.046875 586.503906 C 440.933594 586.535156 440.820312 586.554688 440.707031 586.554688 Z M 970.472656 592.050781 C 969.871094 592.050781 969.363281 591.589844 969.304688 590.984375 C 969.246094 590.34375 969.71875 589.773438 970.363281 589.71875 C 973.589844 589.417969 976.769531 589.261719 979.796875 589.253906 C 979.800781 589.253906 979.800781 589.253906 979.808594 589.253906 C 980.449219 589.253906 980.972656 589.769531 980.972656 590.414062 C 980.976562 591.058594 980.453125 591.589844 979.8125 591.589844 C 976.84375 591.597656 973.738281 591.753906 970.582031 592.042969 C 970.539062 592.046875 970.503906 592.050781 970.472656 592.050781 Z M 998.335938 593.613281 C 998.25 593.613281 998.152344 593.601562 998.0625 593.578125 C 995.199219 592.882812 992.148438 592.367188 989.011719 592.035156 C 988.371094 591.96875 987.90625 591.394531 987.96875 590.753906 C 988.039062 590.109375 988.625 589.644531 989.257812 589.710938 C 992.5 590.050781 995.644531 590.585938 998.613281 591.304688 C 999.242188 591.460938 999.628906 592.09375 999.472656 592.71875 C 999.347656 593.253906 998.867188 593.613281 998.335938 593.613281 Z M 952.277344 595.988281 C 951.804688 595.988281 951.351562 595.695312 951.179688 595.21875 C 950.957031 594.613281 951.265625 593.945312 951.875 593.722656 C 955.101562 592.539062 958.167969 591.628906 960.972656 591.023438 C 961.605469 590.886719 962.222656 591.289062 962.359375 591.917969 C 962.5 592.550781 962.09375 593.171875 961.46875 593.308594 C 958.761719 593.890625 955.804688 594.769531 952.675781 595.917969 C 952.542969 595.964844 952.414062 595.988281 952.277344 595.988281 Z M 1015.445312 600.878906 C 1015.222656 600.878906 1015.003906 600.816406 1014.804688 600.6875 C 1012.308594 599.050781 1009.601562 597.613281 1006.757812 596.417969 C 1006.160156 596.167969 1005.882812 595.480469 1006.132812 594.886719 C 1006.382812 594.289062 1007.066406 594.011719 1007.660156 594.261719 C 1010.640625 595.515625 1013.472656 597.019531 1016.089844 598.734375 C 1016.628906 599.089844 1016.78125 599.8125 1016.425781 600.351562 C 1016.203125 600.695312 1015.828125 600.878906 1015.445312 600.878906 Z M 935.273438 603.765625 C 934.859375 603.765625 934.449219 603.539062 934.246094 603.140625 C 933.941406 602.570312 934.160156 601.867188 934.730469 601.5625 C 937.699219 599.996094 940.539062 598.582031 943.164062 597.367188 C 943.746094 597.089844 944.441406 597.351562 944.710938 597.933594 C 944.984375 598.519531 944.730469 599.214844 944.144531 599.488281 C 941.558594 600.6875 938.753906 602.082031 935.820312 603.632812 C 935.648438 603.722656 935.460938 603.765625 935.273438 603.765625 Z M 447.003906 604.148438 C 446.546875 604.148438 446.113281 603.875 445.925781 603.425781 C 444.730469 600.535156 443.589844 597.582031 442.539062 594.648438 C 442.324219 594.042969 442.640625 593.375 443.246094 593.15625 C 443.851562 592.9375 444.523438 593.253906 444.742188 593.863281 C 445.777344 596.761719 446.902344 599.675781 448.085938 602.53125 C 448.332031 603.128906 448.046875 603.8125 447.453125 604.058594 C 447.304688 604.117188 447.15625 604.148438 447.003906 604.148438 Z M 882.023438 604.175781 C 881.523438 604.175781 881.054688 603.84375 880.902344 603.335938 C 880.03125 600.378906 879.183594 597.332031 878.378906 594.28125 C 878.214844 593.65625 878.59375 593.019531 879.214844 592.851562 C 879.839844 592.6875 880.476562 593.0625 880.640625 593.6875 C 881.4375 596.714844 882.277344 599.738281 883.144531 602.671875 C 883.332031 603.292969 882.976562 603.941406 882.355469 604.125 C 882.246094 604.15625 882.132812 604.175781 882.023438 604.175781 Z M 919.023438 613.039062 C 918.628906 613.039062 918.242188 612.839844 918.023438 612.476562 C 917.683594 611.925781 917.867188 611.203125 918.417969 610.875 C 921.3125 609.125 923.957031 607.566406 926.507812 606.105469 C 927.066406 605.785156 927.777344 605.980469 928.101562 606.539062 C 928.417969 607.101562 928.226562 607.816406 927.667969 608.136719 C 925.136719 609.585938 922.5 611.136719 919.628906 612.875 C 919.4375 612.988281 919.226562 613.039062 919.023438 613.039062 Z M 1028.730469 613.851562 C 1028.359375 613.851562 1027.996094 613.675781 1027.773438 613.351562 C 1026.011719 610.828125 1024.035156 608.488281 1021.894531 606.394531 C 1021.433594 605.945312 1021.425781 605.199219 1021.878906 604.742188 C 1022.328125 604.277344 1023.070312 604.273438 1023.53125 604.722656 C 1025.769531 606.917969 1027.847656 609.371094 1029.6875 612.011719 C 1030.058594 612.539062 1029.929688 613.269531 1029.398438 613.640625 C 1029.199219 613.78125 1028.960938 613.851562 1028.730469 613.851562 Z M 454.988281 621.046875 C 454.570312 621.046875 454.167969 620.820312 453.957031 620.425781 C 452.484375 617.664062 451.0625 614.835938 449.734375 612.023438 C 449.460938 611.4375 449.707031 610.742188 450.292969 610.464844 C 450.875 610.191406 451.574219 610.441406 451.847656 611.027344 C 453.160156 613.800781 454.5625 616.597656 456.019531 619.328125 C 456.320312 619.898438 456.105469 620.601562 455.539062 620.910156 C 455.363281 621 455.175781 621.046875 454.988281 621.046875 Z M 887.945312 621.941406 C 887.472656 621.941406 887.027344 621.652344 886.851562 621.179688 C 885.78125 618.3125 884.722656 615.332031 883.722656 612.316406 C 883.519531 611.707031 883.851562 611.042969 884.464844 610.839844 C 885.078125 610.632812 885.738281 610.96875 885.9375 611.582031 C 886.929688 614.566406 887.980469 617.519531 889.039062 620.363281 C 889.265625 620.96875 888.960938 621.640625 888.351562 621.867188 C 888.21875 621.917969 888.082031 621.941406 887.945312 621.941406 Z M 903.136719 622.9375 C 902.746094 622.9375 902.371094 622.746094 902.148438 622.398438 C 901.800781 621.851562 901.960938 621.128906 902.503906 620.785156 C 905.199219 619.066406 907.84375 617.394531 910.429688 615.78125 C 910.976562 615.441406 911.695312 615.605469 912.039062 616.15625 C 912.382812 616.703125 912.214844 617.425781 911.667969 617.765625 C 909.082031 619.375 906.453125 621.042969 903.761719 622.75 C 903.566406 622.878906 903.351562 622.9375 903.136719 622.9375 Z M 1036.796875 630.640625 C 1036.292969 630.640625 1035.839844 630.320312 1035.679688 629.820312 C 1034.742188 626.820312 1033.628906 623.945312 1032.351562 621.269531 C 1032.078125 620.6875 1032.324219 619.988281 1032.90625 619.710938 C 1033.492188 619.4375 1034.1875 619.683594 1034.46875 620.265625 C 1035.785156 623.039062 1036.945312 626.023438 1037.910156 629.125 C 1038.101562 629.742188 1037.761719 630.394531 1037.144531 630.589844 C 1037.027344 630.625 1036.914062 630.640625 1036.796875 630.640625 Z M 464.53125 637.074219 C 464.152344 637.074219 463.78125 636.890625 463.554688 636.546875 C 461.835938 633.949219 460.15625 631.273438 458.5625 628.597656 C 458.234375 628.042969 458.414062 627.324219 458.96875 627 C 459.523438 626.667969 460.242188 626.847656 460.570312 627.40625 C 462.144531 630.042969 463.804688 632.6875 465.503906 635.257812 C 465.863281 635.796875 465.710938 636.523438 465.175781 636.878906 C 464.976562 637.007812 464.753906 637.074219 464.53125 637.074219 Z M 895.210938 639.179688 C 894.773438 639.179688 894.355469 638.933594 894.152344 638.511719 C 893.011719 636.097656 891.890625 633.601562 890.804688 631.074219 C 889.882812 631.671875 888.957031 632.265625 888.023438 632.875 C 887.480469 633.222656 886.757812 633.066406 886.402344 632.523438 C 886.058594 631.980469 886.214844 631.257812 886.753906 630.90625 C 889.421875 629.1875 892.042969 627.492188 894.621094 625.832031 C 895.164062 625.484375 895.886719 625.636719 896.234375 626.183594 C 896.585938 626.726562 896.429688 627.449219 895.886719 627.796875 C 894.867188 628.457031 893.835938 629.121094 892.800781 629.789062 C 893.917969 632.414062 895.078125 635.007812 896.265625 637.511719 C 896.542969 638.089844 896.289062 638.789062 895.710938 639.066406 C 895.550781 639.140625 895.378906 639.179688 895.210938 639.179688 Z M 871.652344 643.1875 C 871.261719 643.1875 870.886719 642.996094 870.667969 642.648438 C 870.316406 642.105469 870.480469 641.382812 871.023438 641.035156 C 873.679688 639.332031 876.308594 637.644531 878.890625 635.980469 C 879.433594 635.632812 880.160156 635.789062 880.507812 636.328125 C 880.859375 636.871094 880.699219 637.59375 880.160156 637.945312 C 877.570312 639.613281 874.945312 641.296875 872.277344 643.003906 C 872.085938 643.125 871.867188 643.1875 871.652344 643.1875 Z M 1040.300781 648.976562 C 1039.703125 648.976562 1039.1875 648.519531 1039.140625 647.910156 C 1038.863281 644.765625 1038.441406 641.691406 1037.894531 638.761719 C 1037.773438 638.128906 1038.1875 637.511719 1038.820312 637.398438 C 1039.457031 637.277344 1040.070312 637.695312 1040.191406 638.328125 C 1040.75 641.332031 1041.183594 644.488281 1041.46875 647.703125 C 1041.523438 648.347656 1041.046875 648.914062 1040.410156 648.96875 C 1040.371094 648.972656 1040.335938 648.976562 1040.300781 648.976562 Z M 475.539062 652.148438 C 475.195312 652.148438 474.855469 652 474.625 651.710938 C 472.671875 649.277344 470.75 646.765625 468.914062 644.257812 C 468.53125 643.738281 468.648438 643.003906 469.167969 642.621094 C 469.6875 642.242188 470.421875 642.355469 470.800781 642.875 C 472.617188 645.359375 474.515625 647.839844 476.449219 650.246094 C 476.851562 650.75 476.773438 651.484375 476.269531 651.890625 C 476.054688 652.0625 475.792969 652.148438 475.539062 652.148438 Z M 855.828125 653.179688 C 855.4375 653.179688 855.058594 652.988281 854.835938 652.632812 C 854.492188 652.082031 854.664062 651.359375 855.210938 651.019531 C 857.882812 649.355469 860.527344 647.699219 863.128906 646.050781 C 863.675781 645.707031 864.398438 645.867188 864.746094 646.414062 C 865.085938 646.960938 864.925781 647.683594 864.378906 648.027344 C 861.765625 649.675781 859.125 651.335938 856.445312 653.003906 C 856.253906 653.125 856.042969 653.179688 855.828125 653.179688 Z M 904.054688 655.648438 C 903.660156 655.648438 903.273438 655.453125 903.054688 655.089844 C 901.457031 652.460938 899.886719 649.714844 898.390625 646.914062 C 898.085938 646.34375 898.296875 645.636719 898.863281 645.332031 C 899.4375 645.027344 900.140625 645.242188 900.453125 645.808594 C 901.929688 648.570312 903.476562 651.285156 905.054688 653.875 C 905.386719 654.425781 905.210938 655.144531 904.660156 655.480469 C 904.46875 655.597656 904.261719 655.648438 904.054688 655.648438 Z M 839.855469 662.925781 C 839.457031 662.925781 839.070312 662.722656 838.847656 662.355469 C 838.515625 661.804688 838.703125 661.085938 839.253906 660.753906 C 841.953125 659.140625 844.621094 657.53125 847.257812 655.925781 C 847.804688 655.585938 848.527344 655.761719 848.863281 656.3125 C 849.195312 656.863281 849.027344 657.582031 848.472656 657.917969 C 845.832031 659.53125 843.160156 661.148438 840.449219 662.761719 C 840.265625 662.875 840.058594 662.925781 839.855469 662.925781 Z M 487.882812 666.164062 C 487.578125 666.164062 487.269531 666.042969 487.042969 665.804688 C 484.875 663.558594 482.734375 661.234375 480.675781 658.894531 C 480.246094 658.414062 480.292969 657.671875 480.777344 657.246094 C 481.261719 656.820312 482 656.867188 482.425781 657.351562 C 484.464844 659.660156 486.582031 661.960938 488.722656 664.179688 C 489.171875 664.648438 489.160156 665.386719 488.695312 665.835938 C 488.46875 666.054688 488.175781 666.164062 487.882812 666.164062 Z M 1039.988281 667.625 C 1039.929688 667.625 1039.867188 667.617188 1039.804688 667.609375 C 1039.171875 667.507812 1038.734375 666.910156 1038.835938 666.269531 C 1039.300781 663.371094 1039.539062 660.296875 1039.554688 657.140625 C 1039.558594 656.496094 1040.082031 655.980469 1040.722656 655.980469 L 1040.726562 655.980469 C 1041.375 655.980469 1041.898438 656.507812 1041.894531 657.152344 C 1041.878906 660.429688 1041.625 663.621094 1041.140625 666.636719 C 1041.050781 667.214844 1040.554688 667.625 1039.988281 667.625 Z M 914.714844 670.996094 C 914.371094 670.996094 914.03125 670.84375 913.800781 670.554688 C 911.882812 668.148438 909.996094 665.605469 908.179688 662.992188 C 907.8125 662.457031 907.945312 661.734375 908.476562 661.363281 C 909.007812 660.996094 909.734375 661.128906 910.101562 661.660156 C 911.886719 664.230469 913.742188 666.734375 915.628906 669.097656 C 916.035156 669.605469 915.945312 670.339844 915.441406 670.742188 C 915.226562 670.914062 914.972656 670.996094 914.714844 670.996094 Z M 823.679688 672.335938 C 823.273438 672.335938 822.875 672.121094 822.660156 671.738281 C 822.34375 671.179688 822.542969 670.464844 823.105469 670.148438 C 825.742188 668.65625 828.472656 667.09375 831.203125 665.5 C 831.761719 665.175781 832.480469 665.363281 832.808594 665.921875 C 833.128906 666.480469 832.9375 667.195312 832.382812 667.519531 C 829.640625 669.117188 826.902344 670.6875 824.253906 672.183594 C 824.070312 672.285156 823.875 672.335938 823.679688 672.335938 Z M 501.433594 679.019531 C 501.164062 679.019531 500.890625 678.925781 500.667969 678.734375 C 498.3125 676.6875 495.972656 674.5625 493.710938 672.417969 C 493.242188 671.976562 493.222656 671.234375 493.667969 670.769531 C 494.113281 670.296875 494.851562 670.277344 495.320312 670.726562 C 497.554688 672.84375 499.871094 674.945312 502.203125 676.96875 C 502.6875 677.394531 502.742188 678.132812 502.320312 678.621094 C 502.085938 678.886719 501.761719 679.019531 501.433594 679.019531 Z M 807.269531 681.320312 C 806.851562 681.320312 806.445312 681.09375 806.238281 680.699219 C 805.9375 680.128906 806.15625 679.421875 806.722656 679.117188 C 809.4375 677.683594 812.203125 676.195312 814.945312 674.695312 C 815.515625 674.382812 816.222656 674.585938 816.53125 675.15625 C 816.84375 675.722656 816.636719 676.429688 816.070312 676.742188 C 813.316406 678.25 810.539062 679.742188 807.816406 681.183594 C 807.644531 681.277344 807.457031 681.320312 807.269531 681.320312 Z M 927.386719 684.714844 C 927.105469 684.714844 926.816406 684.609375 926.59375 684.402344 C 924.328125 682.300781 922.082031 680.050781 919.929688 677.714844 C 919.492188 677.242188 919.519531 676.5 919.992188 676.066406 C 920.472656 675.625 921.207031 675.65625 921.644531 676.128906 C 923.761719 678.421875 925.957031 680.628906 928.175781 682.683594 C 928.65625 683.125 928.683594 683.863281 928.242188 684.335938 C 928.011719 684.585938 927.699219 684.714844 927.386719 684.714844 Z M 1033.660156 685.082031 C 1033.449219 685.082031 1033.234375 685.027344 1033.050781 684.910156 C 1032.5 684.570312 1032.324219 683.851562 1032.664062 683.300781 C 1034.234375 680.742188 1035.558594 677.988281 1036.589844 675.105469 C 1036.808594 674.496094 1037.476562 674.179688 1038.082031 674.402344 C 1038.695312 674.613281 1039.007812 675.285156 1038.789062 675.894531 C 1037.707031 678.929688 1036.308594 681.832031 1034.65625 684.523438 C 1034.4375 684.882812 1034.050781 685.082031 1033.660156 685.082031 Z M 790.601562 689.808594 C 790.167969 689.808594 789.753906 689.566406 789.546875 689.152344 C 789.265625 688.570312 789.503906 687.871094 790.085938 687.585938 C 792.835938 686.246094 795.644531 684.84375 798.4375 683.421875 C 799.011719 683.128906 799.71875 683.359375 800.015625 683.933594 C 800.304688 684.507812 800.074219 685.210938 799.5 685.503906 C 796.691406 686.933594 793.867188 688.339844 791.109375 689.6875 C 790.945312 689.765625 790.769531 689.808594 790.601562 689.808594 Z M 516.066406 690.640625 C 515.828125 690.640625 515.585938 690.566406 515.378906 690.414062 C 512.855469 688.589844 510.335938 686.675781 507.898438 684.738281 C 507.390625 684.335938 507.308594 683.601562 507.707031 683.09375 C 508.109375 682.589844 508.847656 682.503906 509.351562 682.90625 C 511.765625 684.824219 514.253906 686.714844 516.753906 688.523438 C 517.277344 688.90625 517.390625 689.632812 517.011719 690.160156 C 516.785156 690.472656 516.429688 690.640625 516.066406 690.640625 Z M 942.089844 696.175781 C 941.871094 696.175781 941.652344 696.113281 941.457031 695.988281 C 938.84375 694.296875 936.257812 692.457031 933.769531 690.515625 C 933.261719 690.117188 933.171875 689.378906 933.566406 688.871094 C 933.964844 688.363281 934.703125 688.273438 935.210938 688.667969 C 937.640625 690.570312 940.171875 692.371094 942.726562 694.019531 C 943.269531 694.375 943.421875 695.097656 943.074219 695.636719 C 942.847656 695.984375 942.472656 696.175781 942.089844 696.175781 Z M 773.644531 697.714844 C 773.199219 697.714844 772.769531 697.457031 772.578125 697.019531 C 772.320312 696.429688 772.582031 695.738281 773.175781 695.476562 C 775.976562 694.234375 778.832031 692.933594 781.660156 691.609375 C 782.253906 691.335938 782.941406 691.589844 783.21875 692.175781 C 783.488281 692.761719 783.234375 693.457031 782.652344 693.730469 C 779.808594 695.058594 776.933594 696.363281 774.121094 697.613281 C 773.964844 697.683594 773.804688 697.714844 773.644531 697.714844 Z M 1020.929688 698.613281 C 1020.574219 698.613281 1020.21875 698.449219 1019.984375 698.128906 C 1019.605469 697.609375 1019.722656 696.875 1020.25 696.5 C 1022.769531 694.671875 1025.082031 692.65625 1027.121094 690.503906 C 1027.5625 690.039062 1028.304688 690.019531 1028.773438 690.460938 C 1029.242188 690.90625 1029.261719 691.644531 1028.820312 692.113281 C 1026.679688 694.371094 1024.257812 696.484375 1021.617188 698.394531 C 1021.410156 698.542969 1021.167969 698.613281 1020.929688 698.613281 Z M 531.652344 700.945312 C 531.445312 700.945312 531.238281 700.890625 531.050781 700.78125 C 528.378906 699.175781 525.707031 697.488281 523.105469 695.769531 C 522.5625 695.414062 522.417969 694.6875 522.773438 694.148438 C 523.128906 693.609375 523.851562 693.460938 524.390625 693.816406 C 526.96875 695.523438 529.613281 697.191406 532.253906 698.773438 C 532.808594 699.105469 532.984375 699.824219 532.65625 700.378906 C 532.433594 700.746094 532.046875 700.945312 531.652344 700.945312 Z M 958.605469 704.832031 C 958.453125 704.832031 958.304688 704.804688 958.15625 704.742188 C 955.25 703.546875 952.371094 702.199219 949.601562 700.746094 C 949.027344 700.445312 948.808594 699.742188 949.105469 699.167969 C 949.410156 698.59375 950.113281 698.375 950.683594 698.675781 C 953.398438 700.097656 956.210938 701.410156 959.050781 702.582031 C 959.648438 702.828125 959.929688 703.511719 959.683594 704.105469 C 959.496094 704.558594 959.058594 704.832031 958.605469 704.832031 Z M 756.40625 704.964844 C 755.941406 704.964844 755.5 704.6875 755.320312 704.230469 C 755.078125 703.628906 755.375 702.949219 755.976562 702.710938 C 758.832031 701.578125 761.734375 700.394531 764.609375 699.179688 C 765.207031 698.933594 765.890625 699.210938 766.140625 699.808594 C 766.390625 700.398438 766.109375 701.085938 765.519531 701.335938 C 762.628906 702.550781 759.707031 703.746094 756.832031 704.886719 C 756.695312 704.941406 756.550781 704.964844 756.40625 704.964844 Z M 1004.3125 707.035156 C 1003.820312 707.035156 1003.359375 706.722656 1003.199219 706.230469 C 1003 705.617188 1003.332031 704.957031 1003.945312 704.753906 C 1006.570312 703.894531 1009.15625 702.84375 1011.632812 701.632812 C 1011.890625 701.507812 1012.148438 701.375 1012.414062 701.246094 C 1012.992188 700.953125 1013.691406 701.1875 1013.984375 701.757812 C 1014.277344 702.335938 1014.042969 703.039062 1013.46875 703.332031 C 1013.199219 703.46875 1012.929688 703.601562 1012.65625 703.734375 C 1010.085938 704.988281 1007.398438 706.082031 1004.675781 706.976562 C 1004.558594 707.019531 1004.433594 707.035156 1004.3125 707.035156 Z M 976.613281 709.664062 C 976.5625 709.664062 976.515625 709.660156 976.464844 709.652344 C 973.339844 709.269531 970.199219 708.65625 967.132812 707.832031 C 966.511719 707.660156 966.140625 707.019531 966.3125 706.398438 C 966.480469 705.773438 967.121094 705.402344 967.738281 705.574219 C 970.699219 706.367188 973.730469 706.960938 976.753906 707.335938 C 977.394531 707.410156 977.84375 707.996094 977.769531 708.636719 C 977.695312 709.230469 977.191406 709.664062 976.613281 709.664062 Z M 548.070312 709.859375 C 547.898438 709.859375 547.722656 709.820312 547.558594 709.742188 C 544.761719 708.375 541.953125 706.933594 539.207031 705.441406 C 538.640625 705.132812 538.429688 704.421875 538.738281 703.855469 C 539.042969 703.289062 539.753906 703.078125 540.320312 703.382812 C 543.039062 704.859375 545.816406 706.289062 548.582031 707.640625 C 549.164062 707.921875 549.402344 708.625 549.121094 709.203125 C 548.917969 709.621094 548.503906 709.859375 548.070312 709.859375 Z M 985.941406 710.140625 C 985.308594 710.140625 984.785156 709.636719 984.769531 708.996094 C 984.757812 708.351562 985.269531 707.816406 985.917969 707.804688 C 988.980469 707.742188 992.050781 707.453125 995.046875 706.949219 C 995.675781 706.839844 996.285156 707.269531 996.394531 707.910156 C 996.5 708.546875 996.078125 709.148438 995.433594 709.253906 C 992.332031 709.78125 989.140625 710.078125 985.96875 710.140625 C 985.953125 710.140625 985.949219 710.140625 985.941406 710.140625 Z M 738.875 711.484375 C 738.394531 711.484375 737.9375 711.179688 737.769531 710.695312 C 737.5625 710.085938 737.882812 709.417969 738.492188 709.210938 C 741.390625 708.203125 744.34375 707.144531 747.269531 706.058594 C 747.871094 705.832031 748.546875 706.140625 748.773438 706.746094 C 748.996094 707.351562 748.6875 708.023438 748.082031 708.246094 C 745.144531 709.34375 742.171875 710.410156 739.257812 711.417969 C 739.132812 711.464844 739.003906 711.484375 738.875 711.484375 Z M 721.066406 717.1875 C 720.558594 717.1875 720.09375 716.859375 719.949219 716.347656 C 719.765625 715.726562 720.121094 715.078125 720.738281 714.894531 C 723.6875 714.03125 726.6875 713.109375 729.652344 712.15625 C 730.265625 711.964844 730.921875 712.304688 731.121094 712.914062 C 731.316406 713.53125 730.976562 714.1875 730.363281 714.382812 C 727.386719 715.339844 724.367188 716.269531 721.394531 717.140625 C 721.285156 717.171875 721.175781 717.1875 721.066406 717.1875 Z M 565.199219 717.308594 C 565.0625 717.308594 564.917969 717.285156 564.78125 717.234375 C 561.875 716.117188 558.949219 714.921875 556.085938 713.675781 C 555.496094 713.417969 555.222656 712.734375 555.480469 712.140625 C 555.738281 711.550781 556.425781 711.273438 557.019531 711.535156 C 559.851562 712.765625 562.746094 713.949219 565.617188 715.050781 C 566.222656 715.28125 566.523438 715.957031 566.292969 716.558594 C 566.113281 717.023438 565.671875 717.308594 565.199219 717.308594 Z M 703 722.003906 C 702.46875 722.003906 701.992188 721.644531 701.863281 721.109375 C 701.710938 720.476562 702.101562 719.851562 702.726562 719.699219 C 705.722656 718.984375 708.761719 718.214844 711.761719 717.410156 C 712.386719 717.246094 713.027344 717.617188 713.191406 718.242188 C 713.363281 718.863281 712.988281 719.503906 712.367188 719.671875 C 709.34375 720.476562 706.289062 721.253906 703.273438 721.972656 C 703.183594 721.992188 703.089844 722.003906 703 722.003906 Z M 582.921875 723.214844 C 582.816406 723.214844 582.707031 723.203125 582.601562 723.167969 C 579.605469 722.320312 576.585938 721.386719 573.625 720.398438 C 573.011719 720.195312 572.679688 719.535156 572.886719 718.925781 C 573.089844 718.308594 573.753906 717.980469 574.363281 718.183594 C 577.292969 719.160156 580.28125 720.078125 583.238281 720.921875 C 583.859375 721.097656 584.222656 721.742188 584.042969 722.363281 C 583.898438 722.878906 583.429688 723.214844 582.921875 723.214844 Z M 684.707031 725.863281 C 684.152344 725.863281 683.664062 725.46875 683.558594 724.902344 C 683.445312 724.269531 683.863281 723.660156 684.496094 723.542969 C 687.527344 722.992188 690.601562 722.386719 693.640625 721.742188 C 694.265625 721.613281 694.890625 722.015625 695.027344 722.644531 C 695.160156 723.28125 694.753906 723.898438 694.125 724.035156 C 691.066406 724.679688 687.972656 725.285156 684.917969 725.84375 C 684.847656 725.855469 684.777344 725.863281 684.707031 725.863281 Z M 601.101562 727.484375 C 601.03125 727.484375 600.960938 727.480469 600.886719 727.46875 C 597.828125 726.894531 594.734375 726.242188 591.695312 725.527344 C 591.066406 725.382812 590.675781 724.753906 590.824219 724.125 C 590.972656 723.496094 591.601562 723.101562 592.230469 723.253906 C 595.234375 723.960938 598.292969 724.605469 601.316406 725.167969 C 601.949219 725.289062 602.371094 725.898438 602.25 726.53125 C 602.144531 727.09375 601.65625 727.484375 601.101562 727.484375 Z M 666.226562 728.699219 C 665.648438 728.699219 665.140625 728.265625 665.070312 727.671875 C 664.992188 727.03125 665.445312 726.445312 666.085938 726.371094 C 669.140625 725.988281 672.242188 725.558594 675.3125 725.085938 C 675.945312 724.984375 676.542969 725.425781 676.644531 726.0625 C 676.742188 726.703125 676.304688 727.300781 675.667969 727.398438 C 672.578125 727.871094 669.453125 728.308594 666.375 728.6875 C 666.328125 728.695312 666.277344 728.699219 666.226562 728.699219 Z M 619.605469 730.039062 C 619.570312 730.039062 619.535156 730.039062 619.5 730.035156 C 616.402344 729.761719 613.257812 729.398438 610.164062 728.972656 C 609.523438 728.886719 609.078125 728.292969 609.164062 727.65625 C 609.25 727.019531 609.839844 726.566406 610.480469 726.660156 C 613.542969 727.082031 616.644531 727.433594 619.707031 727.710938 C 620.351562 727.765625 620.824219 728.332031 620.769531 728.972656 C 620.714844 729.582031 620.203125 730.039062 619.605469 730.039062 Z M 647.613281 730.453125 C 647.003906 730.453125 646.488281 729.976562 646.449219 729.359375 C 646.410156 728.710938 646.902344 728.160156 647.542969 728.121094 C 648.082031 728.085938 648.617188 728.050781 649.15625 728.015625 C 651.707031 727.835938 654.289062 727.625 656.828125 727.382812 C 657.472656 727.316406 658.039062 727.792969 658.101562 728.433594 C 658.164062 729.082031 657.691406 729.648438 657.046875 729.710938 C 654.492188 729.953125 651.890625 730.164062 649.320312 730.347656 C 648.773438 730.382812 648.230469 730.421875 647.6875 730.453125 C 647.664062 730.453125 647.640625 730.453125 647.613281 730.453125 Z M 636.433594 730.796875 C 633.933594 730.796875 631.394531 730.746094 628.882812 730.644531 C 628.238281 730.617188 627.734375 730.074219 627.761719 729.429688 C 627.785156 728.785156 628.308594 728.292969 628.976562 728.308594 C 632.070312 728.429688 635.1875 728.480469 638.261719 728.449219 C 638.914062 728.449219 639.433594 728.960938 639.441406 729.605469 C 639.449219 730.253906 638.929688 730.78125 638.285156 730.785156 C 637.667969 730.792969 637.050781 730.796875 636.433594 730.796875 " fill-opacity="1" fill-rule="nonzero"/><path fill="#f57227" d="M 722.296875 324.625 C 722.28125 324.625 722.265625 324.625 722.25 324.625 C 719.210938 324.503906 716.054688 324.464844 712.964844 324.511719 C 712.332031 324.519531 711.792969 324.003906 711.78125 323.359375 C 711.769531 322.710938 712.289062 322.179688 712.933594 322.171875 C 716.0625 322.125 719.265625 322.164062 722.34375 322.285156 C 722.988281 322.3125 723.488281 322.855469 723.464844 323.503906 C 723.441406 324.128906 722.921875 324.625 722.296875 324.625 Z M 694.285156 325.691406 C 693.695312 325.691406 693.1875 325.246094 693.121094 324.648438 C 693.050781 324.007812 693.515625 323.429688 694.15625 323.359375 C 697.300781 323.015625 700.453125 322.742188 703.527344 322.542969 C 704.171875 322.503906 704.726562 322.992188 704.769531 323.636719 C 704.8125 324.277344 704.320312 324.832031 703.675781 324.875 C 700.636719 325.070312 697.519531 325.34375 694.410156 325.683594 C 694.367188 325.6875 694.324219 325.691406 694.285156 325.691406 Z M 740.890625 326.507812 C 740.824219 326.507812 740.761719 326.5 740.695312 326.488281 C 737.71875 325.988281 734.628906 325.578125 731.503906 325.265625 C 730.863281 325.199219 730.394531 324.625 730.460938 323.984375 C 730.523438 323.34375 731.101562 322.875 731.738281 322.9375 C 734.914062 323.253906 738.054688 323.675781 741.082031 324.1875 C 741.722656 324.292969 742.148438 324.894531 742.042969 325.53125 C 741.945312 326.101562 741.453125 326.507812 740.890625 326.507812 Z M 675.792969 328.53125 C 675.246094 328.53125 674.753906 328.144531 674.648438 327.585938 C 674.523438 326.953125 674.9375 326.339844 675.566406 326.210938 C 678.628906 325.609375 681.746094 325.0625 684.828125 324.589844 C 685.464844 324.488281 686.066406 324.929688 686.164062 325.566406 C 686.257812 326.203125 685.824219 326.804688 685.1875 326.898438 C 682.132812 327.367188 679.046875 327.910156 676.019531 328.507812 C 675.945312 328.523438 675.863281 328.53125 675.792969 328.53125 Z M 758.152344 330.714844 C 758.03125 330.714844 757.90625 330.699219 757.789062 330.660156 C 755.199219 329.808594 752.5 329.039062 749.765625 328.363281 C 749.136719 328.207031 748.757812 327.574219 748.90625 326.949219 C 749.0625 326.320312 749.699219 325.941406 750.324219 326.09375 C 753.117188 326.777344 755.871094 327.570312 758.515625 328.4375 C 759.128906 328.636719 759.460938 329.300781 759.261719 329.910156 C 759.097656 330.40625 758.644531 330.714844 758.152344 330.714844 Z M 657.617188 333.003906 C 657.125 333.003906 656.667969 332.683594 656.503906 332.191406 C 656.308594 331.578125 656.640625 330.917969 657.253906 330.71875 C 657.394531 330.675781 660.691406 329.613281 666.375 328.230469 C 667.003906 328.078125 667.636719 328.464844 667.789062 329.089844 C 667.941406 329.71875 667.558594 330.347656 666.929688 330.5 C 661.335938 331.859375 658.007812 332.933594 657.976562 332.941406 C 657.855469 332.980469 657.738281 333.003906 657.617188 333.003906 " fill-opacity="1" fill-rule="nonzero"/><path fill="#f57227" d="M 738.722656 270.214844 C 738.523438 270.214844 738.324219 270.164062 738.140625 270.0625 C 735.402344 268.488281 732.632812 267.089844 729.910156 265.914062 C 729.316406 265.65625 729.046875 264.964844 729.300781 264.378906 C 729.558594 263.785156 730.246094 263.511719 730.839844 263.765625 C 733.644531 264.980469 736.492188 266.417969 739.304688 268.03125 C 739.867188 268.351562 740.058594 269.066406 739.734375 269.625 C 739.519531 270.003906 739.125 270.214844 738.722656 270.214844 Z M 753.992188 280.988281 C 753.726562 280.988281 753.457031 280.902344 753.242188 280.71875 C 750.84375 278.699219 748.378906 276.789062 745.917969 275.046875 C 745.394531 274.675781 745.265625 273.945312 745.640625 273.421875 C 746.011719 272.894531 746.742188 272.769531 747.269531 273.140625 C 749.78125 274.917969 752.296875 276.867188 754.746094 278.925781 C 755.242188 279.34375 755.304688 280.082031 754.886719 280.574219 C 754.65625 280.851562 754.328125 280.988281 753.992188 280.988281 Z M 767.292969 294.15625 C 766.953125 294.15625 766.613281 294.003906 766.382812 293.71875 C 766.363281 293.691406 764.074219 290.875 760.09375 286.957031 C 759.628906 286.503906 759.628906 285.765625 760.082031 285.300781 C 760.527344 284.84375 761.269531 284.839844 761.734375 285.289062 C 765.820312 289.3125 768.105469 292.132812 768.199219 292.25 C 768.605469 292.75 768.53125 293.488281 768.023438 293.894531 C 767.8125 294.066406 767.550781 294.15625 767.292969 294.15625 " fill-opacity="1" fill-rule="nonzero"/><path fill="#00297a" d="M 1007.078125 652.296875 C 1007.078125 663.152344 990.585938 688.523438 985.289062 696.394531 C 984.511719 697.542969 982.820312 697.542969 982.046875 696.394531 C 976.75 688.523438 960.257812 663.152344 960.257812 652.296875 C 960.257812 639.371094 970.738281 628.890625 983.667969 628.890625 C 996.59375 628.890625 1007.078125 639.371094 1007.078125 652.296875 " fill-opacity="1" fill-rule="nonzero"/><path fill="#faceb4" d="M 992.050781 652.300781 C 992.050781 656.933594 988.292969 660.6875 983.660156 660.6875 C 979.03125 660.6875 975.273438 656.933594 975.273438 652.300781 C 975.273438 647.667969 979.03125 643.914062 983.660156 643.914062 C 988.292969 643.914062 992.050781 647.667969 992.050781 652.300781 " fill-opacity="1" fill-rule="nonzero"/></svg>