<svg xmlns="http://www.w3.org/2000/svg" xmlns:xlink="http://www.w3.org/1999/xlink" width="1920" zoomAndPan="magnify" viewBox="0 0 1440 809.999993" height="1080" preserveAspectRatio="xMidYMid meet" version="1.0"><path fill="#caddff" d="M 501.671875 58.867188 C 657.84375 -24.191406 867.066406 62.101562 976.085938 157.757812 C 1007.234375 185.082031 1082.75 253.257812 1100.585938 362.523438 C 1122.730469 498.246094 1050.230469 662.757812 883.933594 733.125 C 702.925781 809.71875 500.542969 737.128906 405.820312 619.300781 C 317.234375 509.105469 334.964844 379.347656 341.296875 332.992188 C 348.730469 278.605469 370.832031 128.453125 501.671875 58.867188 " fill-opacity="1" fill-rule="nonzero"/><path fill="#99b9ff" d="M 845.726562 126.417969 C 845.726562 71.289062 890.425781 26.601562 945.566406 26.601562 C 1000.699219 26.601562 1045.398438 71.289062 1045.398438 126.417969 C 1045.398438 181.539062 1000.699219 226.230469 945.566406 226.230469 C 890.425781 226.230469 845.726562 181.539062 845.726562 126.417969 " fill-opacity="1" fill-rule="nonzero"/><path fill="#f5f0ec" d="M 865.371094 126.421875 C 865.371094 82.144531 901.269531 46.253906 945.554688 46.253906 C 989.839844 46.253906 1025.746094 82.144531 1025.746094 126.421875 C 1025.746094 170.695312 989.839844 206.585938 945.554688 206.585938 C 901.269531 206.585938 865.371094 170.695312 865.371094 126.421875 " fill-opacity="1" fill-rule="nonzero"/><path fill="#99b9ff" d="M 883.882812 126.414062 C 883.882812 92.355469 911.496094 64.746094 945.5625 64.746094 C 979.632812 64.746094 1007.246094 92.355469 1007.246094 126.414062 C 1007.246094 160.476562 979.632812 188.082031 945.5625 188.082031 C 911.496094 188.082031 883.882812 160.476562 883.882812 126.414062 " fill-opacity="1" fill-rule="nonzero"/><path fill="#f5f0ec" d="M 905.734375 126.414062 C 905.734375 104.421875 923.566406 86.597656 945.5625 86.597656 C 967.5625 86.597656 985.390625 104.421875 985.390625 126.414062 C 985.390625 148.410156 967.5625 166.234375 945.5625 166.234375 C 923.566406 166.234375 905.734375 148.410156 905.734375 126.414062 " fill-opacity="1" fill-rule="nonzero"/><path fill="#5479f7" d="M 923.8125 126.414062 C 923.8125 114.40625 933.550781 104.671875 945.5625 104.671875 C 957.574219 104.671875 967.308594 114.40625 967.308594 126.414062 C 967.308594 138.429688 957.574219 148.164062 945.5625 148.164062 C 933.550781 148.164062 923.8125 138.429688 923.8125 126.414062 " fill-opacity="1" fill-rule="nonzero"/><path fill="#5479f7" d="M 854.464844 86.914062 C 854.277344 86.914062 854.082031 86.867188 853.894531 86.785156 C 853.195312 86.472656 852.882812 85.644531 853.199219 84.949219 C 863.503906 62.039062 881.84375 43.855469 904.835938 33.742188 C 905.539062 33.429688 906.355469 33.753906 906.664062 34.449219 C 906.976562 35.15625 906.65625 35.976562 905.953125 36.289062 C 883.589844 46.125 865.757812 63.808594 855.730469 86.089844 C 855.503906 86.601562 854.992188 86.914062 854.464844 86.914062 " fill-opacity="1" fill-rule="nonzero"/><path fill="#5479f7" d="M 886.652344 146.148438 C 886.058594 146.148438 885.507812 145.769531 885.324219 145.167969 C 883.441406 139.121094 882.488281 132.8125 882.488281 126.421875 C 882.488281 125.652344 883.109375 125.03125 883.882812 125.03125 C 884.652344 125.03125 885.269531 125.652344 885.269531 126.421875 C 885.269531 132.53125 886.175781 138.5625 887.980469 144.347656 C 888.207031 145.078125 887.800781 145.855469 887.066406 146.085938 C 886.925781 146.128906 886.785156 146.148438 886.652344 146.148438 " fill-opacity="1" fill-rule="nonzero"/><path fill="#5479f7" d="M 1005.988281 115.375 C 1005.34375 115.375 1004.761719 114.921875 1004.628906 114.265625 C 1001.882812 100.863281 994.527344 88.660156 983.914062 79.902344 C 983.324219 79.410156 983.238281 78.535156 983.722656 77.941406 C 984.21875 77.351562 985.089844 77.265625 985.6875 77.757812 C 996.789062 86.917969 1004.480469 99.6875 1007.355469 113.707031 C 1007.507812 114.460938 1007.023438 115.195312 1006.273438 115.347656 C 1006.179688 115.371094 1006.082031 115.375 1005.988281 115.375 " fill-opacity="1" fill-rule="nonzero"/><path fill="#5479f7" d="M 883.882812 127.808594 C 883.109375 127.808594 882.492188 127.183594 882.492188 126.417969 C 882.492188 91.648438 910.785156 63.359375 945.5625 63.359375 C 952.132812 63.359375 958.597656 64.363281 964.800781 66.347656 C 965.53125 66.578125 965.933594 67.363281 965.703125 68.09375 C 965.464844 68.828125 964.683594 69.230469 963.953125 68.992188 C 958.03125 67.097656 951.839844 66.136719 945.5625 66.136719 C 912.320312 66.136719 885.269531 93.175781 885.269531 126.417969 C 885.269531 127.183594 884.652344 127.808594 883.882812 127.808594 " fill-opacity="1" fill-rule="nonzero"/><path fill="#5479f7" d="M 1103.714844 159.328125 C 1060.964844 168.449219 1048.730469 130.132812 991.058594 159.328125 L 991.058594 86.328125 C 1033.976562 73.121094 1059.980469 92.910156 1103.714844 86.328125 L 1087.621094 122.480469 L 1103.714844 159.328125 " fill-opacity="1" fill-rule="nonzero"/><path fill="#000000" d="M 989.671875 267.648438 L 987.738281 267.648438 C 986.207031 267.648438 984.960938 266.40625 984.960938 264.871094 L 984.960938 82.160156 C 984.960938 80.621094 986.207031 79.375 987.738281 79.375 L 989.671875 79.375 C 991.207031 79.375 992.449219 80.621094 992.449219 82.160156 L 992.449219 264.871094 C 992.449219 266.40625 991.207031 267.648438 989.671875 267.648438 " fill-opacity="1" fill-rule="nonzero"/><path fill="#f5f0ec" d="M 950.84375 780.976562 L 907.902344 780.976562 L 907.902344 253.191406 L 950.414062 250.1875 L 950.84375 780.976562 " fill-opacity="1" fill-rule="nonzero"/><path fill="#000000" d="M 909.296875 779.585938 L 949.457031 779.585938 L 949.03125 251.679688 L 909.296875 254.480469 Z M 950.851562 782.367188 L 907.902344 782.367188 C 907.132812 782.367188 906.515625 781.742188 906.515625 780.972656 L 906.515625 253.183594 C 906.515625 252.457031 907.078125 251.851562 907.808594 251.800781 L 950.324219 248.796875 C 950.699219 248.769531 951.085938 248.902344 951.367188 249.167969 C 951.648438 249.429688 951.8125 249.796875 951.8125 250.179688 L 952.238281 780.972656 C 952.238281 781.34375 952.089844 781.699219 951.835938 781.957031 C 951.574219 782.21875 951.21875 782.367188 950.851562 782.367188 " fill-opacity="1" fill-rule="nonzero"/><path fill="#99b9ff" d="M 1066 780.976562 L 950.84375 780.976562 C 950.605469 780.976562 950.414062 780.707031 950.414062 780.375 L 950.414062 250.8125 C 950.414062 250.46875 950.625 250.199219 950.859375 250.210938 L 1066.015625 256.289062 C 1066.242188 256.300781 1066.429688 256.566406 1066.429688 256.890625 L 1066.429688 780.375 C 1066.429688 780.707031 1066.234375 780.976562 1066 780.976562 " fill-opacity="1" fill-rule="nonzero"/><path fill="#000000" d="M 951.808594 779.585938 L 1065.039062 779.585938 L 1065.039062 257.628906 L 951.808594 251.648438 Z M 1066 782.367188 L 950.851562 782.367188 C 949.824219 782.367188 949.03125 781.492188 949.03125 780.375 L 949.03125 250.808594 C 949.03125 250.226562 949.253906 249.675781 949.648438 249.300781 C 950 248.96875 950.464844 248.796875 950.9375 248.816406 L 1066.089844 254.898438 C 1067.0625 254.945312 1067.824219 255.824219 1067.824219 256.886719 L 1067.824219 780.375 C 1067.824219 781.492188 1067.023438 782.367188 1066 782.367188 " fill-opacity="1" fill-rule="nonzero"/><path fill="#caddff" d="M 1028.203125 505.679688 C 1027.429688 505.679688 1026.808594 505.054688 1026.808594 504.285156 L 1026.808594 289.957031 C 1026.808594 289.1875 1027.429688 288.566406 1028.203125 288.566406 C 1028.96875 288.566406 1029.589844 289.1875 1029.589844 289.957031 L 1029.589844 504.285156 C 1029.589844 505.054688 1028.96875 505.679688 1028.203125 505.679688 " fill-opacity="1" fill-rule="nonzero"/><path fill="#caddff" d="M 991.777344 429.304688 C 991.003906 429.304688 990.382812 428.683594 990.382812 427.917969 L 990.382812 364.6875 C 990.382812 363.917969 991.003906 363.292969 991.777344 363.292969 C 992.542969 363.292969 993.164062 363.917969 993.164062 364.6875 L 993.164062 427.917969 C 993.164062 428.683594 992.542969 429.304688 991.777344 429.304688 " fill-opacity="1" fill-rule="nonzero"/><path fill="#caddff" d="M 991.777344 646.121094 C 991.003906 646.121094 990.382812 645.492188 990.382812 644.726562 L 990.382812 535.617188 C 990.382812 534.851562 991.003906 534.230469 991.777344 534.230469 C 992.542969 534.230469 993.164062 534.851562 993.164062 535.617188 L 993.164062 644.726562 C 993.164062 645.492188 992.542969 646.121094 991.777344 646.121094 " fill-opacity="1" fill-rule="nonzero"/><path fill="#f5f0ec" d="M 806.035156 781.039062 L 763.285156 781.039062 L 763.285156 387.007812 L 805.804688 373.585938 L 806.035156 781.039062 " fill-opacity="1" fill-rule="nonzero"/><path fill="#000000" d="M 764.679688 779.644531 L 804.644531 779.644531 L 804.410156 375.484375 L 764.679688 388.03125 Z M 806.035156 782.425781 L 763.285156 782.425781 C 762.519531 782.425781 761.894531 781.804688 761.894531 781.039062 L 761.894531 387.007812 C 761.894531 386.402344 762.289062 385.867188 762.867188 385.683594 L 805.382812 372.261719 C 805.804688 372.125 806.269531 372.199219 806.621094 372.460938 C 806.980469 372.722656 807.191406 373.140625 807.191406 373.585938 L 807.421875 781.039062 C 807.421875 781.402344 807.28125 781.757812 807.019531 782.019531 C 806.757812 782.28125 806.402344 782.425781 806.035156 782.425781 " fill-opacity="1" fill-rule="nonzero"/><path fill="#99b9ff" d="M 921.382812 781.039062 L 806.234375 781.039062 C 805.992188 781.039062 805.804688 780.832031 805.804688 780.578125 L 805.804688 374.0625 C 805.804688 373.800781 806.007812 373.59375 806.242188 373.601562 L 921.398438 378.269531 C 921.632812 378.277344 921.8125 378.484375 921.8125 378.726562 L 921.8125 780.578125 C 921.8125 780.832031 921.617188 781.039062 921.382812 781.039062 " fill-opacity="1" fill-rule="nonzero"/><path fill="#000000" d="M 807.195312 779.644531 L 920.421875 779.644531 L 920.421875 379.621094 L 807.195312 375.03125 Z M 921.386719 782.425781 L 806.234375 782.425781 C 805.234375 782.425781 804.414062 781.597656 804.414062 780.578125 L 804.414062 374.058594 C 804.414062 373.550781 804.617188 373.0625 804.980469 372.710938 C 805.335938 372.375 805.816406 372.183594 806.304688 372.210938 L 921.457031 376.878906 C 922.4375 376.914062 923.207031 377.726562 923.207031 378.722656 L 923.207031 780.578125 C 923.207031 781.597656 922.390625 782.425781 921.386719 782.425781 " fill-opacity="1" fill-rule="nonzero"/><path fill="#caddff" d="M 863.835938 586.941406 C 863.066406 586.941406 862.441406 586.316406 862.441406 585.546875 L 862.441406 405.0625 C 862.441406 404.296875 863.066406 403.675781 863.835938 403.675781 C 864.601562 403.675781 865.226562 404.296875 865.226562 405.0625 L 865.226562 585.546875 C 865.226562 586.316406 864.601562 586.941406 863.835938 586.941406 " fill-opacity="1" fill-rule="nonzero"/><path fill="#caddff" d="M 833.433594 465.351562 C 832.664062 465.351562 832.042969 464.726562 832.042969 463.957031 L 832.042969 433.191406 C 832.042969 432.425781 832.664062 431.804688 833.433594 431.804688 C 834.199219 431.804688 834.824219 432.425781 834.824219 433.191406 L 834.824219 463.957031 C 834.824219 464.726562 834.199219 465.351562 833.433594 465.351562 " fill-opacity="1" fill-rule="nonzero"/><path fill="#caddff" d="M 833.433594 669.46875 C 832.664062 669.46875 832.042969 668.84375 832.042969 668.078125 L 832.042969 514.839844 C 832.042969 514.070312 832.664062 513.449219 833.433594 513.449219 C 834.199219 513.449219 834.824219 514.070312 834.824219 514.839844 L 834.824219 668.078125 C 834.824219 668.84375 834.199219 669.46875 833.433594 669.46875 " fill-opacity="1" fill-rule="nonzero"/><path fill="#caddff" d="M 894.234375 526 C 893.464844 526 892.839844 525.375 892.839844 524.609375 L 892.839844 493.84375 C 892.839844 493.074219 893.464844 492.457031 894.234375 492.457031 C 895 492.457031 895.625 493.074219 895.625 493.84375 L 895.625 524.609375 C 895.625 525.375 895 526 894.234375 526 " fill-opacity="1" fill-rule="nonzero"/><path fill="#f5f0ec" d="M 662.238281 781.039062 L 619.722656 781.039062 L 619.722656 554.574219 L 662.238281 545.25 L 662.238281 781.039062 " fill-opacity="1" fill-rule="nonzero"/><path fill="#000000" d="M 621.113281 779.644531 L 660.847656 779.644531 L 660.847656 546.980469 L 621.113281 555.691406 Z M 662.238281 782.425781 L 619.722656 782.425781 C 618.957031 782.425781 618.332031 781.804688 618.332031 781.039062 L 618.332031 554.574219 C 618.332031 553.917969 618.789062 553.351562 619.425781 553.214844 L 661.941406 543.890625 C 662.351562 543.804688 662.78125 543.902344 663.109375 544.171875 C 663.441406 544.429688 663.628906 544.832031 663.628906 545.25 L 663.628906 781.039062 C 663.628906 781.804688 663.003906 782.425781 662.238281 782.425781 " fill-opacity="1" fill-rule="nonzero"/><path fill="#99b9ff" d="M 778.25 781.039062 L 662.238281 781.039062 L 662.238281 545.746094 C 662.238281 545.476562 662.460938 545.257812 662.730469 545.265625 L 778.25 549.136719 L 778.25 781.039062 " fill-opacity="1" fill-rule="nonzero"/><path fill="#000000" d="M 663.628906 779.644531 L 776.859375 779.644531 L 776.859375 550.480469 L 663.628906 546.6875 Z M 779.640625 782.425781 L 660.847656 782.425781 L 660.847656 545.746094 C 660.847656 545.242188 661.054688 544.753906 661.417969 544.402344 C 661.777344 544.050781 662.261719 543.855469 662.78125 543.878906 L 779.640625 547.792969 L 779.640625 782.425781 " fill-opacity="1" fill-rule="nonzero"/><path fill="#caddff" d="M 693.078125 715.292969 C 692.308594 715.292969 691.683594 714.667969 691.683594 713.898438 L 691.683594 573.425781 C 691.683594 572.660156 692.308594 572.035156 693.078125 572.035156 C 693.84375 572.035156 694.464844 572.660156 694.464844 573.425781 L 694.464844 713.898438 C 694.464844 714.667969 693.84375 715.292969 693.078125 715.292969 " fill-opacity="1" fill-rule="nonzero"/><path fill="#caddff" d="M 753.878906 731.722656 C 753.113281 731.722656 752.488281 731.097656 752.488281 730.328125 L 752.488281 589.855469 C 752.488281 589.085938 753.113281 588.46875 753.878906 588.46875 C 754.644531 588.46875 755.269531 589.085938 755.269531 589.855469 L 755.269531 730.328125 C 755.269531 731.097656 754.644531 731.722656 753.878906 731.722656 " fill-opacity="1" fill-rule="nonzero"/><path fill="#caddff" d="M 723.476562 676.683594 C 722.710938 676.683594 722.085938 676.058594 722.085938 675.289062 L 722.085938 646.539062 C 722.085938 645.773438 722.710938 645.148438 723.476562 645.148438 C 724.246094 645.148438 724.871094 645.773438 724.871094 646.539062 L 724.871094 675.289062 C 724.871094 676.058594 724.246094 676.683594 723.476562 676.683594 " fill-opacity="1" fill-rule="nonzero"/><path fill="#f5f0ec" d="M 519.261719 781.039062 L 476.34375 781.039062 L 476.34375 668.71875 L 518.859375 660.335938 L 519.261719 781.039062 " fill-opacity="1" fill-rule="nonzero"/><path fill="#000000" d="M 477.734375 779.644531 L 517.867188 779.644531 L 517.472656 662.027344 L 477.734375 669.859375 Z M 519.261719 782.425781 L 476.34375 782.425781 C 475.578125 782.425781 474.953125 781.804688 474.953125 781.039062 L 474.953125 668.71875 C 474.953125 668.054688 475.421875 667.480469 476.078125 667.355469 L 518.589844 658.976562 C 518.996094 658.890625 519.417969 659 519.742188 659.261719 C 520.0625 659.523438 520.25 659.917969 520.25 660.332031 L 520.652344 781.03125 C 520.65625 781.402344 520.511719 781.753906 520.25 782.019531 C 519.988281 782.28125 519.632812 782.425781 519.261719 782.425781 " fill-opacity="1" fill-rule="nonzero"/><path fill="#99b9ff" d="M 634.464844 781.039062 L 519.261719 781.039062 C 519.039062 781.039062 518.859375 780.855469 518.859375 780.632812 L 518.859375 660.75 C 518.859375 660.523438 519.042969 660.339844 519.269531 660.34375 L 634.472656 662.222656 C 634.691406 662.226562 634.871094 662.410156 634.871094 662.628906 L 634.871094 780.632812 C 634.871094 780.855469 634.6875 781.039062 634.464844 781.039062 " fill-opacity="1" fill-rule="nonzero"/><path fill="#000000" d="M 520.25 779.644531 L 633.476562 779.644531 L 633.476562 663.597656 L 520.25 661.75 Z M 634.464844 782.425781 L 519.261719 782.425781 C 518.273438 782.425781 517.46875 781.621094 517.46875 780.632812 L 517.46875 660.75 C 517.46875 660.265625 517.65625 659.808594 518.003906 659.46875 C 518.351562 659.128906 518.808594 658.957031 519.292969 658.953125 L 634.496094 660.835938 C 635.46875 660.847656 636.261719 661.652344 636.261719 662.628906 L 636.261719 780.632812 C 636.261719 781.621094 635.457031 782.425781 634.464844 782.425781 " fill-opacity="1" fill-rule="nonzero"/><path fill="#caddff" d="M 599.808594 753.898438 C 599.039062 753.898438 598.417969 753.277344 598.417969 752.511719 L 598.417969 681.042969 C 598.417969 680.269531 599.039062 679.652344 599.808594 679.652344 C 600.578125 679.652344 601.199219 680.269531 601.199219 681.042969 L 601.199219 752.511719 C 601.199219 753.277344 600.578125 753.898438 599.808594 753.898438 " fill-opacity="1" fill-rule="nonzero"/><path fill="#caddff" d="M 563.382812 728.4375 C 562.613281 728.4375 561.992188 727.8125 561.992188 727.042969 L 561.992188 705.957031 C 561.992188 705.191406 562.613281 704.570312 563.382812 704.570312 C 564.152344 704.570312 564.773438 705.191406 564.773438 705.957031 L 564.773438 727.042969 C 564.773438 727.8125 564.152344 728.4375 563.382812 728.4375 " fill-opacity="1" fill-rule="nonzero"/><path fill="#f5f0ec" d="M 376.230469 781.039062 L 333.308594 781.039062 L 333.308594 722.214844 L 375.824219 715.042969 L 376.230469 781.039062 " fill-opacity="1" fill-rule="nonzero"/><path fill="#000000" d="M 334.703125 779.644531 L 374.828125 779.644531 L 374.445312 716.683594 L 334.703125 723.390625 Z M 376.230469 782.425781 L 333.308594 782.425781 C 332.539062 782.425781 331.917969 781.804688 331.917969 781.039062 L 331.917969 722.214844 C 331.917969 721.539062 332.410156 720.957031 333.078125 720.84375 L 375.59375 713.671875 C 375.992188 713.601562 376.40625 713.714844 376.71875 713.976562 C 377.03125 714.242188 377.210938 714.625 377.214844 715.035156 L 377.621094 781.027344 C 377.621094 781.402344 377.476562 781.753906 377.214844 782.015625 C 376.953125 782.277344 376.597656 782.425781 376.230469 782.425781 " fill-opacity="1" fill-rule="nonzero"/><path fill="#99b9ff" d="M 491.429688 781.039062 L 376.230469 781.039062 C 376.007812 781.039062 375.824219 780.9375 375.824219 780.8125 L 375.824219 715.269531 C 375.824219 715.144531 376.007812 715.042969 376.234375 715.046875 L 491.4375 716.070312 C 491.65625 716.078125 491.835938 716.175781 491.835938 716.296875 L 491.835938 780.8125 C 491.835938 780.9375 491.65625 781.039062 491.429688 781.039062 " fill-opacity="1" fill-rule="nonzero"/><path fill="#000000" d="M 377.214844 779.644531 L 490.445312 779.644531 L 490.445312 717.457031 L 377.214844 716.445312 Z M 491.429688 782.425781 L 376.230469 782.425781 C 375.222656 782.425781 374.433594 781.71875 374.433594 780.8125 L 374.433594 715.269531 C 374.433594 714.859375 374.597656 714.46875 374.894531 714.171875 C 375.230469 713.839844 375.730469 713.660156 376.246094 713.65625 L 491.449219 714.683594 C 492.464844 714.691406 493.226562 715.386719 493.226562 716.296875 L 493.226562 780.8125 C 493.226562 781.71875 492.4375 782.425781 491.429688 782.425781 " fill-opacity="1" fill-rule="nonzero"/><path fill="#caddff" d="M 456.773438 766.832031 C 456.003906 766.832031 455.382812 766.207031 455.382812 765.441406 L 455.382812 726.363281 C 455.382812 725.59375 456.003906 724.972656 456.773438 724.972656 C 457.542969 724.972656 458.164062 725.59375 458.164062 726.363281 L 458.164062 765.441406 C 458.164062 766.207031 457.542969 766.832031 456.773438 766.832031 " fill-opacity="1" fill-rule="nonzero"/><path fill="#caddff" d="M 420.347656 752.90625 C 419.578125 752.90625 418.957031 752.285156 418.957031 751.515625 L 418.957031 739.988281 C 418.957031 739.222656 419.578125 738.597656 420.347656 738.597656 C 421.117188 738.597656 421.738281 739.222656 421.738281 739.988281 L 421.738281 751.515625 C 421.738281 752.285156 421.117188 752.90625 420.347656 752.90625 " fill-opacity="1" fill-rule="nonzero"/><path fill="#f5f0ec" d="M 502.679688 599.675781 L 498.476562 636.949219 L 514.332031 643.550781 L 520.175781 602.914062 L 502.679688 599.675781 " fill-opacity="1" fill-rule="nonzero"/><path fill="#000000" d="M 499.976562 636.066406 L 513.210938 641.574219 L 518.605469 604.035156 L 503.894531 601.3125 Z M 514.335938 644.941406 C 514.152344 644.941406 513.96875 644.902344 513.796875 644.832031 L 497.941406 638.234375 C 497.371094 637.992188 497.027344 637.40625 497.09375 636.792969 L 501.296875 599.519531 C 501.339844 599.132812 501.539062 598.785156 501.851562 598.554688 C 502.160156 598.324219 502.550781 598.238281 502.933594 598.308594 L 520.425781 601.542969 C 521.160156 601.679688 521.65625 602.371094 521.550781 603.113281 L 515.710938 643.746094 C 515.648438 644.175781 515.394531 644.542969 515.019531 644.761719 C 514.808594 644.878906 514.570312 644.941406 514.335938 644.941406 " fill-opacity="1" fill-rule="nonzero"/><path fill="#99b9ff" d="M 494.785156 633.429688 C 494.285156 636.960938 493.480469 643.515625 493.414062 649.394531 C 493.371094 653.085938 496.144531 656.199219 499.804688 656.667969 C 510.15625 657.996094 533.640625 659.445312 553.640625 657.632812 C 555.011719 657.511719 557.433594 656.515625 558.109375 653.09375 C 560.371094 641.617188 540.398438 638.804688 518.5 630.476562 C 517.644531 630.148438 516.671875 630.34375 516.011719 630.984375 L 513.652344 633.269531 C 511.289062 635.558594 507.785156 636.207031 504.757812 634.917969 L 497.578125 631.851562 C 496.355469 631.332031 494.972656 632.113281 494.785156 633.429688 " fill-opacity="1" fill-rule="nonzero"/><path fill="#000000" d="M 496.164062 633.625 C 495.683594 637.011719 494.871094 643.570312 494.804688 649.410156 C 494.769531 652.378906 496.996094 654.910156 499.980469 655.289062 C 510.65625 656.660156 533.722656 658.046875 553.515625 656.25 C 553.949219 656.210938 556.144531 655.859375 556.742188 652.824219 C 558.167969 645.59375 549.074219 642.238281 532.878906 636.921875 C 528.105469 635.359375 523.164062 633.738281 518.003906 631.777344 C 517.652344 631.640625 517.25 631.722656 516.980469 631.980469 L 514.621094 634.265625 C 511.847656 636.953125 507.761719 637.707031 504.214844 636.191406 L 497.03125 633.132812 C 496.785156 633.027344 496.578125 633.105469 496.476562 633.160156 C 496.375 633.21875 496.203125 633.355469 496.164062 633.625 Z M 532.804688 659.882812 C 519.324219 659.882812 506.75 658.960938 499.628906 658.046875 C 495.242188 657.484375 491.972656 653.757812 492.023438 649.378906 C 492.089844 643.386719 492.921875 636.691406 493.410156 633.230469 C 493.558594 632.175781 494.179688 631.265625 495.109375 630.738281 C 496.042969 630.210938 497.140625 630.152344 498.121094 630.574219 L 505.304688 633.636719 C 507.820312 634.707031 510.71875 634.171875 512.683594 632.269531 L 515.046875 629.984375 C 516.085938 628.976562 517.636719 628.660156 518.996094 629.179688 C 524.09375 631.113281 529 632.726562 533.746094 634.285156 C 549.21875 639.355469 561.441406 643.367188 559.472656 653.363281 C 558.710938 657.222656 555.921875 658.824219 553.769531 659.019531 C 546.957031 659.636719 539.761719 659.882812 532.804688 659.882812 " fill-opacity="1" fill-rule="nonzero"/><path fill="#f5f0ec" d="M 493.429688 648.507812 C 493.429688 648.507812 493.417969 649.109375 493.414062 649.394531 C 493.371094 653.085938 496.144531 656.199219 499.804688 656.667969 C 510.15625 657.996094 533.640625 659.445312 553.640625 657.632812 C 555.011719 657.511719 557.433594 656.515625 558.109375 653.09375 C 558.3125 652.046875 558.1875 650.160156 558.1875 650.160156 L 556.769531 650.226562 C 536.554688 651.226562 516.296875 650.742188 496.15625 648.777344 L 493.429688 648.507812 " fill-opacity="1" fill-rule="nonzero"/><path fill="#000000" d="M 494.832031 650.042969 C 495.09375 652.730469 497.210938 654.933594 499.980469 655.289062 C 510.65625 656.660156 533.722656 658.046875 553.515625 656.25 C 553.949219 656.210938 556.144531 655.859375 556.742188 652.824219 C 556.804688 652.511719 556.828125 652.0625 556.832031 651.617188 C 536.625 652.613281 516.160156 652.125 496.023438 650.164062 Z M 532.804688 659.882812 C 519.324219 659.882812 506.75 658.960938 499.628906 658.046875 C 495.242188 657.484375 491.972656 653.757812 492.023438 649.378906 L 492.039062 648.484375 C 492.046875 648.097656 492.214844 647.730469 492.503906 647.472656 C 492.796875 647.214844 493.175781 647.09375 493.566406 647.125 L 496.292969 647.390625 C 516.296875 649.34375 536.621094 649.832031 556.699219 648.839844 L 558.117188 648.769531 C 558.871094 648.710938 559.523438 649.304688 559.574219 650.066406 C 559.589844 650.277344 559.707031 652.171875 559.472656 653.363281 C 558.710938 657.222656 555.921875 658.824219 553.769531 659.019531 C 546.957031 659.636719 539.761719 659.882812 532.804688 659.882812 " fill-opacity="1" fill-rule="nonzero"/><path fill="#000000" d="M 523.523438 644.261719 C 523.167969 644.261719 522.8125 644.128906 522.539062 643.859375 C 521.996094 643.3125 521.996094 642.429688 522.539062 641.886719 L 530.222656 634.207031 C 530.765625 633.664062 531.644531 633.664062 532.191406 634.203125 C 532.730469 634.746094 532.730469 635.628906 532.191406 636.171875 L 524.507812 643.859375 C 524.234375 644.128906 523.878906 644.261719 523.523438 644.261719 " fill-opacity="1" fill-rule="nonzero"/><path fill="#000000" d="M 531.070312 645.058594 C 530.722656 645.058594 530.375 644.933594 530.105469 644.671875 C 529.554688 644.140625 529.535156 643.257812 530.070312 642.707031 L 536.207031 636.328125 C 536.738281 635.777344 537.621094 635.757812 538.171875 636.289062 C 538.726562 636.824219 538.742188 637.703125 538.210938 638.253906 L 532.074219 644.632812 C 531.800781 644.914062 531.433594 645.058594 531.070312 645.058594 " fill-opacity="1" fill-rule="nonzero"/><path fill="#000000" d="M 560.269531 354.019531 C 560.269531 354.019531 550.617188 359.621094 546.847656 392.464844 C 543.082031 425.304688 544.339844 464.023438 518.101562 502.414062 C 497.152344 533.078125 498.992188 584.828125 495.949219 618.742188 C 495.800781 620.378906 497.058594 621.800781 498.703125 621.855469 L 518.789062 622.542969 C 520.070312 622.589844 521.222656 621.785156 521.613281 620.566406 C 525.203125 609.453125 543.058594 555.828125 563.113281 524.738281 C 584.308594 491.878906 610.078125 406.589844 610.078125 406.589844 C 610.078125 406.589844 605.296875 385.027344 604.632812 364.367188 C 603.96875 343.703125 560.269531 354.019531 560.269531 354.019531 " fill-opacity="1" fill-rule="nonzero"/><path fill="#f5f0ec" d="M 678.558594 489.101562 L 670.085938 525.644531 L 685.078125 534.027344 L 695.5625 494.332031 L 678.558594 489.101562 " fill-opacity="1" fill-rule="nonzero"/><path fill="#000000" d="M 671.679688 524.941406 L 684.191406 531.9375 L 693.878906 495.265625 L 679.578125 490.867188 Z M 685.078125 535.417969 C 684.84375 535.417969 684.609375 535.359375 684.398438 535.242188 L 669.410156 526.855469 C 668.871094 526.554688 668.59375 525.929688 668.734375 525.328125 L 677.207031 488.785156 C 677.289062 488.410156 677.53125 488.089844 677.863281 487.894531 C 678.199219 487.703125 678.597656 487.660156 678.96875 487.773438 L 695.972656 493.003906 C 696.683594 493.222656 697.097656 493.964844 696.90625 494.6875 L 686.425781 534.378906 C 686.3125 534.796875 686.019531 535.140625 685.621094 535.308594 C 685.449219 535.378906 685.265625 535.417969 685.078125 535.417969 " fill-opacity="1" fill-rule="nonzero"/><path fill="#99b9ff" d="M 668.285156 523.484375 C 667.789062 527.019531 664.613281 533.71875 664.546875 539.59375 C 664.503906 543.285156 667.273438 546.398438 670.9375 546.867188 C 681.289062 548.195312 707.144531 549.507812 727.144531 547.691406 C 728.511719 547.566406 730.933594 546.570312 731.605469 543.148438 C 733.871094 531.671875 713.902344 528.859375 692 520.53125 C 691.144531 520.207031 690.175781 520.398438 689.515625 521.039062 L 687.15625 523.324219 C 684.792969 525.613281 681.285156 526.261719 678.261719 524.972656 L 671.078125 521.90625 C 669.855469 521.386719 668.472656 522.171875 668.285156 523.484375 " fill-opacity="1" fill-rule="nonzero"/><path fill="#000000" d="M 669.664062 523.679688 C 669.464844 525.101562 668.902344 526.878906 668.253906 528.925781 C 667.238281 532.128906 665.972656 536.113281 665.9375 539.609375 C 665.902344 542.574219 668.125 545.105469 671.113281 545.484375 C 680.492188 546.695312 706.519531 548.164062 727.015625 546.304688 C 727.453125 546.265625 729.644531 545.917969 730.242188 542.878906 C 731.671875 535.648438 722.574219 532.292969 706.378906 526.984375 C 701.605469 525.414062 696.667969 523.792969 691.507812 521.832031 C 691.152344 521.695312 690.75 521.777344 690.480469 522.039062 L 688.121094 524.324219 C 685.347656 527.007812 681.265625 527.761719 677.714844 526.246094 L 670.53125 523.1875 C 670.289062 523.082031 670.078125 523.160156 669.980469 523.21875 C 669.875 523.273438 669.703125 523.410156 669.664062 523.679688 Z M 704.726562 549.960938 C 691.179688 549.960938 678.015625 549.175781 670.757812 548.246094 C 666.371094 547.683594 663.101562 543.957031 663.152344 539.578125 C 663.199219 535.671875 664.527344 531.464844 665.601562 528.085938 C 666.210938 526.15625 666.742188 524.484375 666.914062 523.292969 C 667.058594 522.230469 667.679688 521.320312 668.609375 520.792969 C 669.542969 520.273438 670.640625 520.210938 671.625 520.628906 L 678.804688 523.691406 C 681.324219 524.761719 684.222656 524.226562 686.1875 522.324219 L 688.546875 520.039062 C 689.589844 519.03125 691.136719 518.714844 692.5 519.234375 C 697.597656 521.175781 702.5 522.78125 707.25 524.339844 C 722.722656 529.417969 734.945312 533.421875 732.976562 543.417969 C 732.210938 547.285156 729.421875 548.882812 727.269531 549.074219 C 720.316406 549.707031 712.457031 549.960938 704.726562 549.960938 " fill-opacity="1" fill-rule="nonzero"/><path fill="#f5f0ec" d="M 665.105469 538.464844 C 665.105469 538.464844 665.09375 539.0625 665.09375 539.351562 C 665.050781 543.039062 667.824219 546.152344 671.484375 546.621094 C 681.839844 547.949219 707.144531 549.507812 727.144531 547.691406 C 728.511719 547.566406 730.933594 546.570312 731.605469 543.148438 C 731.816406 542.101562 731.6875 540.214844 731.6875 540.214844 L 730.269531 540.285156 C 710.058594 541.28125 689.800781 540.796875 669.65625 538.835938 L 665.105469 538.464844 " fill-opacity="1" fill-rule="nonzero"/><path fill="#000000" d="M 666.507812 539.972656 C 666.761719 542.671875 668.882812 544.886719 671.660156 545.242188 C 680.722656 546.40625 706.179688 548.195312 727.015625 546.304688 C 727.453125 546.265625 729.644531 545.917969 730.242188 542.878906 C 730.304688 542.566406 730.328125 542.117188 730.332031 541.671875 C 710.125 542.667969 689.664062 542.179688 669.523438 540.21875 Z M 706.644531 549.910156 C 691.636719 549.910156 677.585938 548.804688 671.308594 548 C 666.921875 547.441406 663.652344 543.710938 663.703125 539.332031 L 663.71875 538.4375 C 663.726562 538.054688 663.890625 537.691406 664.171875 537.433594 C 664.460938 537.175781 664.835938 537.050781 665.21875 537.078125 L 669.769531 537.445312 C 689.800781 539.398438 710.121094 539.886719 730.203125 538.894531 L 731.621094 538.824219 C 732.382812 538.78125 733.023438 539.367188 733.074219 540.121094 C 733.089844 540.332031 733.207031 542.226562 732.976562 543.417969 C 732.210938 547.285156 729.421875 548.882812 727.269531 549.074219 C 720.636719 549.679688 713.539062 549.910156 706.644531 549.910156 " fill-opacity="1" fill-rule="nonzero"/><path fill="#000000" d="M 697.027344 534.316406 C 696.667969 534.316406 696.3125 534.183594 696.039062 533.914062 C 695.496094 533.367188 695.496094 532.484375 696.039062 531.945312 L 703.726562 524.261719 C 704.265625 523.71875 705.148438 523.71875 705.691406 524.261719 C 706.234375 524.800781 706.234375 525.683594 705.691406 526.226562 L 698.007812 533.914062 C 697.734375 534.183594 697.378906 534.316406 697.027344 534.316406 " fill-opacity="1" fill-rule="nonzero"/><path fill="#000000" d="M 704.574219 535.113281 C 704.222656 535.113281 703.875 534.988281 703.609375 534.726562 C 703.054688 534.195312 703.039062 533.3125 703.570312 532.761719 L 709.707031 526.382812 C 710.242188 525.832031 711.121094 525.816406 711.671875 526.34375 C 712.230469 526.878906 712.246094 527.757812 711.710938 528.316406 L 705.574219 534.6875 C 705.296875 534.976562 704.9375 535.113281 704.574219 535.113281 " fill-opacity="1" fill-rule="nonzero"/><path fill="#000000" d="M 598.964844 412.378906 C 598.964844 412.378906 644.097656 408.835938 694.464844 381.792969 C 695.949219 380.992188 696.910156 383.453125 696.007812 384.878906 C 693.472656 388.890625 692.128906 394.90625 688.34375 405.167969 C 683.691406 417.800781 673.855469 483.171875 670.613281 503.515625 C 670.324219 505.351562 671.707031 507.027344 673.570312 507.085938 L 692.9375 507.714844 C 694.160156 507.757812 695.292969 507.074219 695.824219 505.96875 C 702.808594 491.417969 748.4375 376.863281 746.695312 355.527344 C 744.8125 332.460938 718.472656 334.003906 707.488281 333.296875 C 696.121094 332.570312 593.089844 351.820312 593.089844 351.820312 L 598.964844 412.378906 " fill-opacity="1" fill-rule="nonzero"/><path fill="#f5f0ec" d="M 461.691406 378.691406 C 463.25 376.835938 465.269531 374.65625 467.007812 372.9375 C 469.253906 370.71875 476.742188 356.148438 476.742188 356.148438 L 489.839844 359.855469 C 489.839844 359.855469 483.714844 370.566406 485.1875 375.894531 C 486.554688 380.863281 487.636719 391.355469 480.363281 398.988281 C 479.527344 399.867188 477.703125 400.097656 477.066406 399.945312 C 475.171875 399.503906 475.128906 396.871094 476.058594 395.152344 L 478.6875 390.320312 C 478.917969 389.894531 478.566406 389.390625 478.089844 389.457031 C 476.125 389.734375 471.804688 390.992188 467.28125 396.574219 C 463.800781 400.863281 456.902344 410.441406 454.585938 408.855469 C 450.445312 406.019531 453.148438 388.871094 461.691406 378.691406 " fill-opacity="1" fill-rule="nonzero"/><path fill="#000000" d="M 462.753906 379.585938 C 456.574219 386.949219 453.339844 398.585938 454.199219 404.839844 C 454.382812 406.203125 454.769531 407.203125 455.269531 407.632812 C 457.027344 407.351562 462.195312 400.773438 464.421875 397.933594 C 465.074219 397.109375 465.675781 396.339844 466.199219 395.695312 C 470.953125 389.832031 475.566406 388.40625 477.894531 388.082031 C 478.640625 387.976562 479.367188 388.292969 479.796875 388.90625 C 480.222656 389.527344 480.265625 390.320312 479.90625 390.984375 L 477.28125 395.820312 C 476.859375 396.601562 476.730469 397.667969 476.996094 398.253906 C 477.097656 398.480469 477.226562 398.558594 477.382812 398.59375 C 477.769531 398.65625 478.96875 398.4375 479.355469 398.03125 C 487.101562 389.898438 484.453125 378.476562 483.84375 376.265625 C 482.566406 371.636719 486.0625 364.054688 487.789062 360.71875 L 477.457031 357.792969 C 475.617188 361.328125 470.039062 371.898438 467.988281 373.925781 C 466.257812 375.632812 464.253906 377.804688 462.753906 379.585938 Z M 455.371094 407.707031 L 455.378906 407.707031 Z M 455.171875 410.4375 C 454.683594 410.4375 454.226562 410.292969 453.800781 410.003906 C 452.554688 409.152344 451.761719 407.539062 451.441406 405.21875 C 450.507812 398.40625 453.753906 385.984375 460.625 377.796875 C 462.195312 375.925781 464.21875 373.738281 466.03125 371.945312 C 467.550781 370.445312 472.648438 361.070312 475.503906 355.511719 C 475.808594 354.921875 476.484375 354.628906 477.121094 354.804688 L 490.21875 358.515625 C 490.628906 358.636719 490.964844 358.9375 491.125 359.332031 C 491.289062 359.726562 491.257812 360.175781 491.046875 360.546875 C 489.421875 363.386719 485.449219 371.621094 486.527344 375.527344 C 488.492188 382.652344 488.167969 392.808594 481.371094 399.945312 C 480.105469 401.273438 477.730469 401.53125 476.75 401.300781 C 475.714844 401.058594 474.898438 400.378906 474.457031 399.394531 C 473.832031 397.996094 473.980469 396.074219 474.839844 394.492188 L 476.605469 391.234375 C 474.605469 391.898438 471.550781 393.515625 468.359375 397.445312 C 467.84375 398.082031 467.25 398.835938 466.609375 399.648438 C 461.605469 406.027344 457.910156 410.4375 455.171875 410.4375 " fill-opacity="1" fill-rule="nonzero"/><path fill="#5479f7" d="M 775.644531 214.09375 L 767.183594 199.828125 C 765.789062 197.480469 761.410156 196.773438 759.226562 198.398438 C 711.394531 234.046875 660.511719 219.507812 652.652344 217.632812 C 633.148438 212.992188 623.324219 212.28125 607.929688 211.34375 C 585.398438 209.976562 552.988281 223 531.179688 244.808594 C 513.832031 262.148438 484.238281 318.410156 470.824219 357.496094 C 470.257812 359.136719 470.984375 360.941406 472.527344 361.742188 L 485.988281 368.730469 C 487.695312 369.617188 489.792969 368.964844 490.695312 367.269531 C 497.546875 354.363281 527.230469 300.832031 558.300781 283.160156 C 560.582031 281.867188 564.019531 283.238281 563.886719 285.859375 C 563.472656 294.089844 558.367188 324.582031 556.808594 352.839844 C 556.601562 356.570312 559.175781 359.875 562.851562 360.554688 L 576.441406 363.074219 C 600.144531 368.59375 622.367188 362.445312 632.160156 358.953125 C 635.160156 357.882812 636.613281 354.992188 637.070312 351.839844 C 637.820312 346.617188 648.34375 304.726562 667.523438 277.015625 C 669.945312 273.527344 673.605469 271.113281 677.839844 270.867188 C 694.949219 269.867188 743.640625 263.027344 775.4375 218.484375 C 776.363281 217.1875 776.460938 215.46875 775.644531 214.09375 " fill-opacity="1" fill-rule="nonzero"/><path fill="#f5f0ec" d="M 763.992188 204.117188 C 763.808594 203.058594 764.1875 201.980469 765.007812 201.285156 C 766.09375 200.363281 767.917969 198.792969 770.574219 196.472656 C 775.25 192.378906 781.109375 184.210938 786.210938 181.761719 C 791.3125 179.3125 809.8125 172.082031 812.773438 173.613281 C 815.730469 175.152344 814.261719 178.625 810.058594 180.640625 C 805.863281 182.660156 800.394531 184.730469 800.394531 184.730469 C 800.394531 184.730469 803.449219 184.558594 805.707031 188.085938 C 807.960938 191.617188 804.835938 193.046875 806.15625 194.796875 C 807.84375 197.03125 807.347656 199.636719 806.007812 200.773438 C 802.949219 203.378906 799.25 198.234375 796.492188 203.554688 C 794.574219 207.25 790.039062 209.65625 780.847656 211.414062 C 778.378906 211.882812 776.027344 212.828125 773.898438 214.160156 C 773.019531 214.714844 771.90625 214.757812 771 214.242188 C 768.800781 213.007812 764.996094 210.054688 763.992188 204.117188 " fill-opacity="1" fill-rule="nonzero"/><path fill="#000000" d="M 811.425781 174.746094 C 807.492188 174.746094 792.847656 180.113281 786.816406 183.011719 C 783.804688 184.457031 780.378906 188.195312 777.070312 191.808594 C 775.105469 193.953125 773.246094 195.980469 771.496094 197.515625 C 768.832031 199.84375 766.996094 201.417969 765.90625 202.339844 C 765.46875 202.71875 765.261719 203.292969 765.367188 203.886719 C 766.273438 209.253906 769.710938 211.921875 771.683594 213.027344 C 772.136719 213.289062 772.707031 213.269531 773.167969 212.980469 C 775.484375 211.53125 777.984375 210.539062 780.585938 210.046875 C 789.121094 208.414062 793.511719 206.28125 795.261719 202.910156 C 797.332031 198.917969 800.238281 199.527344 802.167969 199.925781 C 803.585938 200.226562 804.363281 200.347656 805.113281 199.710938 C 805.882812 199.054688 806.292969 197.269531 805.050781 195.625 C 804.035156 194.28125 804.511719 192.953125 804.828125 192.074219 C 805.183594 191.074219 805.464844 190.28125 804.539062 188.835938 C 802.773438 186.070312 800.488281 186.117188 800.476562 186.117188 C 799.785156 186.15625 799.179688 185.691406 799.039062 185.019531 C 798.890625 184.347656 799.257812 183.671875 799.902344 183.429688 C 799.957031 183.40625 805.363281 181.351562 809.464844 179.386719 C 811.828125 178.246094 812.921875 176.769531 812.9375 175.871094 C 812.9375 175.707031 812.945312 175.269531 812.136719 174.851562 C 811.964844 174.78125 811.726562 174.746094 811.425781 174.746094 Z M 772.375 215.992188 C 771.660156 215.992188 770.957031 215.8125 770.316406 215.449219 C 767.910156 214.097656 763.722656 210.855469 762.625 204.347656 C 762.363281 202.808594 762.929688 201.222656 764.109375 200.226562 C 765.191406 199.300781 767.015625 197.738281 769.660156 195.421875 C 771.300781 193.984375 773.105469 192.015625 775.019531 189.929688 C 778.507812 186.121094 782.117188 182.183594 785.609375 180.503906 C 785.835938 180.394531 809.0625 170.125 813.414062 172.378906 C 814.902344 173.148438 815.734375 174.441406 815.71875 175.914062 C 815.683594 178.121094 813.75 180.410156 810.664062 181.894531 C 808.59375 182.890625 806.234375 183.894531 804.355469 184.65625 C 805.210938 185.25 806.09375 186.101562 806.886719 187.339844 C 808.542969 189.9375 807.886719 191.785156 807.445312 193.011719 C 807.164062 193.804688 807.191406 193.84375 807.273438 193.953125 C 809.421875 196.796875 808.761719 200.257812 806.914062 201.832031 C 805.09375 203.378906 803.074219 202.957031 801.597656 202.652344 C 799.753906 202.265625 798.832031 202.074219 797.726562 204.191406 C 795.539062 208.402344 790.574219 210.96875 781.109375 212.773438 C 778.847656 213.207031 776.667969 214.070312 774.636719 215.335938 C 773.945312 215.769531 773.15625 215.992188 772.375 215.992188 " fill-opacity="1" fill-rule="nonzero"/><path fill="#f5f0ec" d="M 640.351562 172.679688 L 615.046875 214.609375 C 614.699219 215.089844 610.984375 214.957031 606.792969 215.386719 C 604.839844 215.582031 602.792969 215.878906 601.101562 216.15625 C 599.707031 216.382812 599.3125 218.195312 600.492188 218.972656 L 605.019531 221.976562 C 614.511719 228.265625 625.789062 231.515625 637.152344 230.746094 C 640.308594 230.527344 643.335938 230.023438 646.027344 229.183594 L 655.722656 226.136719 C 657.175781 225.675781 657.167969 223.617188 655.707031 223.175781 L 643.367188 219.433594 L 653.78125 197.324219 L 640.351562 172.679688 " fill-opacity="1" fill-rule="nonzero"/><path fill="#000000" d="M 640.289062 175.46875 L 616.238281 215.328125 C 616.214844 215.359375 616.195312 215.394531 616.171875 215.421875 C 615.578125 216.246094 614.5625 216.296875 611.542969 216.449219 C 610.234375 216.515625 608.601562 216.59375 606.9375 216.761719 C 605.300781 216.933594 603.414062 217.1875 601.324219 217.527344 C 601.285156 217.53125 601.214844 217.542969 601.191406 217.648438 C 601.167969 217.757812 601.226562 217.792969 601.261719 217.8125 L 605.789062 220.816406 C 615.207031 227.050781 626.316406 230.078125 637.0625 229.355469 C 640.234375 229.136719 643.109375 228.632812 645.617188 227.851562 L 655.308594 224.804688 C 655.351562 224.789062 655.417969 224.773438 655.417969 224.652344 C 655.417969 224.535156 655.351562 224.515625 655.300781 224.503906 L 642.964844 220.761719 C 642.578125 220.644531 642.257812 220.367188 642.097656 219.996094 C 641.933594 219.628906 641.9375 219.203125 642.109375 218.835938 L 652.226562 197.367188 Z M 633.910156 232.242188 C 623.621094 232.242188 613.207031 229.0625 604.253906 223.128906 L 599.722656 220.132812 C 598.707031 219.457031 598.214844 218.253906 598.472656 217.066406 C 598.730469 215.875 599.675781 214.976562 600.878906 214.777344 C 603.023438 214.429688 604.964844 214.171875 606.65625 213.996094 C 608.394531 213.820312 610.0625 213.738281 611.402344 213.671875 C 612.421875 213.621094 613.546875 213.5625 614.101562 213.484375 L 639.15625 171.957031 C 639.414062 171.53125 639.882812 171.277344 640.382812 171.289062 C 640.878906 171.296875 641.332031 171.574219 641.570312 172.011719 L 655.007812 196.660156 C 655.21875 197.042969 655.234375 197.515625 655.046875 197.914062 L 645.3125 218.570312 L 656.109375 221.839844 C 657.355469 222.214844 658.191406 223.339844 658.199219 224.640625 C 658.207031 225.933594 657.378906 227.066406 656.136719 227.457031 L 646.449219 230.507812 C 643.730469 231.355469 640.636719 231.898438 637.25 232.128906 C 636.140625 232.207031 635.023438 232.242188 633.910156 232.242188 " fill-opacity="1" fill-rule="nonzero"/><path fill="#f5f0ec" d="M 651.644531 198.183594 C 652.972656 198.359375 654.339844 198.410156 655.746094 198.339844 L 658.242188 198.210938 C 658.242188 198.210938 672.570312 196.3125 674.871094 192.753906 C 677.164062 189.207031 672.308594 176.308594 672.308594 176.308594 C 674.523438 174.585938 675.023438 172.410156 674.546875 171.679688 C 674.074219 170.945312 670.878906 169.828125 669.582031 168.875 C 668.527344 168.101562 666.164062 161.925781 665.144531 159.277344 C 665.144531 159.277344 663.269531 148.808594 646.476562 150.171875 C 608 153.285156 635.664062 188.886719 635.664062 188.886719 C 636.257812 189.578125 636.875 190.242188 637.507812 190.871094 L 651.644531 198.183594 " fill-opacity="1" fill-rule="nonzero"/><path fill="#000000" d="M 654.535156 199.765625 C 652.367188 199.765625 650.234375 199.476562 648.179688 198.902344 C 647.441406 198.695312 647.007812 197.929688 647.210938 197.1875 C 647.417969 196.449219 648.183594 196.019531 648.925781 196.222656 C 651.09375 196.828125 653.367188 197.078125 655.671875 196.957031 L 658.113281 196.828125 C 663.800781 196.066406 672.359375 194.074219 673.695312 192.007812 C 675.019531 189.964844 672.917969 181.886719 671.003906 176.804688 C 670.792969 176.234375 670.972656 175.589844 671.453125 175.214844 C 672.882812 174.105469 673.296875 172.90625 673.316406 172.4375 C 672.941406 172.179688 672.058594 171.761719 671.453125 171.472656 C 670.464844 170.996094 669.441406 170.511719 668.753906 170 C 667.726562 169.25 666.445312 166.570312 663.84375 159.78125 C 663.8125 159.695312 663.789062 159.613281 663.773438 159.527344 C 663.703125 159.164062 661.816406 150.324219 646.585938 151.5625 C 637.234375 152.316406 631.28125 154.980469 628.898438 159.46875 C 624.859375 167.085938 631.382812 178.632812 635.28125 185.527344 L 635.628906 186.148438 C 636.007812 186.816406 635.769531 187.664062 635.101562 188.039062 C 634.433594 188.417969 633.585938 188.183594 633.207031 187.515625 L 632.859375 186.894531 C 628.679688 179.5 621.6875 167.128906 626.441406 158.164062 C 629.296875 152.785156 636.003906 149.628906 646.363281 148.789062 C 663.019531 147.441406 666.117188 157.433594 666.476562 158.871094 C 669.023438 165.523438 670.039062 167.394531 670.449219 167.796875 C 670.878906 168.113281 671.824219 168.566406 672.65625 168.964844 C 674.304688 169.75 675.257812 170.230469 675.710938 170.925781 C 676.550781 172.222656 676.058594 174.683594 673.941406 176.734375 C 675.199219 180.257812 678.332031 189.960938 676.035156 193.515625 C 673.515625 197.410156 660.921875 199.261719 658.425781 199.589844 C 658.386719 199.59375 658.347656 199.597656 658.3125 199.605469 L 655.816406 199.730469 C 655.386719 199.753906 654.957031 199.765625 654.535156 199.765625 " fill-opacity="1" fill-rule="nonzero"/><path fill="#000000" d="M 638.621094 145.621094 C 642.820312 144.792969 647.597656 145.445312 649.640625 144.75 C 652.9375 143.625 652.859375 139.828125 657.507812 139.457031 C 661.597656 139.128906 665.398438 139.890625 667.457031 143.023438 C 667.800781 143.542969 668.101562 144.125 668.34375 144.789062 C 671.5625 153.628906 667.113281 157.894531 665.144531 159.277344 C 665.144531 159.277344 652.683594 165.265625 650.535156 166.984375 C 648.523438 168.59375 646.152344 172.421875 647.445312 177.960938 C 647.609375 178.679688 647.269531 179.414062 646.628906 179.773438 C 645.878906 180.191406 644.921875 179.984375 644.433594 179.277344 C 642.890625 177.046875 639.5 172.726562 636.988281 173.726562 C 634.054688 174.886719 633.058594 182.25 638.445312 184.070312 C 640.105469 184.628906 640.648438 186.800781 639.457031 188.078125 C 638.464844 189.144531 636.949219 189.886719 634.664062 189.304688 C 634.664062 189.304688 621.261719 179.75 619.675781 167.160156 C 618.085938 154.566406 633.039062 146.71875 638.621094 145.621094 " fill-opacity="1" fill-rule="nonzero"/><path fill="#000000" d="M 760.09375 56.566406 L 760.105469 56.566406 Z M 765.074219 55.363281 C 763.601562 55.363281 762.148438 56.058594 761.238281 57.359375 C 760.527344 58.386719 760.253906 59.625 760.476562 60.851562 C 760.695312 62.082031 761.382812 63.148438 762.402344 63.859375 C 764.515625 65.328125 767.429688 64.8125 768.902344 62.695312 C 769.617188 61.671875 769.890625 60.433594 769.667969 59.203125 C 769.449219 57.980469 768.765625 56.90625 767.742188 56.195312 C 766.929688 55.628906 766 55.363281 765.074219 55.363281 Z M 765.058594 67.484375 C 763.546875 67.484375 762.078125 67.027344 760.8125 66.144531 C 759.175781 65.007812 758.089844 63.300781 757.734375 61.339844 C 757.386719 59.382812 757.820312 57.402344 758.953125 55.769531 C 761.296875 52.398438 765.957031 51.566406 769.328125 53.914062 C 770.960938 55.050781 772.054688 56.757812 772.402344 58.714844 C 772.761719 60.675781 772.328125 62.652344 771.183594 64.285156 C 770.050781 65.921875 768.34375 67.015625 766.386719 67.363281 C 765.9375 67.445312 765.5 67.484375 765.058594 67.484375 " fill-opacity="1" fill-rule="nonzero"/><path fill="#000000" d="M 810.042969 75.277344 C 809.648438 75.277344 809.261719 75.109375 808.984375 74.785156 C 808.484375 74.203125 808.558594 73.324219 809.140625 72.828125 L 813.632812 68.996094 C 814.214844 68.5 815.09375 68.570312 815.59375 69.15625 C 816.09375 69.738281 816.019531 70.617188 815.4375 71.117188 L 810.945312 74.945312 C 810.683594 75.164062 810.363281 75.277344 810.042969 75.277344 " fill-opacity="1" fill-rule="nonzero"/><path fill="#000000" d="M 795.851562 87.371094 C 795.460938 87.371094 795.070312 87.203125 794.796875 86.882812 C 794.292969 86.296875 794.363281 85.417969 794.953125 84.917969 L 799.441406 81.09375 C 800.027344 80.59375 800.90625 80.660156 801.398438 81.246094 C 801.898438 81.828125 801.832031 82.707031 801.246094 83.210938 L 796.753906 87.039062 C 796.488281 87.261719 796.167969 87.371094 795.851562 87.371094 " fill-opacity="1" fill-rule="nonzero"/><path fill="#000000" d="M 801.0625 74.558594 C 800.664062 74.558594 800.273438 74.394531 800.003906 74.066406 L 796.167969 69.578125 C 795.671875 68.996094 795.742188 68.113281 796.324219 67.617188 C 796.914062 67.117188 797.789062 67.1875 798.285156 67.769531 L 802.117188 72.265625 C 802.617188 72.847656 802.546875 73.722656 801.964844 74.226562 C 801.703125 74.445312 801.378906 74.558594 801.0625 74.558594 " fill-opacity="1" fill-rule="nonzero"/><path fill="#000000" d="M 813.164062 88.75 C 812.769531 88.75 812.382812 88.578125 812.105469 88.257812 L 808.273438 83.769531 C 807.773438 83.179688 807.84375 82.308594 808.433594 81.808594 C 809.011719 81.308594 809.886719 81.375 810.394531 81.960938 L 814.222656 86.453125 C 814.714844 87.039062 814.648438 87.917969 814.0625 88.417969 C 813.800781 88.636719 813.480469 88.75 813.164062 88.75 " fill-opacity="1" fill-rule="nonzero"/><path fill="#000000" d="M 439.023438 607.890625 C 438.277344 607.890625 437.660156 607.300781 437.632812 606.554688 L 437.410156 600.652344 C 437.378906 599.886719 437.980469 599.238281 438.746094 599.210938 C 439.539062 599.183594 440.160156 599.785156 440.191406 600.546875 L 440.414062 606.449219 C 440.441406 607.214844 439.84375 607.863281 439.074219 607.890625 C 439.054688 607.890625 439.039062 607.890625 439.023438 607.890625 " fill-opacity="1" fill-rule="nonzero"/><path fill="#000000" d="M 439.722656 626.527344 C 438.980469 626.527344 438.363281 625.933594 438.335938 625.1875 L 438.113281 619.292969 C 438.082031 618.523438 438.683594 617.878906 439.449219 617.851562 C 440.242188 617.828125 440.863281 618.417969 440.890625 619.1875 L 441.113281 625.082031 C 441.144531 625.851562 440.542969 626.496094 439.777344 626.527344 C 439.761719 626.527344 439.742188 626.527344 439.722656 626.527344 " fill-opacity="1" fill-rule="nonzero"/><path fill="#000000" d="M 426.992188 614.71875 C 426.25 614.71875 425.632812 614.132812 425.601562 613.382812 C 425.574219 612.617188 426.171875 611.96875 426.941406 611.941406 L 432.839844 611.71875 C 433.621094 611.695312 434.253906 612.289062 434.28125 613.058594 C 434.308594 613.828125 433.710938 614.46875 432.945312 614.496094 L 427.046875 614.71875 C 427.027344 614.71875 427.007812 614.71875 426.992188 614.71875 " fill-opacity="1" fill-rule="nonzero"/><path fill="#000000" d="M 445.632812 614.019531 C 444.886719 614.019531 444.273438 613.429688 444.242188 612.683594 C 444.214844 611.914062 444.8125 611.269531 445.582031 611.238281 L 451.480469 611.015625 C 452.269531 610.996094 452.894531 611.585938 452.921875 612.351562 C 452.949219 613.121094 452.351562 613.765625 451.585938 613.796875 L 445.683594 614.019531 C 445.667969 614.019531 445.648438 614.019531 445.632812 614.019531 " fill-opacity="1" fill-rule="nonzero"/><path fill="#000000" d="M 408.335938 526.652344 C 407.808594 526.652344 407.304688 526.351562 407.070312 525.84375 C 382.46875 472.285156 374.246094 413.058594 383.289062 354.570312 C 385.566406 339.839844 388.941406 325.214844 393.320312 311.085938 C 393.546875 310.355469 394.328125 309.941406 395.058594 310.171875 C 395.792969 310.398438 396.207031 311.175781 395.976562 311.910156 C 391.640625 325.902344 388.292969 340.402344 386.039062 354.992188 C 377.078125 412.945312 385.226562 471.621094 409.597656 524.683594 C 409.917969 525.378906 409.613281 526.207031 408.914062 526.527344 C 408.726562 526.609375 408.527344 526.652344 408.335938 526.652344 " fill-opacity="1" fill-rule="nonzero"/><path fill="#000000" d="M 411.839844 534.011719 C 411.324219 534.011719 410.832031 533.730469 410.589844 533.238281 C 409.390625 530.804688 408.207031 528.316406 407.070312 525.84375 C 406.75 525.144531 407.054688 524.320312 407.753906 524 C 408.449219 523.675781 409.277344 523.984375 409.597656 524.683594 C 410.722656 527.128906 411.898438 529.597656 413.085938 532.007812 C 413.425781 532.695312 413.140625 533.53125 412.453125 533.871094 C 412.253906 533.96875 412.046875 534.011719 411.839844 534.011719 " fill-opacity="1" fill-rule="nonzero"/><path fill="#000000" d="M 394.015625 562.644531 C 393.511719 562.644531 393.023438 562.371094 392.777344 561.890625 C 375.582031 528.308594 364.183594 492.242188 358.902344 454.707031 C 353.441406 415.863281 354.691406 376.433594 362.625 337.5 C 362.78125 336.75 363.511719 336.257812 364.265625 336.414062 C 365.019531 336.566406 365.503906 337.300781 365.351562 338.058594 C 349.921875 413.785156 360.539062 492.828125 395.253906 560.621094 C 395.605469 561.304688 395.332031 562.144531 394.648438 562.492188 C 394.445312 562.597656 394.230469 562.644531 394.015625 562.644531 " fill-opacity="1" fill-rule="nonzero"/><path fill="#000000" d="M 365.25 318.511719 L 373.03125 321.652344 L 373.257812 312.246094 Z M 374.371094 325.085938 C 374.195312 325.085938 374.019531 325.050781 373.851562 324.984375 L 361.972656 320.183594 C 361.515625 320 361.1875 319.582031 361.117188 319.085938 C 361.050781 318.597656 361.246094 318.105469 361.640625 317.800781 L 373.863281 308.238281 C 374.289062 307.910156 374.867188 307.851562 375.34375 308.089844 C 375.828125 308.335938 376.125 308.835938 376.113281 309.371094 L 375.765625 323.726562 C 375.753906 324.1875 375.519531 324.609375 375.136719 324.859375 C 374.90625 325.011719 374.640625 325.085938 374.371094 325.085938 " fill-opacity="1" fill-rule="nonzero"/><path fill="#000000" d="M 781.898438 359.789062 C 781.476562 359.789062 781.054688 359.59375 780.78125 359.226562 C 780.324219 358.609375 780.457031 357.738281 781.074219 357.28125 L 821.609375 327.261719 C 822.222656 326.808594 823.09375 326.933594 823.550781 327.554688 C 824.007812 328.167969 823.878906 329.039062 823.261719 329.496094 L 782.730469 359.515625 C 782.476562 359.699219 782.191406 359.789062 781.898438 359.789062 " fill-opacity="1" fill-rule="nonzero"/><path fill="#000000" d="M 720.707031 306.945312 C 720.28125 306.945312 719.863281 306.753906 719.589844 306.386719 C 719.132812 305.769531 719.261719 304.898438 719.878906 304.4375 L 823.296875 227.851562 C 823.917969 227.394531 824.785156 227.523438 825.246094 228.140625 C 825.703125 228.757812 825.570312 229.628906 824.953125 230.085938 L 721.53125 306.679688 C 721.285156 306.859375 721 306.945312 720.707031 306.945312 " fill-opacity="1" fill-rule="nonzero"/><path fill="#000000" d="M 793.839844 272.496094 C 793.414062 272.496094 792.996094 272.300781 792.722656 271.933594 C 792.265625 271.316406 792.390625 270.445312 793.011719 269.988281 L 847.402344 229.707031 C 848.023438 229.25 848.890625 229.378906 849.351562 230 C 849.804688 230.613281 849.675781 231.484375 849.058594 231.941406 L 794.667969 272.222656 C 794.414062 272.40625 794.121094 272.496094 793.839844 272.496094 " fill-opacity="1" fill-rule="nonzero"/><path fill="#000000" d="M 470.683594 368.253906 C 469.746094 368.253906 468.804688 368.078125 467.902344 367.730469 C 465.941406 366.964844 464.402344 365.472656 463.558594 363.519531 C 461.835938 359.539062 463.625 354.871094 467.535156 353.109375 C 468.238281 352.796875 469.0625 353.109375 469.375 353.808594 C 469.691406 354.511719 469.378906 355.332031 468.675781 355.648438 C 466.140625 356.789062 464.992188 359.824219 466.109375 362.417969 C 466.65625 363.679688 467.648438 364.644531 468.910156 365.136719 C 470.140625 365.617188 471.480469 365.578125 472.683594 365.039062 C 475.21875 363.898438 476.367188 360.867188 475.25 358.269531 C 474.945312 357.566406 475.269531 356.746094 475.972656 356.441406 C 476.679688 356.136719 477.5 356.464844 477.804688 357.167969 C 479.519531 361.148438 477.734375 365.820312 473.824219 367.578125 C 472.816406 368.027344 471.75 368.253906 470.683594 368.253906 " fill-opacity="1" fill-rule="nonzero"/><path fill="#f5f0ec" d="M 544.351562 58.371094 C 558.160156 54.769531 572.277344 63.039062 575.878906 76.839844 C 579.480469 90.648438 571.210938 104.761719 557.402344 108.363281 C 543.59375 111.96875 529.480469 103.691406 525.875 89.890625 C 522.273438 76.085938 530.546875 61.972656 544.351562 58.371094 Z M 499.367188 91.621094 L 501.902344 101.328125 L 512.859375 100.960938 C 513.851562 103.109375 515 105.144531 516.308594 107.046875 L 510.398438 116.265625 L 517.449219 123.40625 L 526.757812 117.609375 C 528.664062 118.953125 530.679688 120.136719 532.785156 121.140625 L 532.273438 132.089844 L 541.949219 134.753906 L 547.105469 125.09375 C 549.40625 125.300781 551.746094 125.3125 554.097656 125.128906 L 559.132812 134.863281 L 568.847656 132.328125 L 568.476562 121.375 C 570.621094 120.386719 572.65625 119.234375 574.5625 117.929688 L 583.78125 123.839844 L 590.925781 116.789062 L 585.128906 107.484375 C 586.46875 105.578125 587.652344 103.558594 588.660156 101.457031 L 599.613281 101.96875 L 602.273438 92.289062 L 592.613281 87.140625 C 592.824219 84.835938 592.832031 82.503906 592.648438 80.144531 L 602.386719 75.113281 L 599.851562 65.40625 L 588.894531 65.769531 C 587.90625 63.625 586.753906 61.589844 585.449219 59.6875 L 591.355469 50.46875 L 584.304688 43.328125 L 574.996094 49.121094 C 573.089844 47.785156 571.074219 46.597656 568.972656 45.59375 L 569.480469 34.644531 L 559.804688 31.980469 L 554.648438 41.640625 C 552.347656 41.433594 550.007812 41.421875 547.65625 41.605469 L 542.621094 31.867188 L 532.910156 34.40625 L 533.277344 45.359375 C 531.132812 46.347656 529.097656 47.5 527.191406 48.800781 L 517.972656 42.894531 L 510.832031 49.945312 L 516.625 59.25 C 515.285156 61.15625 514.101562 63.175781 513.09375 65.277344 L 502.140625 64.765625 L 499.480469 74.445312 L 509.140625 79.59375 C 508.933594 81.894531 508.921875 84.238281 509.105469 86.589844 L 499.367188 91.621094 " fill-opacity="1" fill-rule="nonzero"/><path fill="#000000" d="M 548.960938 62.214844 C 535.917969 65.617188 528.078125 79 531.480469 92.039062 C 534.882812 105.082031 548.269531 112.917969 561.308594 109.519531 C 574.351562 106.117188 582.195312 92.734375 578.792969 79.691406 C 577.140625 73.378906 573.128906 68.078125 567.496094 64.78125 C 561.863281 61.476562 555.28125 60.570312 548.960938 62.214844 Z M 555.140625 113.09375 C 543.050781 113.09375 531.980469 104.972656 528.789062 92.742188 C 525 78.214844 533.734375 63.320312 548.257812 59.527344 C 555.296875 57.6875 562.628906 58.703125 568.902344 62.378906 C 575.179688 66.058594 579.648438 71.957031 581.484375 78.992188 C 583.320312 86.03125 582.304688 93.355469 578.628906 99.632812 C 574.953125 105.902344 569.046875 110.371094 562.011719 112.210938 C 559.714844 112.808594 557.410156 113.09375 555.140625 113.09375 Z M 558.359375 126.238281 C 558.875 126.238281 559.351562 126.527344 559.59375 126.988281 L 564.117188 135.738281 L 571.675781 133.765625 L 571.347656 123.921875 C 571.328125 123.363281 571.648438 122.84375 572.15625 122.613281 C 574.226562 121.65625 576.207031 120.535156 578.035156 119.285156 C 578.496094 118.96875 579.101562 118.957031 579.574219 119.257812 L 587.855469 124.566406 L 593.414062 119.078125 L 588.207031 110.71875 C 587.910156 110.242188 587.929688 109.636719 588.25 109.179688 C 589.542969 107.34375 590.691406 105.382812 591.664062 103.355469 C 591.90625 102.855469 592.429688 102.542969 592.980469 102.566406 L 602.824219 103.027344 L 604.898438 95.496094 L 596.21875 90.863281 C 595.722656 90.601562 595.4375 90.066406 595.488281 89.511719 C 595.6875 87.308594 595.699219 85.03125 595.519531 82.753906 C 595.476562 82.199219 595.769531 81.664062 596.265625 81.410156 L 605.015625 76.890625 L 603.042969 69.328125 L 593.199219 69.65625 C 592.648438 69.667969 592.125 69.363281 591.890625 68.851562 C 590.933594 66.777344 589.8125 64.796875 588.558594 62.96875 C 588.246094 62.507812 588.234375 61.902344 588.535156 61.4375 L 593.84375 53.15625 L 588.355469 47.59375 L 579.992188 52.804688 C 579.519531 53.097656 578.914062 53.082031 578.457031 52.761719 C 576.617188 51.464844 574.65625 50.316406 572.628906 49.34375 C 572.125 49.105469 571.816406 48.585938 571.84375 48.027344 L 572.300781 38.1875 L 564.765625 36.113281 L 560.132812 44.796875 C 559.871094 45.285156 559.339844 45.578125 558.78125 45.523438 C 556.578125 45.324219 554.300781 45.3125 552.023438 45.488281 C 551.460938 45.53125 550.9375 45.238281 550.679688 44.746094 L 546.15625 35.996094 L 538.59375 37.96875 L 538.925781 47.8125 C 538.945312 48.375 538.625 48.882812 538.117188 49.121094 C 536.042969 50.078125 534.066406 51.199219 532.234375 52.449219 C 531.773438 52.765625 531.167969 52.777344 530.699219 52.472656 L 522.417969 47.167969 L 516.855469 52.65625 L 522.066406 61.015625 C 522.363281 61.492188 522.34375 62.089844 522.023438 62.550781 C 520.730469 64.386719 519.582031 66.34375 518.605469 68.375 C 518.367188 68.878906 517.835938 69.179688 517.289062 69.164062 L 507.445312 68.707031 L 505.375 76.238281 L 514.054688 80.871094 C 514.546875 81.132812 514.835938 81.664062 514.785156 82.21875 C 514.585938 84.425781 514.574219 86.703125 514.753906 88.980469 C 514.796875 89.535156 514.5 90.066406 514.003906 90.324219 L 505.253906 94.847656 L 507.226562 102.40625 L 517.074219 102.070312 C 517.632812 102.0625 518.148438 102.371094 518.382812 102.882812 C 519.335938 104.953125 520.460938 106.933594 521.714844 108.757812 C 522.027344 109.21875 522.039062 109.824219 521.738281 110.296875 L 516.429688 118.578125 L 521.917969 124.140625 L 530.28125 118.929688 C 530.753906 118.636719 531.359375 118.652344 531.816406 118.972656 C 533.652344 120.269531 535.613281 121.414062 537.644531 122.390625 C 538.148438 122.628906 538.457031 123.144531 538.429688 123.707031 L 537.972656 133.546875 L 545.503906 135.617188 L 550.136719 126.9375 C 550.398438 126.445312 550.929688 126.160156 551.488281 126.210938 C 553.699219 126.410156 555.972656 126.421875 558.25 126.242188 C 558.285156 126.238281 558.320312 126.238281 558.359375 126.238281 Z M 563.394531 138.753906 C 562.878906 138.753906 562.402344 138.476562 562.15625 138.003906 L 557.539062 129.078125 C 555.734375 129.183594 553.933594 129.171875 552.164062 129.050781 L 547.4375 137.910156 C 547.128906 138.480469 546.464844 138.765625 545.84375 138.589844 L 536.164062 135.933594 C 535.535156 135.757812 535.113281 135.175781 535.144531 134.527344 L 535.609375 124.484375 C 534.011719 123.679688 532.460938 122.765625 530.980469 121.773438 L 522.441406 127.089844 C 521.890625 127.429688 521.175781 127.34375 520.71875 126.882812 L 513.667969 119.742188 C 513.210938 119.277344 513.136719 118.5625 513.484375 118.011719 L 518.902344 109.566406 C 517.933594 108.082031 517.046875 106.511719 516.253906 104.882812 L 506.210938 105.222656 C 505.542969 105.226562 504.980469 104.808594 504.816406 104.183594 L 502.28125 94.472656 C 502.117188 93.847656 502.410156 93.183594 502.988281 92.886719 L 511.917969 88.269531 C 511.8125 86.464844 511.820312 84.664062 511.941406 82.894531 L 503.085938 78.171875 C 502.511719 77.867188 502.226562 77.199219 502.398438 76.574219 L 505.058594 66.894531 C 505.230469 66.269531 505.808594 65.847656 506.464844 65.878906 L 516.507812 66.34375 C 517.316406 64.746094 518.226562 63.195312 519.222656 61.714844 L 513.90625 53.183594 C 513.566406 52.628906 513.648438 51.910156 514.113281 51.453125 L 521.253906 44.40625 C 521.71875 43.949219 522.4375 43.875 522.984375 44.222656 L 531.433594 49.636719 C 532.917969 48.671875 534.488281 47.785156 536.113281 46.992188 L 535.777344 36.953125 C 535.757812 36.300781 536.1875 35.71875 536.816406 35.558594 L 546.527344 33.027344 C 547.160156 32.859375 547.816406 33.152344 548.117188 33.730469 L 552.730469 42.65625 C 554.539062 42.550781 556.339844 42.5625 558.109375 42.679688 L 562.835938 33.828125 C 563.140625 33.253906 563.804688 32.964844 564.429688 33.140625 L 574.109375 35.804688 C 574.734375 35.976562 575.160156 36.558594 575.128906 37.207031 L 574.664062 47.25 C 576.257812 48.054688 577.808594 48.964844 579.292969 49.960938 L 587.828125 44.644531 C 588.382812 44.300781 589.097656 44.390625 589.554688 44.851562 L 596.605469 51.992188 C 597.0625 52.453125 597.136719 53.171875 596.785156 53.722656 L 591.367188 62.167969 C 592.339844 63.652344 593.222656 65.21875 594.019531 66.847656 L 604.0625 66.511719 C 604.730469 66.492188 605.289062 66.925781 605.457031 67.550781 L 607.992188 77.261719 C 608.152344 77.890625 607.859375 78.550781 607.285156 78.847656 L 598.355469 83.464844 C 598.457031 85.269531 598.449219 87.070312 598.332031 88.839844 L 607.1875 93.5625 C 607.757812 93.867188 608.046875 94.535156 607.875 95.15625 L 605.214844 104.835938 C 605.039062 105.460938 604.457031 105.878906 603.804688 105.855469 L 593.761719 105.386719 C 592.957031 106.980469 592.046875 108.535156 591.050781 110.019531 L 596.363281 118.550781 C 596.707031 119.109375 596.621094 119.824219 596.160156 120.277344 L 589.015625 127.328125 C 588.554688 127.78125 587.835938 127.859375 587.289062 127.511719 L 578.839844 122.089844 C 577.351562 123.0625 575.785156 123.949219 574.160156 124.738281 L 574.492188 134.78125 C 574.515625 135.429688 574.082031 136.007812 573.457031 136.175781 L 563.742188 138.707031 C 563.625 138.742188 563.507812 138.753906 563.394531 138.753906 " fill-opacity="1" fill-rule="nonzero"/><path fill="#99b9ff" d="M 411.621094 131.277344 C 435.25 125.113281 459.402344 139.269531 465.566406 162.886719 C 471.734375 186.507812 457.578125 210.65625 433.949219 216.824219 C 410.324219 222.992188 386.171875 208.835938 380.003906 185.210938 C 373.835938 161.589844 387.992188 137.441406 411.621094 131.277344 Z M 334.644531 188.179688 L 338.984375 204.789062 L 357.730469 204.160156 C 359.425781 207.832031 361.394531 211.3125 363.628906 214.574219 L 353.519531 230.34375 L 365.582031 242.566406 L 381.511719 232.648438 C 384.773438 234.945312 388.222656 236.964844 391.820312 238.6875 L 390.949219 257.429688 L 407.511719 261.980469 L 416.332031 245.453125 C 420.269531 245.808594 424.269531 245.832031 428.296875 245.511719 L 436.914062 262.175781 L 453.53125 257.835938 L 452.90625 239.089844 C 456.574219 237.402344 460.054688 235.429688 463.316406 233.199219 L 479.089844 243.304688 L 491.3125 231.242188 L 481.394531 215.316406 C 483.691406 212.050781 485.714844 208.605469 487.4375 205.007812 L 506.179688 205.882812 L 510.734375 189.324219 L 494.203125 180.5 C 494.5625 176.5625 494.578125 172.566406 494.261719 168.539062 L 510.925781 159.925781 L 506.589844 143.308594 L 487.839844 143.9375 C 486.148438 140.273438 484.179688 136.789062 481.941406 133.527344 L 492.054688 117.757812 L 479.988281 105.535156 L 464.0625 115.457031 C 460.796875 113.160156 457.347656 111.136719 453.75 109.410156 L 454.621094 90.671875 L 438.0625 86.121094 L 429.242188 102.644531 C 425.300781 102.289062 421.300781 102.273438 417.273438 102.589844 L 408.65625 85.929688 L 392.039062 90.265625 L 392.667969 109.007812 C 389 110.703125 385.515625 112.671875 382.253906 114.90625 L 366.480469 104.800781 L 354.257812 116.863281 L 364.175781 132.785156 C 361.878906 136.046875 359.859375 139.496094 358.132812 143.09375 L 339.390625 142.222656 L 334.835938 158.78125 L 351.367188 167.597656 C 351.011719 171.535156 350.992188 175.535156 351.308594 179.5625 L 334.644531 188.179688 " fill-opacity="1" fill-rule="nonzero"/><path fill="#000000" d="M 419.261719 136.898438 C 396.414062 142.859375 382.675781 166.292969 388.640625 189.136719 C 391.527344 200.203125 398.554688 209.480469 408.421875 215.261719 C 418.292969 221.046875 429.820312 222.640625 440.890625 219.753906 C 451.957031 216.867188 461.238281 209.839844 467.019531 199.976562 C 472.804688 190.109375 474.398438 178.582031 471.511719 167.515625 C 468.621094 156.445312 461.59375 147.171875 451.726562 141.390625 C 441.859375 135.605469 430.328125 134.007812 419.261719 136.898438 Z M 430.082031 223.921875 C 409.832031 223.929688 391.292969 210.320312 385.949219 189.839844 C 379.597656 165.515625 394.226562 140.554688 418.558594 134.207031 C 430.347656 131.132812 442.625 132.832031 453.132812 138.988281 C 463.644531 145.148438 471.125 155.03125 474.199219 166.8125 C 477.277344 178.597656 475.582031 190.871094 469.421875 201.378906 C 463.261719 211.890625 453.378906 219.371094 441.59375 222.445312 C 437.746094 223.445312 433.882812 223.921875 430.082031 223.921875 Z M 435.589844 248.398438 C 436.105469 248.398438 436.582031 248.6875 436.824219 249.148438 L 444.925781 264.820312 L 459.394531 261.046875 L 458.804688 243.410156 C 458.785156 242.851562 459.105469 242.335938 459.613281 242.101562 C 463.207031 240.445312 466.644531 238.5 469.820312 236.320312 C 470.28125 236.003906 470.886719 236 471.355469 236.296875 L 486.195312 245.808594 L 496.835938 235.308594 L 487.503906 220.328125 C 487.207031 219.855469 487.226562 219.25 487.546875 218.789062 C 489.792969 215.601562 491.789062 212.199219 493.472656 208.683594 C 493.714844 208.179688 494.230469 207.871094 494.792969 207.890625 L 512.425781 208.714844 L 516.386719 194.300781 L 500.839844 186.003906 C 500.347656 185.742188 500.058594 185.210938 500.109375 184.652344 C 500.453125 180.820312 500.476562 176.878906 500.164062 172.921875 C 500.121094 172.363281 500.417969 171.835938 500.914062 171.578125 L 516.589844 163.476562 L 512.8125 149.015625 L 495.175781 149.605469 C 494.628906 149.617188 494.101562 149.300781 493.867188 148.792969 C 492.207031 145.195312 490.257812 141.757812 488.082031 138.589844 C 487.769531 138.125 487.757812 137.523438 488.058594 137.054688 L 497.570312 122.214844 L 487.066406 111.578125 L 472.085938 120.90625 C 471.613281 121.203125 471.007812 121.1875 470.550781 120.867188 C 467.359375 118.617188 463.957031 116.628906 460.4375 114.9375 C 459.933594 114.699219 459.625 114.179688 459.648438 113.621094 L 460.46875 95.996094 L 446.054688 92.027344 L 437.757812 107.574219 C 437.492188 108.070312 436.960938 108.351562 436.402344 108.304688 C 432.574219 107.960938 428.625 107.941406 424.671875 108.253906 C 424.113281 108.292969 423.582031 107.996094 423.328125 107.5 L 415.222656 91.832031 L 400.753906 95.605469 L 401.34375 113.234375 C 401.367188 113.800781 401.046875 114.316406 400.539062 114.546875 C 396.9375 116.210938 393.503906 118.15625 390.332031 120.328125 C 389.867188 120.648438 389.261719 120.652344 388.792969 120.355469 L 373.957031 110.84375 L 363.316406 121.34375 L 372.648438 136.324219 C 372.941406 136.796875 372.925781 137.402344 372.601562 137.855469 C 370.359375 141.046875 368.367188 144.449219 366.675781 147.96875 C 366.433594 148.472656 365.914062 148.785156 365.359375 148.757812 L 347.726562 147.9375 L 343.761719 162.351562 L 359.308594 170.648438 C 359.804688 170.910156 360.089844 171.441406 360.039062 172 C 359.695312 175.828125 359.675781 179.78125 359.984375 183.730469 C 360.027344 184.289062 359.734375 184.8125 359.238281 185.070312 L 343.5625 193.171875 L 347.335938 207.636719 L 364.976562 207.046875 C 365.542969 207.03125 366.050781 207.351562 366.28125 207.855469 C 367.945312 211.453125 369.890625 214.886719 372.066406 218.0625 C 372.382812 218.523438 372.390625 219.128906 372.089844 219.597656 L 362.578125 234.429688 L 373.082031 245.074219 L 388.0625 235.742188 C 388.539062 235.445312 389.140625 235.464844 389.601562 235.785156 C 392.792969 238.03125 396.195312 240.023438 399.710938 241.710938 C 400.214844 241.953125 400.527344 242.472656 400.5 243.03125 L 399.679688 260.65625 L 414.097656 264.625 L 422.394531 249.078125 C 422.65625 248.582031 423.191406 248.292969 423.746094 248.347656 C 427.582031 248.691406 431.527344 248.710938 435.476562 248.398438 C 435.515625 248.398438 435.550781 248.398438 435.589844 248.398438 Z M 444.199219 267.839844 C 443.691406 267.839844 443.210938 267.558594 442.96875 267.089844 L 434.773438 251.238281 C 431.292969 251.46875 427.816406 251.453125 424.417969 251.191406 L 416.027344 266.910156 C 415.722656 267.484375 415.058594 267.769531 414.433594 267.597656 L 397.871094 263.042969 C 397.242188 262.871094 396.820312 262.289062 396.851562 261.636719 L 397.679688 243.8125 C 394.59375 242.285156 391.601562 240.535156 388.757812 238.585938 L 373.609375 248.019531 C 373.054688 248.363281 372.339844 248.277344 371.882812 247.8125 L 359.816406 235.59375 C 359.359375 235.132812 359.285156 234.414062 359.636719 233.867188 L 369.253906 218.867188 C 367.363281 216.03125 365.652344 213.007812 364.152344 209.859375 L 346.320312 210.457031 C 345.644531 210.476562 345.089844 210.046875 344.925781 209.414062 L 340.589844 192.796875 C 340.425781 192.171875 340.71875 191.511719 341.296875 191.214844 L 357.144531 183.019531 C 356.914062 179.539062 356.933594 176.0625 357.195312 172.671875 L 341.472656 164.277344 C 340.898438 163.976562 340.613281 163.308594 340.785156 162.683594 L 345.339844 146.128906 C 345.511719 145.5 346.085938 145.074219 346.746094 145.105469 L 364.574219 145.933594 C 366.101562 142.847656 367.855469 139.859375 369.800781 137.015625 L 360.363281 121.871094 C 360.023438 121.320312 360.105469 120.605469 360.570312 120.144531 L 372.792969 108.082031 C 373.253906 107.628906 373.972656 107.550781 374.519531 107.902344 L 389.523438 117.519531 C 392.359375 115.628906 395.382812 113.917969 398.535156 112.417969 L 397.9375 94.585938 C 397.917969 93.9375 398.347656 93.355469 398.976562 93.195312 L 415.59375 88.859375 C 416.222656 88.691406 416.882812 88.984375 417.183594 89.5625 L 425.378906 105.414062 C 428.859375 105.183594 432.335938 105.199219 435.730469 105.457031 L 444.121094 89.742188 C 444.429688 89.167969 445.089844 88.878906 445.71875 89.054688 L 462.28125 93.605469 C 462.90625 93.78125 463.328125 94.363281 463.300781 95.007812 L 462.46875 112.839844 C 465.558594 114.367188 468.550781 116.117188 471.390625 118.066406 L 486.542969 108.628906 C 487.09375 108.289062 487.808594 108.375 488.265625 108.835938 L 500.332031 121.054688 C 500.789062 121.515625 500.863281 122.238281 500.515625 122.785156 L 490.898438 137.785156 C 492.785156 140.617188 494.496094 143.640625 496 146.792969 L 513.832031 146.195312 C 514.492188 146.167969 515.058594 146.605469 515.222656 147.234375 L 519.5625 163.847656 C 519.726562 164.480469 519.429688 165.140625 518.855469 165.4375 L 503.003906 173.628906 C 503.234375 177.109375 503.21875 180.585938 502.957031 183.980469 L 518.679688 192.371094 C 519.25 192.675781 519.535156 193.339844 519.367188 193.964844 L 514.8125 210.523438 C 514.640625 211.148438 514.054688 211.570312 513.40625 211.539062 L 495.578125 210.71875 C 494.050781 213.796875 492.296875 216.789062 490.347656 219.636719 L 499.785156 234.78125 C 500.128906 235.332031 500.042969 236.046875 499.582031 236.503906 L 487.355469 248.570312 C 486.894531 249.023438 486.175781 249.101562 485.628906 248.75 L 470.625 239.132812 C 467.785156 241.023438 464.765625 242.734375 461.617188 244.234375 L 462.210938 262.066406 C 462.234375 262.714844 461.800781 263.292969 461.171875 263.457031 L 444.554688 267.792969 C 444.4375 267.824219 444.316406 267.839844 444.199219 267.839844 " fill-opacity="1" fill-rule="nonzero"/><path fill="#5479f7" d="M 1059.890625 794.238281 L 869.824219 794.238281 C 858.414062 794.238281 849.878906 783.769531 852.179688 772.597656 L 881.015625 632.449219 C 883.441406 620.667969 893.8125 612.207031 905.847656 612.207031 L 1068.882812 612.207031 L 1059.890625 794.238281 " fill-opacity="1" fill-rule="nonzero"/><path fill="#000000" d="M 905.847656 613.597656 C 894.527344 613.597656 884.65625 621.644531 882.375 632.730469 L 853.539062 772.878906 C 852.527344 777.792969 853.769531 782.84375 856.9375 786.730469 C 860.109375 790.621094 864.804688 792.851562 869.824219 792.851562 L 1058.566406 792.851562 L 1067.425781 613.597656 Z M 1059.890625 795.632812 L 869.824219 795.632812 C 863.96875 795.632812 858.484375 793.027344 854.78125 788.484375 C 851.082031 783.949219 849.632812 778.054688 850.816406 772.320312 L 879.648438 632.171875 C 882.199219 619.796875 893.210938 610.816406 905.847656 610.816406 L 1068.886719 610.816406 C 1069.261719 610.816406 1069.625 610.972656 1069.894531 611.246094 C 1070.152344 611.527344 1070.292969 611.898438 1070.269531 612.277344 L 1061.285156 794.3125 C 1061.246094 795.050781 1060.636719 795.632812 1059.890625 795.632812 " fill-opacity="1" fill-rule="nonzero"/><path fill="#99b9ff" d="M 1084.222656 794.238281 L 1047.339844 794.238281 C 1035.9375 794.238281 1027.394531 783.769531 1029.691406 772.597656 L 1061.453125 618.238281 C 1062.179688 614.726562 1065.269531 612.210938 1068.855469 612.210938 L 1078.339844 612.210938 C 1082.269531 612.210938 1085.542969 615.226562 1085.859375 619.144531 L 1098.855469 778.371094 C 1099.550781 786.921875 1092.804688 794.238281 1084.222656 794.238281 " fill-opacity="1" fill-rule="nonzero"/><path fill="#000000" d="M 1068.851562 613.597656 C 1065.941406 613.597656 1063.402344 615.667969 1062.820312 618.515625 L 1031.054688 772.878906 C 1030.050781 777.792969 1031.285156 782.84375 1034.457031 786.730469 C 1037.628906 790.621094 1042.328125 792.851562 1047.34375 792.851562 L 1084.226562 792.851562 C 1087.984375 792.851562 1091.457031 791.328125 1094 788.570312 C 1096.542969 785.808594 1097.78125 782.226562 1097.472656 778.484375 L 1084.484375 619.257812 C 1084.222656 616.085938 1081.523438 613.597656 1078.339844 613.597656 Z M 1084.226562 795.632812 L 1047.34375 795.632812 C 1041.484375 795.632812 1036 793.027344 1032.304688 788.484375 C 1028.601562 783.949219 1027.152344 778.054688 1028.335938 772.320312 L 1060.09375 617.953125 C 1060.945312 613.820312 1064.632812 610.816406 1068.851562 610.816406 L 1078.339844 610.816406 C 1082.960938 610.816406 1086.875 614.425781 1087.253906 619.03125 L 1100.242188 778.261719 C 1100.605469 782.71875 1099.078125 787.164062 1096.046875 790.457031 C 1093.011719 793.746094 1088.703125 795.632812 1084.226562 795.632812 " fill-opacity="1" fill-rule="nonzero"/><path fill="#000000" d="M 1023.316406 687.167969 L 889.488281 687.167969 C 888.71875 687.167969 888.09375 686.542969 888.09375 685.773438 C 888.09375 685.007812 888.71875 684.382812 889.488281 684.382812 L 1023.316406 684.382812 C 1027.097656 684.382812 1030.351562 681.8125 1031.222656 678.132812 L 1044.339844 622.769531 C 1044.519531 622.015625 1045.269531 621.558594 1046.015625 621.734375 C 1046.757812 621.910156 1047.222656 622.65625 1047.046875 623.410156 L 1033.929688 678.773438 C 1032.761719 683.71875 1028.394531 687.167969 1023.316406 687.167969 " fill-opacity="1" fill-rule="nonzero"/><path fill="#f5f0ec" d="M 976.554688 685.773438 L 972.386719 702.585938 C 971.714844 705.429688 969.171875 707.4375 966.25 707.4375 L 936.777344 707.4375 C 933.566406 707.4375 931.242188 704.378906 932.101562 701.289062 L 936.421875 685.773438 L 976.554688 685.773438 " fill-opacity="1" fill-rule="nonzero"/><path fill="#000000" d="M 937.480469 687.167969 L 933.441406 701.664062 C 933.148438 702.714844 933.359375 703.816406 934.019531 704.683594 C 934.683594 705.554688 935.683594 706.050781 936.777344 706.050781 L 966.25 706.050781 C 968.539062 706.050781 970.507812 704.492188 971.035156 702.269531 L 974.78125 687.167969 Z M 966.25 708.832031 L 936.777344 708.832031 C 934.808594 708.832031 932.996094 707.933594 931.804688 706.367188 C 930.613281 704.796875 930.234375 702.8125 930.761719 700.917969 L 935.082031 685.40625 C 935.246094 684.800781 935.792969 684.382812 936.417969 684.382812 L 976.554688 684.382812 C 976.980469 684.382812 977.382812 684.582031 977.65625 684.917969 C 977.914062 685.257812 978.007812 685.695312 977.90625 686.109375 L 973.738281 702.921875 C 972.914062 706.390625 969.839844 708.832031 966.25 708.832031 " fill-opacity="1" fill-rule="nonzero"/><path fill="#f5f0ec" d="M 1039.089844 611.269531 L 1042.507812 593.714844 C 1044.09375 582.707031 1038.273438 576.5625 1029.898438 576.5625 L 953.019531 576.5625 C 944.644531 576.5625 936.710938 585.335938 935.304688 593.714844 L 931.878906 611.269531 L 944.222656 611.269531 L 947.203125 596.328125 C 948.300781 589.8125 952.28125 586.511719 958.800781 586.511719 L 1023.535156 586.511719 C 1030.0625 586.511719 1030.824219 589.8125 1029.726562 596.328125 L 1026.746094 611.269531 L 1039.089844 611.269531 " fill-opacity="1" fill-rule="nonzero"/><path fill="#000000" d="M 1028.4375 609.875 L 1037.941406 609.875 L 1041.148438 593.449219 C 1041.859375 588.453125 1040.976562 584.3125 1038.5625 581.53125 C 1036.535156 579.191406 1033.542969 577.957031 1029.894531 577.957031 L 953.019531 577.957031 C 945.203125 577.957031 937.945312 586.398438 936.671875 593.941406 L 933.5625 609.875 L 943.074219 609.875 L 945.835938 596.058594 C 947.042969 588.917969 951.523438 585.121094 958.800781 585.121094 L 1023.539062 585.121094 C 1026.695312 585.121094 1028.773438 585.839844 1030.082031 587.378906 C 1031.960938 589.601562 1031.679688 593.105469 1031.097656 596.5625 Z M 1039.085938 612.660156 L 1026.746094 612.660156 C 1026.328125 612.660156 1025.933594 612.472656 1025.667969 612.152344 C 1025.398438 611.832031 1025.292969 611.402344 1025.378906 610.996094 L 1028.363281 596.058594 C 1028.988281 592.328125 1028.867188 590.253906 1027.953125 589.175781 C 1027.230469 588.320312 1025.789062 587.902344 1023.539062 587.902344 L 958.800781 587.902344 C 952.902344 587.902344 949.558594 590.738281 948.574219 596.5625 L 945.582031 611.542969 C 945.449219 612.195312 944.878906 612.660156 944.214844 612.660156 L 931.875 612.660156 C 931.457031 612.660156 931.0625 612.476562 930.796875 612.15625 C 930.535156 611.835938 930.425781 611.414062 930.507812 611.003906 L 933.9375 593.449219 C 935.382812 584.824219 943.589844 575.171875 953.019531 575.171875 L 1029.894531 575.171875 C 1034.304688 575.171875 1038.128906 576.785156 1040.667969 579.710938 C 1043.617188 583.121094 1044.734375 588.023438 1043.890625 593.90625 L 1040.453125 611.535156 C 1040.320312 612.1875 1039.75 612.660156 1039.085938 612.660156 " fill-opacity="1" fill-rule="nonzero"/><path fill="#99b9ff" d="M 1024.789062 573.660156 L 959.78125 573.660156 C 957.164062 573.660156 954.679688 575.777344 954.238281 578.398438 L 953.285156 584.078125 C 952.84375 586.695312 954.609375 588.816406 957.226562 588.816406 L 1022.234375 588.816406 C 1024.851562 588.816406 1027.335938 586.695312 1027.773438 584.078125 L 1028.734375 578.398438 C 1029.171875 575.777344 1027.410156 573.660156 1024.789062 573.660156 " fill-opacity="1" fill-rule="nonzero"/><path fill="#000000" d="M 959.789062 575.050781 C 957.847656 575.050781 955.941406 576.691406 955.609375 578.628906 L 954.652344 584.308594 C 954.507812 585.175781 954.699219 585.972656 955.1875 586.554688 C 955.664062 587.117188 956.390625 587.429688 957.230469 587.429688 L 1022.234375 587.429688 C 1024.167969 587.429688 1026.074219 585.785156 1026.40625 583.84375 L 1027.363281 578.167969 C 1027.507812 577.300781 1027.316406 576.5 1026.828125 575.921875 C 1026.347656 575.355469 1025.625 575.050781 1024.789062 575.050781 Z M 1022.234375 590.210938 L 957.230469 590.210938 C 955.558594 590.210938 954.082031 589.550781 953.070312 588.351562 C 952.039062 587.132812 951.628906 585.535156 951.910156 583.84375 L 952.867188 578.167969 C 953.429688 574.859375 956.464844 572.265625 959.789062 572.265625 L 1024.789062 572.265625 C 1026.457031 572.265625 1027.933594 572.925781 1028.945312 574.125 C 1029.976562 575.339844 1030.386719 576.941406 1030.101562 578.628906 L 1029.148438 584.308594 C 1028.59375 587.617188 1025.550781 590.210938 1022.234375 590.210938 " fill-opacity="1" fill-rule="nonzero"/><path fill="#caddff" d="M 1046.992188 773.488281 C 1046.503906 773.488281 1046.039062 773.234375 1045.78125 772.785156 C 1045.402344 772.117188 1045.632812 771.269531 1046.300781 770.890625 L 1071.074219 756.773438 L 1071.074219 632.765625 C 1071.074219 632 1071.703125 631.375 1072.472656 631.375 C 1073.238281 631.375 1073.863281 632 1073.863281 632.765625 L 1073.863281 757.582031 C 1073.863281 758.078125 1073.589844 758.542969 1073.160156 758.789062 L 1047.679688 773.300781 C 1047.457031 773.429688 1047.222656 773.488281 1046.992188 773.488281 " fill-opacity="1" fill-rule="nonzero"/></svg>