<svg xmlns="http://www.w3.org/2000/svg" xmlns:xlink="http://www.w3.org/1999/xlink" width="1920" zoomAndPan="magnify" viewBox="0 0 1440 809.999993" height="1080" preserveAspectRatio="xMidYMid meet" version="1.0"><path fill="#caddff" d="M 399.671875 352.878906 C 426.417969 243.921875 379.601562 214.410156 407.390625 154.5625 C 450.148438 62.488281 637.375 21.90625 760.039062 38.464844 C 910.273438 58.742188 1056.496094 169.464844 1082.066406 336.929688 C 1109.390625 515.875 994.65625 683.382812 835.464844 750.644531 C 774.550781 776.382812 700.710938 788.101562 629.25 784.632812 C 619.539062 784.160156 608.992188 780.953125 599.40625 779.917969 C 591.894531 779.105469 585.304688 780.578125 577.914062 779.417969 C 556.558594 776.066406 535.777344 771.246094 516.019531 764.929688 C 506.890625 762.007812 500.917969 753.019531 492.269531 749.453125 C 482.445312 745.414062 470.023438 746.703125 460.941406 741.816406 C 433.445312 727.03125 409.640625 708.378906 391.3125 685.730469 C 381.796875 673.964844 330.886719 609.164062 335.863281 524.230469 C 339.972656 454.03125 378.472656 439.246094 399.671875 352.878906 " fill-opacity="1" fill-rule="nonzero"/><path fill="#000000" d="M 552.46875 578.621094 L 906.34375 578.621094 C 911.738281 578.621094 916.574219 575.386719 918.507812 570.492188 L 1086.261719 146.710938 C 1087.925781 142.488281 1087.109375 138.105469 1084.699219 134.820312 C 1082.378906 131.660156 1075.675781 122.324219 1075.675781 122.324219 L 720.226562 129.515625 C 714.832031 129.515625 710 132.75 708.070312 137.644531 L 534.042969 563.484375 C 534.042969 563.484375 539.554688 570.484375 542.257812 573.816406 C 544.601562 576.699219 548.230469 578.621094 552.46875 578.621094 " fill-opacity="1" fill-rule="nonzero"/><path fill="#ffffff" d="M 543.863281 565.996094 L 897.742188 565.996094 C 903.136719 565.996094 907.972656 562.761719 909.898438 557.867188 L 1076.597656 135.28125 C 1079.871094 126.988281 1073.574219 118.085938 1064.445312 118.085938 L 710.5625 118.085938 C 705.171875 118.085938 700.335938 121.316406 698.40625 126.214844 L 531.707031 548.796875 C 528.4375 557.085938 534.730469 565.996094 543.863281 565.996094 " fill-opacity="1" fill-rule="nonzero"/><path fill="#000000" d="M 710.558594 119.449219 C 705.761719 119.449219 701.382812 122.367188 699.671875 126.714844 L 532.972656 549.296875 C 531.613281 552.738281 532.035156 556.480469 534.128906 559.554688 C 536.292969 562.734375 539.933594 564.632812 543.863281 564.632812 L 897.742188 564.632812 C 902.542969 564.632812 906.917969 561.714844 908.632812 557.367188 L 1075.328125 134.785156 C 1076.683594 131.339844 1076.269531 127.601562 1074.171875 124.523438 C 1072.007812 121.347656 1068.367188 119.449219 1064.441406 119.449219 Z M 897.742188 567.355469 L 543.863281 567.355469 C 539.03125 567.355469 534.554688 565.011719 531.878906 561.085938 C 529.273438 557.253906 528.746094 552.597656 530.441406 548.300781 L 697.136719 125.714844 C 699.261719 120.339844 704.652344 116.730469 710.558594 116.730469 L 1064.441406 116.730469 C 1069.269531 116.730469 1073.75 119.070312 1076.421875 122.996094 C 1079.03125 126.828125 1079.558594 131.488281 1077.863281 135.785156 L 911.164062 558.363281 C 909.046875 563.742188 903.652344 567.355469 897.742188 567.355469 " fill-opacity="1" fill-rule="nonzero"/><path fill="#ffffff" d="M 514.351562 539.652344 L 868.230469 539.652344 C 873.621094 539.652344 878.453125 536.421875 880.386719 531.523438 L 1047.085938 108.9375 C 1050.355469 100.648438 1044.0625 91.742188 1034.929688 91.742188 L 681.046875 91.742188 C 675.65625 91.742188 670.824219 94.980469 668.890625 99.871094 L 502.195312 522.457031 C 498.921875 530.746094 505.21875 539.652344 514.351562 539.652344 " fill-opacity="1" fill-rule="nonzero"/><path fill="#000000" d="M 681.046875 93.105469 C 676.25 93.105469 671.871094 96.023438 670.160156 100.371094 L 503.460938 522.953125 C 502.101562 526.402344 502.523438 530.136719 504.617188 533.210938 C 506.785156 536.394531 510.421875 538.289062 514.351562 538.289062 L 868.230469 538.289062 C 873.03125 538.289062 877.40625 535.375 879.121094 531.023438 L 1045.816406 108.441406 C 1047.175781 105 1046.753906 101.257812 1044.660156 98.183594 C 1042.5 95.007812 1038.855469 93.105469 1034.929688 93.105469 Z M 868.230469 541.011719 L 514.351562 541.011719 C 509.519531 541.011719 505.039062 538.667969 502.367188 534.742188 C 499.757812 530.910156 499.234375 526.253906 500.929688 521.957031 L 667.628906 99.375 C 669.75 93.996094 675.140625 90.386719 681.046875 90.386719 L 1034.929688 90.386719 C 1039.757812 90.386719 1044.238281 92.726562 1046.910156 96.652344 C 1049.523438 100.484375 1050.046875 105.144531 1048.351562 109.441406 L 881.652344 532.019531 C 879.535156 537.402344 874.136719 541.011719 868.230469 541.011719 " fill-opacity="1" fill-rule="nonzero"/><path fill="#99b9ff" d="M 543.398438 514.390625 L 855.199219 514.390625 C 859.949219 514.390625 864.214844 511.542969 865.914062 507.234375 L 1012.792969 134.890625 C 1015.671875 127.585938 1010.125 119.742188 1002.078125 119.742188 L 690.277344 119.742188 C 685.527344 119.742188 681.265625 122.589844 679.566406 126.902344 L 532.6875 499.246094 C 529.808594 506.546875 535.351562 514.390625 543.398438 514.390625 " fill-opacity="1" fill-rule="nonzero"/><path fill="#ffffff" d="M 825.648438 367.296875 L 685.773438 367.296875 C 671.296875 367.296875 661.363281 352.738281 666.640625 339.265625 C 669.726562 331.394531 677.320312 326.21875 685.773438 326.21875 L 825.648438 326.21875 C 840.121094 326.21875 850.0625 340.777344 844.777344 354.246094 C 841.695312 362.121094 834.101562 367.296875 825.648438 367.296875 " fill-opacity="1" fill-rule="nonzero"/><path fill="#ffffff" d="M 749.75 247.390625 L 850.890625 247.390625 C 853.4375 247.390625 855.496094 245.332031 855.496094 242.792969 C 855.496094 240.25 853.4375 238.1875 850.890625 238.1875 L 749.75 238.1875 C 747.210938 238.1875 745.148438 240.25 745.148438 242.792969 C 745.148438 245.332031 747.210938 247.390625 749.75 247.390625 " fill-opacity="1" fill-rule="nonzero"/><path fill="#ffffff" d="M 706.503906 270.75 L 860.304688 270.75 C 862.851562 270.75 864.910156 268.6875 864.910156 266.144531 C 864.910156 263.605469 862.851562 261.542969 860.304688 261.542969 L 706.503906 261.542969 C 703.957031 261.542969 701.898438 263.605469 701.898438 266.144531 C 701.898438 268.6875 703.957031 270.75 706.503906 270.75 " fill-opacity="1" fill-rule="nonzero"/><path fill="#ffffff" d="M 718.789062 294.691406 L 819.925781 294.691406 C 822.472656 294.691406 824.53125 292.632812 824.53125 290.09375 C 824.53125 287.550781 822.472656 285.488281 819.925781 285.488281 L 718.789062 285.488281 C 716.246094 285.488281 714.1875 287.550781 714.1875 290.09375 C 714.1875 292.632812 716.246094 294.691406 718.789062 294.691406 " fill-opacity="1" fill-rule="nonzero"/><path fill="#000000" d="M 855.347656 515.144531 L 820.730469 515.144531 C 819.984375 515.144531 819.367188 514.53125 819.367188 513.78125 C 819.367188 513.03125 819.984375 512.425781 820.730469 512.425781 L 855.347656 512.425781 C 859.507812 512.425781 863.300781 509.894531 864.789062 506.121094 L 901.226562 413.761719 C 901.5 413.0625 902.289062 412.722656 902.988281 413 C 903.6875 413.273438 904.027344 414.058594 903.757812 414.757812 L 867.320312 507.125 C 865.425781 511.917969 860.613281 515.144531 855.347656 515.144531 " fill-opacity="1" fill-rule="nonzero"/><path fill="#000000" d="M 650.871094 201.550781 C 650.699219 201.550781 650.53125 201.519531 650.367188 201.453125 C 649.671875 201.179688 649.324219 200.386719 649.605469 199.6875 L 673.890625 138.574219 C 674.164062 137.875 674.957031 137.535156 675.65625 137.8125 C 676.355469 138.089844 676.695312 138.878906 676.417969 139.578125 L 652.132812 200.691406 C 651.917969 201.226562 651.410156 201.550781 650.871094 201.550781 " fill-opacity="1" fill-rule="nonzero"/><path fill="#000000" d="M 979.191406 221.1875 C 979.019531 221.1875 978.855469 221.152344 978.6875 221.09375 C 977.992188 220.816406 977.644531 220.023438 977.925781 219.324219 L 1011.667969 133.785156 C 1012.84375 130.796875 1012.476562 127.558594 1010.664062 124.898438 C 1008.789062 122.140625 1005.628906 120.488281 1002.21875 120.488281 L 719.949219 120.488281 C 719.195312 120.488281 718.582031 119.882812 718.582031 119.128906 C 718.582031 118.378906 719.195312 117.773438 719.949219 117.773438 L 1002.21875 117.773438 C 1006.527344 117.773438 1010.527344 119.863281 1012.910156 123.367188 C 1015.246094 126.789062 1015.710938 130.949219 1014.195312 134.777344 L 980.453125 220.324219 C 980.242188 220.855469 979.734375 221.1875 979.191406 221.1875 " fill-opacity="1" fill-rule="nonzero"/><path fill="#000000" d="M 789.246094 329.484375 L 787.320312 327.5625 L 798.660156 316.226562 L 800.585938 318.148438 L 789.246094 329.484375 " fill-opacity="1" fill-rule="nonzero"/><path fill="#000000" d="M 798.660156 377.1875 L 787.320312 365.855469 L 789.246094 363.929688 L 800.585938 375.265625 L 798.660156 377.1875 " fill-opacity="1" fill-rule="nonzero"/><path fill="#000000" d="M 750.9375 329.484375 L 739.597656 318.148438 L 741.523438 316.226562 L 752.863281 327.5625 L 750.9375 329.484375 " fill-opacity="1" fill-rule="nonzero"/><path fill="#000000" d="M 773.941406 357.855469 L 772.796875 355.390625 C 776.539062 353.652344 778.964844 349.863281 778.964844 345.734375 C 778.964844 339.859375 774.179688 335.082031 768.308594 335.082031 C 764.765625 335.082031 761.460938 336.839844 759.476562 339.78125 L 757.222656 338.257812 C 759.710938 334.566406 763.859375 332.363281 768.308594 332.363281 C 775.683594 332.363281 781.683594 338.359375 781.683594 345.734375 C 781.683594 350.910156 778.648438 355.675781 773.941406 357.855469 " fill-opacity="1" fill-rule="nonzero"/><path fill="#ffffff" d="M 783.300781 163.167969 C 797.394531 142.628906 822.210938 133.441406 838.730469 142.648438 C 855.257812 151.847656 857.230469 175.960938 843.136719 196.496094 C 842.257812 197.78125 841.332031 199.015625 840.375 200.210938 C 825.980469 218.109375 812.242188 212.03125 796.753906 203.40625 C 788.335938 198.714844 774.648438 203.761719 773.984375 193.773438 C 773.34375 184.167969 776.398438 173.238281 783.300781 163.167969 " fill-opacity="1" fill-rule="nonzero"/><path fill="#5479f7" d="M 773.992188 193.78125 C 774.660156 203.761719 779.285156 212.324219 787.707031 217.015625 C 803.199219 225.640625 825.976562 218.109375 840.375 200.21875 C 817.519531 179.433594 786.382812 188.773438 773.992188 193.78125 " fill-opacity="1" fill-rule="nonzero"/><path fill="#000000" d="M 827.09375 175.679688 L 834.183594 166.410156 C 836.859375 162.902344 837.246094 158.480469 835.128906 155.554688 C 834.519531 154.703125 831.367188 154.304688 828.886719 154.011719 C 827.132812 153.804688 825.679688 152.867188 824.84375 151.40625 L 823.722656 149.449219 C 822.265625 148.097656 820.132812 147.558594 817.921875 148.136719 C 817.160156 148.332031 816.40625 148.621094 815.667969 149.003906 L 814.945312 149.382812 C 811.503906 151.179688 809.039062 154.691406 808.695312 158.324219 L 807.632812 170.769531 L 827.09375 175.679688 " fill-opacity="1" fill-rule="nonzero"/><path fill="#ffffff" d="M 824.320312 159.085938 L 811.972656 158.6875 L 805.238281 175.832031 C 803.871094 178.980469 804.46875 181.914062 806.152344 183.441406 L 803.855469 188.730469 C 802.292969 192.300781 803.699219 195.894531 806.988281 196.746094 C 810.269531 197.605469 814.199219 195.398438 815.753906 191.824219 L 819.097656 184.152344 C 822.628906 182.546875 825.675781 179.304688 827.355469 175.457031 L 830.09375 169.160156 C 832.574219 163.453125 831.144531 160.148438 824.320312 159.085938 " fill-opacity="1" fill-rule="nonzero"/><path fill="#000000" d="M 808.488281 198.292969 C 807.863281 198.292969 807.25 198.21875 806.644531 198.0625 C 804.816406 197.585938 803.367188 196.40625 802.554688 194.738281 C 801.613281 192.808594 801.632812 190.417969 802.613281 188.183594 L 804.84375 183.058594 C 805.140625 182.367188 805.945312 182.054688 806.632812 182.351562 C 807.316406 182.65625 807.636719 183.453125 807.335938 184.144531 L 805.105469 189.269531 C 804.449219 190.78125 804.40625 192.335938 805 193.546875 C 805.464844 194.5 806.273438 195.15625 807.332031 195.425781 C 809.949219 196.109375 813.234375 194.210938 814.511719 191.277344 L 817.851562 183.601562 C 818.152344 182.917969 818.953125 182.601562 819.636719 182.90625 C 820.328125 183.199219 820.648438 184.003906 820.347656 184.691406 L 817.003906 192.363281 C 815.445312 195.949219 811.9375 198.292969 808.488281 198.292969 " fill-opacity="1" fill-rule="nonzero"/><path fill="#000000" d="M 812.933594 160.375 L 807.160156 174.152344 C 806.058594 176.699219 805.4375 180.054688 806.527344 181.855469 C 807.003906 182.65625 807.816406 183.085938 809 183.175781 C 809.035156 183.175781 809.066406 183.179688 809.101562 183.183594 L 813.265625 183.789062 C 818.742188 183.738281 823.777344 180.261719 826.105469 174.910156 L 828.84375 168.617188 C 829.960938 166.0625 829.988281 163.761719 828.933594 162.308594 C 827.988281 161.015625 826.222656 160.457031 823.824219 160.695312 C 823.761719 160.699219 823.699219 160.703125 823.644531 160.699219 Z M 813.171875 186.511719 C 813.105469 186.511719 813.039062 186.507812 812.972656 186.5 L 808.75 185.886719 C 806.164062 185.671875 804.84375 184.34375 804.191406 183.261719 C 802.496094 180.449219 803.324219 176.164062 804.664062 173.089844 L 810.785156 158.464844 C 811.003906 157.945312 811.539062 157.613281 812.078125 157.628906 L 823.640625 157.980469 C 826.964844 157.671875 829.625 158.640625 831.128906 160.710938 C 832.773438 162.957031 832.84375 166.238281 831.34375 169.703125 L 828.605469 175.992188 C 825.828125 182.371094 819.769531 186.496094 813.171875 186.511719 " fill-opacity="1" fill-rule="nonzero"/><path fill="#000000" d="M 579.890625 523.347656 C 582.183594 504.765625 580.867188 507.613281 580.867188 507.613281 L 502.941406 512.199219 C 502.941406 512.199219 495.839844 560.46875 495.398438 563.761719 C 495.027344 566.546875 476 664.5625 460.949219 741.800781 C 478.027344 750.984375 496.527344 758.679688 516.023438 764.914062 C 530.4375 732.582031 545.914062 693.492188 556.773438 654.230469 C 565.324219 688.921875 573.730469 738.15625 577.914062 779.417969 C 594.742188 782.058594 611.921875 783.789062 629.246094 784.632812 C 640.035156 714.085938 650.566406 600.871094 623.785156 525.203125 L 579.890625 523.347656 " fill-opacity="1" fill-rule="nonzero"/><path fill="#caddff" d="M 558.339844 668.074219 C 557.6875 668.074219 557.113281 667.601562 557 666.9375 C 554.042969 649.519531 546.261719 627.15625 540.445312 615.601562 C 533.539062 601.867188 532.78125 587.820312 532.28125 578.523438 C 532.242188 577.773438 532.816406 577.132812 533.566406 577.09375 C 534.304688 577.058594 534.957031 577.628906 535 578.378906 C 535.488281 587.449219 536.226562 601.15625 542.878906 614.378906 C 548.78125 626.113281 556.683594 648.8125 559.683594 666.484375 C 559.808594 667.222656 559.308594 667.921875 558.570312 668.050781 C 558.492188 668.066406 558.414062 668.074219 558.339844 668.074219 " fill-opacity="1" fill-rule="nonzero"/><path fill="#ffffff" d="M 639.59375 285.632812 L 639.285156 284.660156 C 638.175781 281.1875 637.773438 277.539062 637.9375 273.898438 C 638.09375 270.550781 638.640625 264.4375 637.457031 262.515625 C 634.128906 257.113281 621.230469 234.335938 598.402344 244.445312 C 580.605469 252.324219 581.917969 280.070312 582.851562 289.484375 C 583.066406 291.664062 582.746094 293.859375 581.929688 295.890625 C 581.886719 295.996094 581.839844 296.101562 581.789062 296.207031 L 571.183594 317.933594 C 569.652344 321.097656 570.285156 324.878906 572.761719 327.375 L 574.125 328.746094 C 577.125 332.265625 583.773438 334.011719 588.320312 334.417969 C 591.632812 334.714844 594.15625 334.417969 596.613281 333.132812 C 598.949219 331.910156 599.890625 330.359375 600.585938 327.785156 C 600.585938 327.785156 606.09375 309.527344 608.304688 310.941406 C 615.742188 315.6875 619.710938 314.957031 624.332031 309.542969 C 627.230469 306.144531 631.089844 300.796875 633.878906 292.769531 C 634.167969 291.933594 634.746094 291.230469 635.496094 290.757812 L 638.703125 288.738281 C 639.597656 287.980469 639.953125 286.75 639.59375 285.632812 " fill-opacity="1" fill-rule="nonzero"/><path fill="#000000" d="M 609.679688 243.246094 C 606.40625 243.246094 602.832031 243.972656 598.953125 245.691406 C 582.464844 252.992188 583.144531 278.65625 584.199219 289.355469 C 584.4375 291.730469 584.085938 294.171875 583.191406 296.402344 C 583.136719 296.542969 583.074219 296.675781 583.007812 296.804688 L 572.402344 318.53125 C 571.128906 321.164062 571.660156 324.335938 573.722656 326.421875 L 575.089844 327.792969 C 575.113281 327.820312 575.136719 327.847656 575.15625 327.867188 C 577.71875 330.875 583.675781 332.644531 588.4375 333.066406 C 591.699219 333.351562 593.886719 333.023438 595.980469 331.929688 C 597.8125 330.972656 598.609375 329.882812 599.269531 327.433594 C 601.15625 321.183594 604.699219 310.617188 607.363281 309.632812 C 607.9375 309.417969 608.53125 309.480469 609.035156 309.800781 C 616.351562 314.472656 619.460938 313.15625 623.292969 308.664062 C 627.40625 303.851562 630.445312 298.507812 632.589844 292.328125 C 632.976562 291.21875 633.75 290.25 634.769531 289.609375 L 637.882812 287.652344 C 638.316406 287.242188 638.480469 286.621094 638.292969 286.046875 L 637.988281 285.078125 C 636.871094 281.578125 636.394531 277.796875 636.574219 273.839844 C 636.601562 273.371094 636.628906 272.855469 636.660156 272.296875 C 636.8125 269.582031 637.09375 264.527344 636.296875 263.230469 L 635.9375 262.648438 C 632.714844 257.355469 624.113281 243.246094 609.679688 243.246094 Z M 590.496094 335.882812 C 589.773438 335.882812 589.011719 335.847656 588.195312 335.773438 C 583.289062 335.339844 576.40625 333.480469 573.121094 329.671875 L 571.792969 328.332031 C 568.914062 325.4375 568.179688 321.015625 569.953125 317.34375 L 580.566406 295.613281 C 580.601562 295.539062 580.636719 295.460938 580.667969 295.386719 C 581.402344 293.5625 581.6875 291.570312 581.492188 289.621094 C 580.378906 278.335938 579.738281 251.222656 597.851562 243.207031 C 613.226562 236.394531 626.824219 242.460938 638.261719 261.230469 L 638.613281 261.808594 C 639.765625 263.679688 639.648438 267.566406 639.378906 272.449219 C 639.347656 273 639.320312 273.507812 639.296875 273.964844 C 639.128906 277.601562 639.5625 281.0625 640.578125 284.25 L 640.890625 285.222656 C 641.417969 286.871094 640.902344 288.664062 639.574219 289.777344 C 639.535156 289.820312 639.480469 289.859375 639.421875 289.890625 L 636.21875 291.914062 C 635.722656 292.226562 635.347656 292.6875 635.160156 293.222656 C 632.902344 299.722656 629.699219 305.351562 625.367188 310.429688 C 620.238281 316.429688 615.519531 316.996094 608.097656 312.421875 C 606.679688 314.121094 603.863281 321.625 601.882812 328.175781 C 601.1875 330.773438 600.125 332.832031 597.242188 334.34375 C 595.230469 335.390625 593.132812 335.882812 590.496094 335.882812 " fill-opacity="1" fill-rule="nonzero"/><path fill="#000000" d="M 625.796875 231.242188 C 631.605469 234.234375 634.222656 239.691406 637.417969 240.546875 C 649.003906 243.648438 654.5 249.671875 650.464844 259.492188 C 643.742188 275.839844 623.402344 268.46875 619.160156 268.511719 C 615.1875 268.546875 608.625 270.9375 604.757812 278.886719 C 604.257812 279.914062 603.128906 280.484375 602.011719 280.308594 C 600.707031 280.109375 599.773438 278.941406 599.878906 277.617188 C 600.214844 273.441406 600.386719 264.972656 596.414062 263.785156 C 591.425781 262.300781 583.570312 273.890625 590.707031 281.753906 C 592.898438 284.167969 592.855469 288.285156 590.476562 290.605469 C 588.925781 292.117188 585.621094 292.804688 582.769531 291.382812 C 581.03125 290.515625 580.0625 288.773438 579.441406 286.933594 C 576.867188 279.339844 573.53125 253.273438 582.160156 239.335938 C 592.558594 222.546875 618.058594 227.265625 625.796875 231.242188 " fill-opacity="1" fill-rule="nonzero"/><path fill="#000000" d="M 608.222656 312.253906 C 607.972656 312.253906 607.71875 312.1875 607.488281 312.039062 C 602.125 308.601562 598.78125 303.414062 596.917969 299.667969 C 596.585938 298.996094 596.859375 298.179688 597.53125 297.847656 C 598.203125 297.507812 599.019531 297.785156 599.355469 298.457031 C 601.0625 301.894531 604.117188 306.648438 608.957031 309.75 C 609.589844 310.152344 609.777344 310.996094 609.367188 311.628906 C 609.109375 312.035156 608.671875 312.253906 608.222656 312.253906 " fill-opacity="1" fill-rule="nonzero"/><path fill="#ffffff" d="M 462.988281 622.578125 L 347.632812 589.242188 C 346.140625 588.804688 345.277344 587.246094 345.710938 585.753906 L 366.222656 514.84375 C 366.65625 513.34375 368.21875 512.488281 369.710938 512.917969 L 485.066406 546.257812 C 486.558594 546.691406 487.421875 548.25 486.988281 549.746094 L 466.476562 620.660156 C 466.042969 622.152344 464.480469 623.011719 462.988281 622.578125 " fill-opacity="1" fill-rule="nonzero"/><path fill="#000000" d="M 371.257812 514.976562 C 369.148438 514.976562 367.199219 516.363281 366.585938 518.488281 L 347.960938 582.863281 C 347.601562 584.109375 347.75 585.421875 348.375 586.558594 C 349.003906 587.695312 350.035156 588.519531 351.28125 588.882812 L 460.09375 620.328125 C 462.667969 621.070312 465.371094 619.585938 466.117188 617.007812 L 484.738281 552.636719 C 485.097656 551.390625 484.953125 550.078125 484.324219 548.941406 C 483.695312 547.804688 482.664062 546.976562 481.417969 546.617188 L 372.605469 515.171875 C 372.15625 515.039062 371.703125 514.976562 371.257812 514.976562 Z M 461.441406 623.242188 C 460.746094 623.242188 460.039062 623.140625 459.339844 622.941406 L 350.527344 591.492188 C 348.582031 590.925781 346.972656 589.644531 345.992188 587.871094 C 345.015625 586.097656 344.789062 584.050781 345.351562 582.105469 L 363.972656 517.730469 C 365.132812 513.71875 369.34375 511.394531 373.359375 512.558594 L 482.171875 544.007812 C 484.117188 544.570312 485.726562 545.855469 486.707031 547.628906 C 487.683594 549.398438 487.914062 551.445312 487.351562 553.390625 L 468.730469 617.765625 C 467.769531 621.078125 464.730469 623.242188 461.441406 623.242188 " fill-opacity="1" fill-rule="nonzero"/><path fill="#ffffff" d="M 364.519531 522.507812 L 365.203125 523.738281 C 371.109375 534.398438 381 542.28125 392.707031 545.660156 L 448.941406 561.917969 C 460.679688 565.308594 473.289062 563.902344 483.992188 558.003906 L 364.519531 522.507812 " fill-opacity="1" fill-rule="nonzero"/><path fill="#000000" d="M 461.804688 565.109375 C 457.378906 565.109375 452.929688 564.484375 448.5625 563.222656 L 392.328125 546.96875 C 380.191406 543.460938 370.136719 535.445312 364.015625 524.402344 L 363.332031 523.167969 C 362.96875 522.507812 363.203125 521.683594 363.863281 521.320312 C 364.519531 520.953125 365.347656 521.195312 365.710938 521.847656 L 366.394531 523.085938 C 372.164062 533.496094 381.644531 541.050781 393.085938 544.355469 L 449.316406 560.613281 C 460.792969 563.929688 472.875 562.578125 483.332031 556.808594 C 483.992188 556.449219 484.816406 556.6875 485.183594 557.347656 C 485.542969 558.003906 485.304688 558.828125 484.648438 559.191406 C 477.53125 563.117188 469.710938 565.109375 461.804688 565.109375 " fill-opacity="1" fill-rule="nonzero"/><path fill="#000000" d="M 421.792969 567.949219 L 412.769531 565.339844 L 418.855469 544.289062 L 427.882812 546.902344 L 421.792969 567.949219 " fill-opacity="1" fill-rule="nonzero"/><path fill="#ffffff" d="M 738.0625 382.019531 C 738.0625 382.019531 735.359375 361.800781 745.09375 354.777344 C 752.464844 349.457031 763.191406 346.140625 767.355469 344.910156 C 768.5625 344.546875 770.8125 344.804688 771.328125 345.957031 C 771.328125 345.957031 772.265625 348.132812 769.144531 349.605469 L 760.148438 353.363281 C 759.300781 353.757812 759.175781 354.902344 759.914062 355.480469 C 762.179688 357.230469 766.304688 362.105469 766.964844 364.757812 C 768.078125 369.1875 765.707031 373.121094 761.476562 376.742188 C 757.25 380.367188 756.140625 381.054688 755.941406 382.019531 C 755.738281 382.984375 755.640625 386.808594 755.640625 386.808594 L 738.0625 382.019531 " fill-opacity="1" fill-rule="nonzero"/><path fill="#000000" d="M 739.316406 380.953125 L 754.339844 385.042969 C 754.394531 383.835938 754.480469 382.363281 754.609375 381.738281 C 754.863281 380.542969 755.6875 379.847656 758.132812 377.792969 C 758.804688 377.230469 759.613281 376.550781 760.59375 375.714844 C 764.867188 372.050781 766.523438 368.574219 765.648438 365.085938 C 765.113281 362.960938 761.378906 358.328125 759.082031 356.550781 C 758.359375 355.992188 757.984375 355.113281 758.082031 354.207031 C 758.183594 353.296875 758.742188 352.519531 759.570312 352.128906 L 768.625 348.351562 C 770.476562 347.472656 770.085938 346.5 770.082031 346.488281 C 769.890625 346.238281 768.570312 345.96875 767.742188 346.210938 C 758.214844 349.035156 750.859375 352.285156 745.886719 355.882812 C 738.042969 361.542969 738.953125 377.066406 739.316406 380.953125 Z M 755.640625 388.164062 C 755.523438 388.164062 755.398438 388.152344 755.285156 388.121094 L 737.703125 383.332031 C 737.179688 383.1875 736.789062 382.742188 736.714844 382.199219 C 736.601562 381.34375 734.023438 361.089844 744.296875 353.671875 C 749.515625 349.902344 757.148438 346.519531 766.964844 343.605469 C 768.695312 343.09375 771.679688 343.4375 772.566406 345.394531 C 773.082031 346.59375 773.128906 349.230469 769.726562 350.835938 L 760.898438 354.523438 C 763.148438 356.332031 767.5 361.273438 768.285156 364.425781 C 769.433594 369.011719 767.496094 373.378906 762.363281 377.777344 C 761.375 378.621094 760.558594 379.308594 759.886719 379.878906 C 758.457031 381.070312 757.332031 382.019531 757.273438 382.296875 C 757.152344 382.878906 757.042969 385.304688 757 386.84375 C 756.988281 387.257812 756.785156 387.648438 756.449219 387.898438 C 756.214844 388.074219 755.929688 388.164062 755.640625 388.164062 " fill-opacity="1" fill-rule="nonzero"/><path fill="#ffffff" d="M 411.597656 505.957031 L 406.277344 514.15625 C 404.632812 516.6875 403.78125 519.65625 403.832031 522.675781 L 426.480469 528.917969 C 426.480469 528.917969 428.894531 541.164062 433.84375 541.730469 C 440.273438 542.464844 436.003906 535.125 435.816406 533.109375 C 435.632812 531.089844 435.835938 524.148438 434.664062 517.890625 C 433.496094 511.628906 428.445312 504.554688 428.445312 504.554688 L 411.597656 505.957031 " fill-opacity="1" fill-rule="nonzero"/><path fill="#000000" d="M 405.214844 521.644531 L 426.839844 527.609375 C 427.335938 527.746094 427.714844 528.152344 427.8125 528.65625 C 428.742188 533.335938 431.273438 540.066406 433.996094 540.378906 C 434.933594 540.488281 435.617188 540.390625 435.835938 540.117188 C 436.414062 539.394531 435.523438 536.789062 435.097656 535.53125 C 434.773438 534.589844 434.519531 533.839844 434.460938 533.230469 C 434.410156 532.648438 434.386719 531.734375 434.359375 530.574219 C 434.28125 527.410156 434.167969 522.621094 433.328125 518.140625 C 432.421875 513.289062 428.984375 507.804688 427.769531 505.976562 L 412.378906 507.253906 L 407.417969 514.894531 C 406.097656 516.929688 405.34375 519.246094 405.214844 521.644531 Z M 434.671875 543.136719 C 434.359375 543.136719 434.03125 543.117188 433.6875 543.082031 C 428.570312 542.496094 426.019531 533.074219 425.324219 530.007812 L 403.472656 523.988281 C 402.890625 523.824219 402.484375 523.300781 402.472656 522.699219 C 402.417969 519.394531 403.335938 516.1875 405.136719 513.417969 L 410.460938 505.210938 C 410.6875 504.859375 411.066406 504.632812 411.488281 504.597656 L 428.335938 503.203125 C 428.816406 503.160156 429.277344 503.375 429.554688 503.765625 C 429.769531 504.0625 434.789062 511.15625 436.003906 517.640625 C 436.878906 522.335938 437.003906 527.453125 437.078125 530.507812 C 437.105469 531.613281 437.128906 532.488281 437.171875 532.984375 C 437.199219 533.269531 437.449219 534.007812 437.671875 534.652344 C 438.429688 536.886719 439.472656 539.9375 437.953125 541.820312 C 437.246094 542.699219 436.148438 543.136719 434.671875 543.136719 " fill-opacity="1" fill-rule="nonzero"/><path fill="#5479f7" d="M 758.144531 387.101562 C 754.03125 378.75 740.996094 380.054688 735.625 381.566406 C 735.070312 381.722656 734.582031 382.066406 734.226562 382.527344 C 726.871094 392.078125 720.320312 397.152344 714.808594 399.871094 C 709.019531 402.726562 702.082031 401.851562 697.035156 397.820312 C 676.429688 381.355469 641.671875 352.925781 641.671875 352.925781 C 630.023438 346.394531 619.011719 341.242188 608.667969 337.222656 C 600.488281 321.09375 593.855469 319.453125 578.726562 316.269531 C 575.3125 315.546875 572.375 315.234375 569.894531 315.164062 C 564.136719 315.007812 558.644531 317.59375 555.003906 322.050781 L 552.894531 324.632812 C 522.402344 323.152344 502.945312 335.890625 499.871094 338.054688 C 465.050781 362.558594 477.796875 371.074219 444.433594 406.386719 C 411.070312 441.699219 409.109375 503.488281 409.109375 503.488281 C 409.101562 513.484375 423.132812 511.839844 430.414062 510.3125 C 432.878906 509.796875 434.699219 507.730469 434.917969 505.226562 C 435.371094 500.03125 514.492188 359.429688 502.433594 469.558594 C 501.007812 482.570312 502.984375 504.847656 498.742188 516.414062 C 494.222656 528.738281 499.453125 542.671875 511.171875 548.59375 C 529.75 557.988281 558.648438 556.097656 569 555.222656 C 584.753906 553.882812 601.847656 552.550781 615.195312 546.945312 C 620.925781 544.542969 627.253906 539.582031 631.023438 536.355469 C 633.121094 534.566406 634.121094 531.8125 633.671875 529.089844 C 632.054688 519.273438 628.429688 494.054688 629.589844 471.105469 C 630.484375 453.554688 634.402344 437.0625 636.003906 430.933594 C 636.324219 429.695312 637.746094 429.117188 638.835938 429.792969 C 648.164062 435.585938 685.933594 457.117188 714.5625 445.308594 C 754.617188 428.785156 759.488281 389.832031 758.144531 387.101562 " fill-opacity="1" fill-rule="nonzero"/><path fill="#caddff" d="M 851.523438 743.0625 L 855.800781 730.824219 C 869.632812 700.046875 900.140625 680.144531 933.890625 679.878906 L 965.65625 679.628906 C 972.570312 679.578125 979.414062 678.691406 986.046875 677.023438 C 988.527344 676.398438 992.28125 687.851562 994.703125 687.007812 C 997.554688 686.015625 999.058594 672.683594 1001.800781 671.394531 C 1005.421875 669.6875 1008.933594 667.726562 1012.308594 665.515625 L 1050.390625 640.574219 C 1055.429688 637.269531 1061.632812 642.675781 1059.046875 648.121094 L 1042.859375 682.195312 C 1028.710938 711.992188 999.449219 730.234375 968.167969 731.449219 C 964.40625 731.589844 963.394531 719.648438 959.597656 719.292969 C 957.046875 719.054688 951.710938 730.539062 949.160156 730.066406 C 944.9375 729.285156 940.726562 728.179688 936.550781 726.726562 C 905.183594 712.679688 851.523438 743.0625 851.523438 743.0625 " fill-opacity="1" fill-rule="nonzero"/><path fill="#ffffff" d="M 879.976562 723.6875 C 879.542969 723.6875 879.117188 723.484375 878.855469 723.097656 C 878.429688 722.480469 878.585938 721.632812 879.207031 721.210938 C 895.601562 709.996094 914.714844 704.378906 934.492188 704.957031 C 938.574219 705.074219 942.714844 705.425781 946.71875 705.769531 C 948.558594 705.921875 950.378906 706.078125 952.160156 706.210938 C 984.316406 708.554688 1005.265625 700.117188 1026.875 676.140625 C 1032.078125 670.367188 1044.898438 657.140625 1045.023438 657.011719 C 1045.546875 656.472656 1046.410156 656.457031 1046.953125 656.980469 C 1047.488281 657.503906 1047.503906 658.367188 1046.976562 658.902344 C 1046.851562 659.035156 1034.0625 672.222656 1028.894531 677.964844 C 1006.644531 702.648438 985.078125 711.332031 951.960938 708.925781 C 950.167969 708.792969 948.339844 708.636719 946.488281 708.480469 C 942.519531 708.140625 938.417969 707.789062 934.417969 707.671875 C 915.230469 707.113281 896.65625 712.570312 880.75 723.453125 C 880.507812 723.617188 880.242188 723.6875 879.976562 723.6875 " fill-opacity="1" fill-rule="nonzero"/><path fill="#ffffff" d="M 851.855469 742.210938 L 861.273438 698.949219 C 870.082031 658.496094 892.132812 622.175781 923.890625 595.699219 C 925.457031 594.390625 927.761719 594.480469 929.191406 595.941406 L 933.9375 600.789062 C 937.007812 598.324219 934.550781 586.816406 937.289062 584.050781 C 957.09375 564.03125 967.820312 536.503906 966.503906 508.023438 C 966.207031 501.585938 974.917969 499.320312 977.800781 505.082031 L 989.121094 527.703125 C 997.082031 543.625 999.378906 560.972656 996.699219 577.382812 C 996.316406 579.730469 986.515625 581.15625 985.9375 583.460938 C 985.355469 585.730469 993.996094 588.875 993.230469 591.085938 C 987.054688 608.882812 974.734375 624.609375 957.296875 634.8125 C 933.582031 648.691406 912.597656 666.773438 895.367188 688.167969 L 851.855469 742.210938 " fill-opacity="1" fill-rule="nonzero"/><path fill="#caddff" d="M 961.621094 596.460938 C 961.363281 596.460938 961.097656 596.386719 960.863281 596.230469 C 960.238281 595.816406 960.070312 594.96875 960.488281 594.347656 C 974.269531 573.738281 978.03125 548.65625 971.988281 517.65625 C 971.847656 516.917969 972.328125 516.207031 973.0625 516.0625 C 973.808594 515.917969 974.519531 516.402344 974.664062 517.136719 C 980.847656 548.871094 976.949219 574.621094 962.75 595.855469 C 962.492188 596.25 962.058594 596.460938 961.621094 596.460938 " fill-opacity="1" fill-rule="nonzero"/><path fill="#caddff" d="M 874.066406 697.707031 C 873.964844 697.707031 873.851562 697.695312 873.746094 697.664062 C 873.015625 697.488281 872.566406 696.753906 872.746094 696.023438 C 872.835938 695.640625 882.621094 656.988281 925.578125 627.019531 C 933.609375 621.410156 944.617188 613.738281 953.933594 602.941406 C 954.425781 602.375 955.28125 602.308594 955.847656 602.800781 C 956.421875 603.289062 956.480469 604.152344 955.992188 604.71875 C 946.449219 615.769531 935.285156 623.5625 927.132812 629.25 C 885.015625 658.636719 875.480469 696.285156 875.386719 696.664062 C 875.238281 697.285156 874.679688 697.707031 874.066406 697.707031 " fill-opacity="1" fill-rule="nonzero"/><path fill="#ffffff" d="M 375.003906 418.6875 C 375.003906 418.6875 372.859375 307.9375 426.140625 244.390625 C 431.15625 238.410156 432.25 233.804688 438.316406 229.265625 C 441.597656 226.8125 450.835938 232.785156 452.179688 231 C 453.234375 229.597656 449.667969 214.101562 450.699219 212.710938 C 479.222656 174.125 496.320312 141.855469 505.460938 124.085938 C 507.492188 120.140625 513.34375 120.890625 514.3125 125.21875 C 518.472656 143.851562 524.3125 180.832031 516.472656 218.765625 C 515.613281 222.933594 505.195312 221.640625 503.984375 225.808594 C 503.132812 228.734375 511.582031 237.117188 510.542969 240.023438 C 504.402344 257.175781 495.765625 274.839844 480.390625 288.40625 C 416.085938 345.167969 375.003906 418.6875 375.003906 418.6875 " fill-opacity="1" fill-rule="nonzero"/><path fill="#caddff" d="M 425.300781 304.429688 C 424.941406 304.429688 424.582031 304.285156 424.316406 304.007812 C 423.796875 303.460938 423.820312 302.601562 424.363281 302.085938 C 463.050781 265.234375 482.800781 226.019531 492.558594 199.609375 C 503.136719 170.980469 504.578125 150.804688 504.59375 150.605469 C 504.644531 149.855469 505.289062 149.292969 506.039062 149.339844 C 506.789062 149.390625 507.359375 150.039062 507.304688 150.785156 C 507.292969 150.992188 505.839844 171.472656 495.152344 200.445312 C 485.296875 227.152344 465.34375 266.804688 426.238281 304.054688 C 425.976562 304.300781 425.636719 304.429688 425.300781 304.429688 " fill-opacity="1" fill-rule="nonzero"/><path fill="#ffffff" d="M 842.917969 661.714844 L 838.546875 669.863281 C 831.867188 682.316406 823.421875 693.726562 813.484375 703.746094 C 812.710938 704.53125 812.890625 709.011719 813.128906 712.210938 C 813.285156 714.328125 811.089844 715.820312 809.1875 714.875 C 806.988281 713.785156 804.660156 712.382812 803.527344 713.578125 C 789.523438 728.390625 778.742188 745.996094 771.914062 765.269531 L 769.550781 771.953125 C 787.324219 767.742188 804.566406 762.558594 821.003906 756.394531 L 839.554688 717.632812 C 845.476562 705.246094 849.628906 692.09375 851.886719 678.554688 L 854.0625 665.511719 C 855.171875 658.855469 846.109375 655.765625 842.917969 661.714844 " fill-opacity="1" fill-rule="nonzero"/><path fill="#000000" d="M 734.445312 651.570312 C 732.222656 651.570312 730.40625 653.382812 730.40625 655.605469 C 730.40625 657.835938 732.222656 659.644531 734.445312 659.644531 C 736.675781 659.644531 738.484375 657.835938 738.484375 655.605469 C 738.484375 653.382812 736.675781 651.570312 734.445312 651.570312 Z M 734.445312 662.367188 C 730.71875 662.367188 727.6875 659.332031 727.6875 655.605469 C 727.6875 651.882812 730.71875 648.851562 734.445312 648.851562 C 738.171875 648.851562 741.207031 651.882812 741.207031 655.605469 C 741.207031 659.332031 738.171875 662.367188 734.445312 662.367188 " fill-opacity="1" fill-rule="nonzero"/><path fill="#000000" d="M 390.171875 118.492188 C 386.125 118.492188 382.828125 121.785156 382.828125 125.835938 C 382.828125 129.882812 386.125 133.175781 390.171875 133.175781 C 394.222656 133.175781 397.519531 129.882812 397.519531 125.835938 C 397.519531 121.785156 394.222656 118.492188 390.171875 118.492188 Z M 390.171875 135.894531 C 384.625 135.894531 380.109375 131.378906 380.109375 125.835938 C 380.109375 120.289062 384.625 115.773438 390.171875 115.773438 C 395.722656 115.773438 400.238281 120.289062 400.238281 125.835938 C 400.238281 131.378906 395.722656 135.894531 390.171875 135.894531 " fill-opacity="1" fill-rule="nonzero"/><path fill="#000000" d="M 384.234375 161.792969 C 381.742188 161.792969 379.714844 163.820312 379.714844 166.308594 C 379.714844 168.804688 381.742188 170.828125 384.234375 170.828125 C 386.726562 170.828125 388.753906 168.804688 388.753906 166.308594 C 388.753906 163.820312 386.726562 161.792969 384.234375 161.792969 Z M 384.234375 173.542969 C 380.242188 173.542969 376.996094 170.300781 376.996094 166.308594 C 376.996094 162.324219 380.242188 159.078125 384.234375 159.078125 C 388.226562 159.078125 391.472656 162.324219 391.472656 166.308594 C 391.472656 170.300781 388.226562 173.542969 384.234375 173.542969 " fill-opacity="1" fill-rule="nonzero"/><path fill="#000000" d="M 988.878906 460.578125 C 988.707031 460.578125 988.535156 460.546875 988.375 460.480469 C 987.675781 460.207031 987.335938 459.414062 987.613281 458.714844 L 1020.328125 376.628906 C 1020.605469 375.9375 1021.394531 375.597656 1022.09375 375.871094 C 1022.792969 376.152344 1023.132812 376.945312 1022.855469 377.644531 L 990.144531 459.722656 C 989.929688 460.253906 989.417969 460.578125 988.878906 460.578125 " fill-opacity="1" fill-rule="nonzero"/><path fill="#000000" d="M 590.652344 197.175781 C 590.484375 197.175781 590.3125 197.148438 590.148438 197.082031 C 589.449219 196.804688 589.109375 196.015625 589.386719 195.3125 L 622.097656 113.234375 C 622.378906 112.535156 623.171875 112.195312 623.871094 112.476562 C 624.566406 112.753906 624.910156 113.542969 624.628906 114.242188 L 591.917969 196.320312 C 591.703125 196.855469 591.191406 197.175781 590.652344 197.175781 " fill-opacity="1" fill-rule="nonzero"/><path fill="#000000" d="M 1008.386719 487.824219 C 1008.21875 487.824219 1008.046875 487.792969 1007.882812 487.726562 C 1007.183594 487.453125 1006.84375 486.660156 1007.121094 485.960938 L 1021.691406 449.394531 C 1021.972656 448.695312 1022.769531 448.355469 1023.464844 448.636719 C 1024.160156 448.910156 1024.503906 449.703125 1024.222656 450.398438 L 1009.648438 486.96875 C 1009.441406 487.5 1008.925781 487.824219 1008.386719 487.824219 " fill-opacity="1" fill-rule="nonzero"/><path fill="#000000" d="M 560.136719 213.984375 C 559.96875 213.984375 559.800781 213.953125 559.632812 213.890625 C 558.9375 213.609375 558.597656 212.820312 558.875 212.121094 L 573.449219 175.554688 C 573.726562 174.859375 574.519531 174.519531 575.214844 174.796875 C 575.914062 175.074219 576.253906 175.863281 575.976562 176.558594 L 561.402344 213.128906 C 561.1875 213.660156 560.679688 213.984375 560.136719 213.984375 " fill-opacity="1" fill-rule="nonzero"/><path fill="#000000" d="M 784.757812 635.464844 C 784.589844 635.464844 784.421875 635.433594 784.257812 635.367188 C 783.554688 635.09375 783.21875 634.300781 783.496094 633.605469 L 816.207031 551.523438 C 816.484375 550.828125 817.277344 550.488281 817.976562 550.761719 C 818.675781 551.042969 819.015625 551.832031 818.734375 552.53125 L 786.023438 634.609375 C 785.808594 635.144531 785.300781 635.464844 784.757812 635.464844 " fill-opacity="1" fill-rule="nonzero"/><path fill="#000000" d="M 684.128906 633.898438 C 683.957031 633.898438 683.785156 633.867188 683.617188 633.796875 C 682.921875 633.515625 682.585938 632.722656 682.867188 632.023438 L 698.617188 593.320312 C 698.898438 592.621094 699.695312 592.289062 700.390625 592.574219 C 701.082031 592.855469 701.421875 593.648438 701.136719 594.34375 L 685.390625 633.050781 C 685.175781 633.582031 684.664062 633.898438 684.128906 633.898438 " fill-opacity="1" fill-rule="nonzero"/><path fill="#000000" d="M 435.503906 84.070312 C 435.097656 84.070312 434.691406 83.914062 434.382812 83.601562 C 433.761719 82.984375 433.761719 81.980469 434.382812 81.363281 L 437.964844 77.777344 C 438.585938 77.160156 439.589844 77.160156 440.210938 77.777344 C 440.828125 78.402344 440.828125 79.402344 440.210938 80.023438 L 436.625 83.601562 C 436.316406 83.914062 435.910156 84.070312 435.503906 84.070312 " fill-opacity="1" fill-rule="nonzero"/><path fill="#000000" d="M 420.425781 99.144531 C 420.019531 99.144531 419.609375 98.984375 419.300781 98.679688 C 418.683594 98.058594 418.683594 97.054688 419.300781 96.433594 L 422.886719 92.855469 C 423.503906 92.234375 424.507812 92.234375 425.128906 92.855469 C 425.75 93.472656 425.75 94.476562 425.128906 95.097656 L 421.546875 98.679688 C 421.234375 98.984375 420.828125 99.144531 420.425781 99.144531 " fill-opacity="1" fill-rule="nonzero"/><path fill="#000000" d="M 439.085938 99.144531 C 438.679688 99.144531 438.273438 98.984375 437.964844 98.679688 L 434.382812 95.097656 C 433.761719 94.476562 433.761719 93.472656 434.382812 92.855469 C 435 92.234375 436.003906 92.234375 436.625 92.855469 L 440.210938 96.433594 C 440.828125 97.054688 440.828125 98.058594 440.210938 98.679688 C 439.898438 98.984375 439.492188 99.144531 439.085938 99.144531 " fill-opacity="1" fill-rule="nonzero"/><path fill="#000000" d="M 424.007812 84.070312 C 423.601562 84.070312 423.195312 83.914062 422.886719 83.601562 L 419.300781 80.023438 C 418.683594 79.402344 418.683594 78.402344 419.300781 77.777344 C 419.921875 77.160156 420.925781 77.160156 421.546875 77.777344 L 425.128906 81.363281 C 425.75 81.980469 425.75 82.984375 425.128906 83.601562 C 424.820312 83.914062 424.414062 84.070312 424.007812 84.070312 " fill-opacity="1" fill-rule="nonzero"/></svg>