<?xml version="1.0" encoding="utf-8"?>
<!-- Generator: Adobe Illustrator 23.0.1, SVG Export Plug-In . SVG Version: 6.00 Build 0)  -->
<svg version="1.1" id="logo_empreguei_xA0_Imagem_1_"
	 xmlns="http://www.w3.org/2000/svg" xmlns:xlink="http://www.w3.org/1999/xlink" x="0px" y="0px" viewBox="0 0 1920 1080"
	 style="enable-background:new 0 0 1920 1080;" xml:space="preserve">
<style type="text/css">
	.st0{stroke:#000000;stroke-width:5;stroke-miterlimit:10;}
</style>
<g>
	<path  fill="#fff" class="st0" d="M1065.63,682.21c0.26-0.09,1.06-0.33,1.55,0.07c0.18,0.15,0.44,0.52,0.33,1.63
		c-0.03,0.36-1.98,6.03-5.85,11.29c-4.36,5.93-3.56,5.16-6.57,8.44c-4.56,4.98-3.88,4.77-9.94,10.14
		c-3.71,3.29-13.33,10.74-26.39,17.22c-33.07,16.4-69.51,11.04-82.83,8.99c-46.22-7.12-75.7-31.26-94.18-70.49
		c-12.48-26.48-16.54-64.03-7.54-98.27s31.07-65.16,74.86-82.38c7.93-3.12,24.6-9.36,46.97-10.13c9.18-0.32,15.99,0.53,17.78,0.77
		c22.35,2.95,37.36,11.72,40.42,13.47c21.02,12.02,34.95,31.81,33.05,59.91c-1.64,24.14-15.3,39.1-36.2,48.29
		c-23.91,10.53-48.63,11.35-73.59,3.77c-3.37-1.02-6.21-1.79-6.42-7.03c0.21-6.15,9.04-6.69,14.3-7.82
		c16.95-3.64,31.73-10.15,40.65-26.1c6.81-12.17-2.24-24.66-17.1-26.59c-47.66-6.19-83.72,43.35-87.01,76.53
		c0,0-8.58,36.35,12.05,73.75c3.71,6.73,10.96,14.87,10.96,14.87c6.33,7.12,11.09,9.77,14.85,11.77c6.95,3.68,12.7,6.21,17.7,7.51
		c16.5,4.29,29.19,3.84,38.98,3.45c10.18-0.41,17.36-1.65,20.03-2.13c4.49-0.8,9-1.97,16.12-4c9.11-2.6,16.58-6.1,22.87-10.08
		c3.04-1.92,8.34-5.04,13.48-9.67l8.39-7.85C1059.63,688.88,1063.33,684.89,1065.63,682.21z"/>
	<path fill="#fff" class="st0" d="M1006.36,400.48c-0.08,32.18-26.43,58.35-58.71,58.3c-32.39-0.05-58.5-26.48-58.39-59.12
		c0.11-32.08,26.58-58.12,58.97-58C980.42,341.78,1006.44,368.11,1006.36,400.48z"/>
</g>
</svg>